<?xml version="1.0" encoding="UTF-8" standalone="no"?>
<!-- Created with Inkscape (http://www.inkscape.org/) -->

<svg
   xmlns:dc="http://purl.org/dc/elements/1.1/"
   xmlns:cc="http://creativecommons.org/ns#"
   xmlns:rdf="http://www.w3.org/1999/02/22-rdf-syntax-ns#"
   xmlns:svg="http://www.w3.org/2000/svg"
   xmlns="http://www.w3.org/2000/svg"
   xmlns:sodipodi="http://sodipodi.sourceforge.net/DTD/sodipodi-0.dtd"
   xmlns:inkscape="http://www.inkscape.org/namespaces/inkscape"
   width="800"
   height="480"
   viewBox="0 0 211.66666 127"
   version="1.1"
   id="svg8"
   inkscape:version="0.92.3 (2405546, 2018-03-11)"
   sodipodi:docname="DernierePhoto.svg"
   inkscape:export-filename="/home/thierry/Photo-Booth/Soft/DernierePhoto.png"
   inkscape:export-xdpi="96"
   inkscape:export-ydpi="96">
  <defs
     id="defs2" />
  <sodipodi:namedview
     id="base"
     pagecolor="#ffffff"
     bordercolor="#666666"
     borderopacity="1.0"
     inkscape:pageopacity="0.0"
     inkscape:pageshadow="2"
     inkscape:zoom="0.35"
     inkscape:cx="361.7967"
     inkscape:cy="-720.65168"
     inkscape:document-units="px"
     inkscape:current-layer="layer1"
     showgrid="false"
     units="px"
     inkscape:window-width="1853"
     inkscape:window-height="1025"
     inkscape:window-x="67"
     inkscape:window-y="27"
     inkscape:window-maximized="1" />
  <metadata
     id="metadata5">
    <rdf:RDF>
      <cc:Work
         rdf:about="">
        <dc:format>image/svg+xml</dc:format>
        <dc:type
           rdf:resource="http://purl.org/dc/dcmitype/StillImage" />
        <dc:title></dc:title>
      </cc:Work>
    </rdf:RDF>
  </metadata>
  <g
     inkscape:label="Calque 1"
     inkscape:groupmode="layer"
     id="layer1"
     transform="translate(0,-169.99999)">
    <ellipse
       style="opacity:0.5;fill:#f2f2f2;fill-opacity:1;stroke:#f2f2f2;stroke-width:0.03926276;stroke-miterlimit:4;stroke-dasharray:none;stroke-opacity:1"
       id="path2020"
       cx="26.262352"
       cy="270.6712"
       rx="20.462791"
       ry="23.19116" />
    <path
       style="fill:#ff0000;stroke-width:0.05113266"
       d="m 28.033204,248.25393 c -0.290868,-0.002 -0.853333,0.1163 -1.133985,0.25362 -0.460868,0.22548 -0.840884,0.66773 -1.046234,1.21758 -0.05147,0.13781 -0.0609,0.14064 -0.475588,0.14081 -1.789941,7.9e-4 -4.015723,0.48666 -5.923139,1.29305 -0.300205,0.12692 -0.698593,0.25189 -0.910698,0.28578 -0.538504,0.0861 -0.885544,0.27298 -1.228433,0.66155 -0.316507,0.35866 -1.065285,0.90945 -1.012451,0.74473 0.339269,-1.05774 0.390301,-2.01375 0.107534,-2.01375 -0.114119,0 -0.616115,0.49162 -0.844249,0.8268 -0.328144,0.48212 -0.419481,0.7661 -0.424662,1.32075 -0.0025,0.26717 0.01333,0.54979 0.0352,0.62807 0.03547,0.12698 0.01343,0.16523 -0.204518,0.35466 -0.589127,0.51205 -1.929073,1.9123 -2.435867,2.54543 -0.586941,0.73325 -1.426272,1.96537 -1.87344,2.75025 -0.148804,0.26119 -0.389378,0.60812 -0.534631,0.7709 -0.4669518,0.52333 -0.6164232,0.84479 -0.6927873,1.48987 -0.024969,0.21092 -0.1007757,0.52152 -0.1684038,0.69025 -0.067628,0.16874 -0.1403958,0.35279 -0.1617076,0.40904 -0.029967,0.0791 -0.070243,0.004 -0.1776365,-0.33234 -0.2229162,-0.69767 -0.5892044,-1.32948 -0.7708005,-1.32948 -0.1214417,0 -0.2300326,0.33652 -0.3152995,0.97694 -0.1030707,0.77414 0.1047059,1.54495 0.5491367,2.03688 l 0.1936635,0.21436 -0.162214,0.64856 c -0.5303397,2.12054 -0.7293273,3.77557 -0.7511221,6.24756 -0.00732,0.82963 -0.030268,1.75167 -0.051028,2.04895 -0.040733,0.58328 0.0266,0.95844 0.236882,1.32004 0.055384,0.0952 0.1346556,0.35982 0.1761131,0.58799 0.041457,0.22818 0.086936,0.467 0.1010427,0.53068 0.021765,0.0983 -0.021553,0.0777 -0.2861862,-0.13554 -0.3497821,-0.28186 -0.8784178,-0.56003 -1.1469691,-0.60361 -0.2576205,-0.0418 -0.2792013,0.072 -0.1082454,0.56963 0.3477639,1.01235 0.9229495,1.61744 1.6154561,1.69945 0.1424473,0.0169 0.2688184,0.0466 0.2808092,0.0659 0.011995,0.0194 0.1282027,0.37856 0.2581841,0.79809 0.6179525,1.99447 1.5037876,3.86723 2.6825886,5.67144 0.275617,0.42185 0.517978,0.82457 0.538589,0.89488 0.09028,0.30796 0.397873,0.82214 0.706584,1.18095 0.252915,0.29395 0.418981,0.43285 0.682744,0.57145 0.191681,0.10073 0.400749,0.25386 0.464632,0.34026 l 0.116158,0.15715 h -0.364807 c -0.606897,0 -1.376749,0.25286 -1.376749,0.45225 0,0.11368 0.144783,0.24982 0.511297,0.48046 0.771704,0.48562 1.536658,0.52643 2.081205,0.11108 l 0.170736,-0.13025 0.471936,0.37677 c 1.649148,1.31666 3.415884,2.29101 5.272961,2.90801 0.340455,0.11311 0.700695,0.25896 0.800524,0.32413 0.526237,0.34349 0.716381,0.40808 1.17355,0.39838 1.011721,-0.0215 1.364921,-0.0146 1.482358,0.0288 l 0.124476,0.0461 -0.124576,0.0667 c -0.356286,0.19068 -1.07284,1.04384 -1.102334,1.31254 -0.003,0.0269 -0.0044,0.0476 0,0.0637 l -0.03175,0.0552 h 0.457124 c 0.0085,0 0.01659,-5.9e-4 0.02506,-7.9e-4 0.01046,0 0.01904,5.9e-4 0.02982,5.9e-4 0.05214,0 0.102934,-0.002 0.153086,-0.006 0.968855,-0.0518 1.504509,-0.46619 1.816626,-1.38761 0.02559,-0.0756 0.09622,-0.0895 0.453777,-0.0897 1.787427,-7.8e-4 4.055747,-0.49185 5.887329,-1.27459 0.313358,-0.13392 0.695109,-0.25989 0.848309,-0.28 0.619758,-0.0813 1.159346,-0.37208 1.435487,-0.77343 0.09309,-0.1353 0.316303,-0.33605 0.546094,-0.49111 0.343504,-0.2318 0.384143,-0.24808 0.349894,-0.14041 -0.334389,1.05142 -0.372191,1.98818 -0.08025,1.98818 0.140613,0 0.655633,-0.52428 0.882193,-0.89812 0.356588,-0.58838 0.493001,-1.3038 0.345632,-1.81227 l -0.05174,-0.17864 0.550254,-0.50836 c 1.610254,-1.48758 2.836899,-3.01588 3.901181,-4.86058 0.178476,-0.30935 0.418855,-0.66595 0.534226,-0.79251 0.503832,-0.55266 0.728454,-1.01354 0.797482,-1.63625 0.03639,-0.32826 0.268172,-1.05612 0.368155,-1.15611 0.01759,-0.0176 0.0467,0.034 0.06462,0.11465 0.158061,0.71118 0.626785,1.60389 0.84212,1.60389 0.210383,0 0.412329,-1.14478 0.316212,-1.79238 -0.06583,-0.44352 -0.346484,-1.05211 -0.573281,-1.24295 -0.08386,-0.0706 -0.152369,-0.15852 -0.152173,-0.19549 1.97e-4,-0.037 0.08012,-0.38333 0.177635,-0.76968 0.231848,-0.9186 0.41453,-1.91569 0.536254,-2.92789 0.142012,-1.18089 0.169637,-1.67239 0.18281,-3.24694 0.0065,-0.77339 0.02874,-1.66105 0.0494,-1.97256 0.0406,-0.61218 -0.02467,-0.98034 -0.23891,-1.34865 -0.05647,-0.0971 -0.136259,-0.37315 -0.17733,-0.61355 -0.04107,-0.2404 -0.08804,-0.48173 -0.10439,-0.53626 -0.0202,-0.0673 0.05804,-0.0224 0.243779,0.1401 0.523576,0.45801 1.367396,0.77375 1.416924,0.53017 0.02621,-0.1289 -0.114754,-0.54877 -0.336097,-1.00099 -0.319485,-0.65275 -0.873671,-1.10682 -1.426968,-1.16919 -0.266445,-0.03 -0.231358,0.0318 -0.528643,-0.932 -0.593227,-1.92326 -1.488473,-3.80893 -2.65804,-5.59901 -0.275617,-0.42185 -0.517978,-0.82457 -0.538587,-0.89488 -0.08777,-0.29943 -0.403627,-0.84249 -0.61021,-1.04907 -0.122629,-0.12263 -0.334265,-0.28006 -0.470312,-0.34989 -0.136046,-0.0698 -0.407811,-0.28983 -0.603919,-0.48888 l -0.35659,-0.36196 h 0.409748 c 0.64876,0 1.402721,-0.24456 1.402721,-0.455 0,-0.24364 -1.012877,-0.81358 -1.529023,-0.86038 -0.408613,-0.0371 -0.599619,0.007 -0.949248,0.2172 -0.183343,0.1104 -0.318578,0.16185 -0.353749,0.13462 -0.03132,-0.0242 -0.28716,-0.22581 -0.568515,-0.44789 -1.585813,-1.25174 -3.227897,-2.14467 -5.124035,-2.78637 -0.315402,-0.10674 -0.726603,-0.28643 -0.913741,-0.3993 -0.504681,-0.30439 -0.778672,-0.38188 -1.189172,-0.3363 -0.438359,0.0487 -1.189709,0.0383 -1.343578,-0.0187 -0.118644,-0.0439 -0.118316,-0.0449 0.04585,-0.12975 0.381104,-0.19707 1.085087,-1.07671 1.085087,-1.35585 0,-0.065 -0.04838,-0.13152 -0.119099,-0.16374 -0.0314,-0.0143 -0.08403,-0.0211 -0.151158,-0.0214 z m -0.02222,0.21578 -0.204926,0.3018 c -0.267719,0.39424 -0.621904,0.71638 -0.950973,0.86505 -0.296489,0.13395 -0.723087,0.21241 -0.767149,0.14112 -0.06092,-0.0986 0.214257,-0.5608 0.471632,-0.79221 0.305058,-0.27428 0.711145,-0.44642 1.150216,-0.48756 z m 0.666513,1.65167 c 0.272387,0 0.628031,0.12812 0.971058,0.3498 0.174199,0.11257 0.397247,0.23785 0.495677,0.27837 l 0.178954,0.0737 -0.281214,0.0809 c -0.586358,0.16879 -1.116122,0.1463 -1.530342,-0.065 -0.20955,-0.10691 -0.668341,-0.49077 -0.668341,-0.55918 0,-0.0426 0.610173,-0.15857 0.834208,-0.15857 z m -3.237509,0.24003 0.0014,0.30181 c 0.0016,0.36249 0.161142,0.85824 0.408326,1.2687 0.199705,0.33162 0.695511,0.82087 0.989322,0.97624 0.191639,0.10133 0.194101,0.10132 0.26691,0.002 0.05188,-0.0705 0.06494,-0.17565 0.04443,-0.3579 -0.0976,-0.86757 -0.360939,-1.52632 -0.776482,-1.94263 l -0.243477,-0.24398 0.535747,0.036 c 0.899633,0.0605 0.973553,0.0808 1.233608,0.34087 0.285896,0.28589 0.707032,0.49026 1.130029,0.54833 0.333755,0.0458 0.886622,5.8e-4 1.132868,-0.0933 0.216493,-0.0823 0.304661,-0.0685 0.840294,0.13138 1.461448,0.54545 2.86816,1.32215 4.142931,2.28755 0.654312,0.49551 0.650872,0.49087 0.522762,0.708 -0.157693,0.26727 -0.295676,0.70942 -0.334474,1.0717 -0.06831,0.63782 0.243728,1.89056 0.479544,1.92548 0.09506,0.0141 0.141377,-0.0469 0.310533,-0.40904 0.109349,-0.23408 0.235117,-0.56696 0.27959,-0.73976 0.09079,-0.35278 0.106804,-1.02789 0.03064,-1.29346 -0.02771,-0.0964 -0.04019,-0.18533 -0.0279,-0.19762 0.01229,-0.0123 0.266601,0.21638 0.565167,0.50815 0.541761,0.52945 0.543057,0.53124 0.617007,0.88402 0.170934,0.81546 0.668572,1.45986 1.434981,1.85822 0.394284,0.20494 0.43148,0.23946 0.684469,0.63385 0.948539,1.47869 1.802775,3.28678 2.344462,4.96233 0.115534,0.35737 0.210099,0.6682 0.210099,0.69065 0,0.0225 -0.116222,0.0941 -0.258286,0.15928 -0.564444,0.25894 -1.092508,1.01369 -1.296404,1.85284 -0.165751,0.68216 -0.09058,0.77236 0.422124,0.50653 0.511421,-0.26515 0.943753,-0.70036 1.181666,-1.18927 l 0.198838,-0.40843 0.05164,0.19873 c 0.153669,0.59098 0.270081,1.27244 0.246113,1.44047 -0.01492,0.10452 -0.07654,0.36266 -0.136956,0.57358 -0.194058,0.67744 -0.07977,1.45981 0.331837,2.27243 l 0.179766,0.35508 v 0.97694 c 0,1.58452 -0.150802,3.08954 -0.463718,4.62795 -0.241091,1.1853 -0.264341,1.25557 -0.40975,1.23686 -0.594439,-0.0765 -0.952959,-0.0654 -1.228332,0.0379 -0.35498,0.13325 -0.712562,0.36634 -1.030101,0.67159 -0.39091,0.37579 -0.320971,0.49792 0.351821,0.61508 0.593606,0.10337 1.183716,-0.0124 1.609877,-0.31581 0.08114,-0.0578 0.147607,-0.0817 0.147607,-0.0532 0,0.0285 -0.114314,0.38093 -0.253924,0.78318 -0.215525,0.62098 -0.279088,0.75073 -0.421415,0.85927 -0.374349,0.28547 -0.698516,0.66149 -0.85754,0.99469 -0.1785,0.37401 -0.357432,1.13465 -0.358416,1.52446 -7.85e-4,0.26301 -0.1391,0.5264 -0.785206,1.49473 -0.854866,1.28121 -2.255631,2.90157 -3.134438,3.62575 h -1.04e-4 c -0.08843,0.0729 -0.170824,0.1325 -0.183114,0.1325 -0.01229,0 -0.05441,-0.0599 -0.09364,-0.1332 -0.03922,-0.0733 -0.192341,-0.24393 -0.340257,-0.37912 l -0.268938,-0.2457 0.284662,-0.1607 c 0.661299,-0.37321 0.96555,-0.81231 0.957364,-1.38182 -0.0083,-0.57552 -0.226548,-1.01762 -1.327953,-2.68999 l -0.294098,-0.44658 -0.170027,-0.92459 c -0.464906,-2.52807 -0.588814,-3.38351 -0.85977,-5.93572 -0.155257,-1.4624 -0.313772,-2.94654 -0.352228,-3.29807 -0.03845,-0.35154 -0.06089,-0.65389 -0.04991,-0.6719 0.01097,-0.018 0.272437,-0.0492 0.581095,-0.0694 0.358165,-0.0234 0.581187,-0.0607 0.616398,-0.10308 0.07831,-0.0944 -0.01052,-0.57723 -0.310229,-1.68667 -0.277285,-1.02641 -0.375242,-1.51796 -0.330518,-1.65888 0.01873,-0.059 0.100725,-0.10771 0.218215,-0.12975 0.408784,-0.0767 0.769828,-0.33759 1.035074,-0.74798 0.385391,-0.59627 0.546539,-1.59574 0.613355,-3.80389 0.02468,-0.81556 0.06026,-1.57698 0.07913,-1.69215 0.01887,-0.11517 0.008,-0.33616 -0.02414,-0.49101 -0.09387,-0.45215 -0.258735,-0.56405 -1.596891,-1.08376 -0.412533,-0.16023 -0.835642,-0.35931 -0.940219,-0.44242 -0.104576,-0.0831 -0.205874,-0.15116 -0.225113,-0.15116 -0.01924,0 -0.228921,0.29914 -0.465951,0.66469 -0.237029,0.36554 -0.453959,0.65665 -0.482081,0.64693 -0.02812,-0.01 -0.05113,-0.18386 -0.05113,-0.38702 0,-0.30646 -0.01696,-0.3818 -0.09932,-0.44242 -0.05843,-0.043 -0.07195,-0.073 -0.03287,-0.073 0.118546,0 0.690692,-0.29858 0.83867,-0.43764 0.105032,-0.0987 0.141734,-0.17904 0.135433,-0.29633 -0.01667,-0.31012 0.0041,-0.35413 0.308705,-0.65495 0.168816,-0.16673 0.352142,-0.3918 0.407416,-0.50014 0.297156,-0.58248 0.450636,-1.74347 0.287097,-2.1717 -0.288281,-0.75484 -1.49104,-1.0982 -2.352577,-0.67169 -0.727651,0.36024 -1.119138,0.88432 -1.18613,1.58777 -0.01875,0.19686 -0.07683,0.49323 -0.129043,0.6586 -0.123538,0.39133 -0.120252,0.84107 0.0095,1.31345 0.181137,0.65923 0.183179,0.73254 0.02262,0.80569 -0.132696,0.0605 -1.459985,0.36694 -1.589181,0.36694 -0.0339,0 -0.08961,-0.12088 -0.123768,-0.26853 -0.125867,-0.54417 -0.478197,-1.56134 -0.716426,-2.06853 -0.615989,-1.31143 -1.502452,-2.16806 -2.455039,-2.37235 -0.399053,-0.0856 -1.188146,-0.033 -1.52253,0.10155 -1.894004,0.76185 -3.194251,3.62502 -3.748908,8.25532 -0.124909,1.04275 -0.197747,3.8824 -0.104086,4.05741 0.135357,0.25292 2.289914,0.7201 3.754081,0.81402 0.302321,0.0194 0.549645,0.0466 0.549645,0.0606 0,0.0139 -0.04503,0.17735 -0.100128,0.36318 -0.141621,0.4776 -0.257779,1.18858 -0.257779,1.57802 0,0.64147 0.145517,1.38299 0.443427,2.25914 0.269211,0.79175 0.284081,0.86115 0.257273,1.20156 -0.05973,0.75838 -0.96806,3.22067 -1.930655,5.23329 -0.900929,1.88369 -1.638154,2.90479 -2.334622,3.23386 -0.184033,0.087 -1.323903,0.49098 -2.533055,0.89781 -2.531336,0.85169 -3.405258,1.18538 -4.240016,1.61901 l -0.596919,0.31013 -0.239012,-0.23912 c -0.28461,-0.28461 -0.608155,-0.51372 -0.920539,-0.6519 -0.253989,-0.11235 -0.382239,-0.28065 -0.969943,-1.27257 -0.724649,-1.22304 -1.483198,-2.91913 -1.9376566,-4.33253 -0.1015609,-0.31586 -0.1843798,-0.59195 -0.1840265,-0.61356 3.927e-4,-0.0216 0.1392631,-0.10585 0.3086053,-0.18717 0.1901731,-0.0913 0.3961337,-0.24601 0.538789,-0.40468 0.3948398,-0.43916 0.8192308,-1.47234 0.7782078,-1.89454 -0.02214,-0.22782 -0.15498,-0.22681 -0.552486,0.004 -0.5933174,0.34474 -1.0528761,0.88542 -1.2506505,1.4714 -0.054489,0.16145 -0.1032375,0.026 -0.2523005,-0.70091 -0.1618469,-0.78923 -0.1630425,-0.86092 -0.020391,-1.21656 0.092069,-0.22954 0.1129825,-0.38456 0.1139248,-0.84364 0.00137,-0.6469 -0.071026,-0.94253 -0.3917912,-1.60135 l -0.2070561,-0.42527 0.029217,-1.36438 c 0.03886,-1.81834 0.2050753,-3.18967 0.5869782,-4.8414 0.1371625,-0.59319 0.146079,-0.61301 0.2684316,-0.59499 0.05474,0.008 0.2381757,0.0167 0.4444426,0.022 0.1106522,0.0145 0.2204446,0.0165 0.3320392,0.005 0.3218469,0 0.3915049,-0.0264 0.7207879,-0.1891 0.221411,-0.10943 0.528047,-0.31896 0.700397,-0.47853 0.463979,-0.42956 0.417062,-0.55749 -0.250069,-0.68173 -0.591483,-0.11015 -1.1999465,-10e-4 -1.5703121,0.28142 -0.099417,0.0758 -0.1937421,0.12481 -0.2096945,0.10885 -0.015941,-0.016 0.083198,-0.35763 0.2203465,-0.75934 0.1715802,-0.50256 0.2893096,-0.76663 0.3774878,-0.84648 0.070481,-0.0638 0.2618003,-0.23521 0.4251693,-0.38094 0.474305,-0.42306 0.769214,-1.14426 0.837452,-2.04792 0.03139,-0.41571 0.03657,-0.42848 0.432472,-1.06724 0.806965,-1.30198 2.099491,-2.89483 3.114249,-3.83788 0.281431,-0.26154 0.528948,-0.48147 0.550051,-0.48877 0.0211,-0.007 0.07613,0.0502 0.122347,0.12782 0.218592,0.36708 0.656155,0.69194 1.132057,0.8405 0.376681,0.11759 1.191654,0.12978 1.340635,0.0201 0.09815,-0.0723 0.09808,-0.0752 -0.003,-0.266 -0.15465,-0.29172 -0.748943,-0.85934 -1.057087,-1.00961 -0.149797,-0.0731 -0.418052,-0.16217 -0.596209,-0.19803 l -0.323923,-0.0651 0.624917,-0.45672 0.62492,-0.45672 0.417257,0.0131 c 0.32415,0.0101 0.482261,-0.0113 0.708512,-0.096 0.413904,-0.15486 0.85423,-0.50588 1.183796,-0.94377 0.282399,-0.37522 0.28715,-0.37866 0.808236,-0.58211 1.443571,-0.56362 3.140973,-0.92967 4.699372,-1.01346 z m 0.273505,0.0732 c 0.04569,5.9e-4 0.119158,0.0353 0.233431,0.0936 0.445587,0.22732 0.766024,0.86411 0.895279,1.77909 0.04368,0.30922 -0.0503,0.2852 -0.450633,-0.11514 -0.429736,-0.42973 -0.695378,-0.94622 -0.733976,-1.42707 -0.01906,-0.23748 -0.02025,-0.33144 0.0559,-0.33052 z m -9.473413,0.76056 c 0.07344,0 0.05558,0.4748 -0.03419,0.90979 -0.101214,0.49044 -0.26787,0.84862 -0.537268,1.15467 -0.225411,0.25608 -0.274189,0.27968 -0.321793,0.15562 -0.112066,-0.29203 0.02089,-1.02941 0.262039,-1.45313 0.153149,-0.26911 0.562881,-0.76695 0.63121,-0.76695 z m 2.942598,0.3153 c 0.08453,-0.007 0.06355,0.0724 -0.05924,0.24956 -0.203835,0.29413 -0.641222,0.68112 -0.92967,0.82254 -0.178583,0.0876 -0.355235,0.12483 -0.653731,0.13787 -0.224983,0.01 -0.423898,0.003 -0.442008,-0.0154 -0.01812,-0.0183 0.01639,-0.0868 0.07669,-0.15238 0.06029,-0.0656 0.196165,-0.22364 0.301909,-0.35131 0.237302,-0.28651 0.609274,-0.47334 1.086,-0.54539 0.196861,-0.0297 0.422,-0.0796 0.500241,-0.11088 0.05175,-0.0207 0.09163,-0.0324 0.119808,-0.0346 z m 18.247747,2.24129 c 0.11644,0 0.336735,0.0368 0.489487,0.0818 0.333779,0.0982 0.878432,0.41687 0.851352,0.4981 -0.01066,0.032 -0.143992,0.0973 -0.296432,0.14508 -0.287321,0.0901 -0.942359,0.11556 -1.172028,0.0454 -0.156629,-0.0478 -0.50212,-0.22941 -0.635064,-0.33377 -0.09406,-0.0738 -0.09437,-0.0812 -0.0076,-0.17703 0.117671,-0.13002 0.50203,-0.2596 0.770294,-0.2596 z m -21.357025,0.4624 c 0.179519,0.003 0.272128,0.0376 0.493038,0.14639 0.295809,0.14562 0.896901,0.69484 0.896901,0.81949 0,0.023 -0.0719,0.0562 -0.15978,0.0738 -0.08788,0.0176 -0.185664,0.0291 -0.217302,0.0256 -0.687742,-0.0763 -1.147295,-0.28382 -1.486415,-0.67148 -0.156798,-0.17925 -0.214599,-0.28128 -0.17936,-0.31652 0.0286,-0.0286 0.224962,-0.0607 0.436429,-0.0714 0.0871,-0.004 0.15665,-0.007 0.216489,-0.006 z m 19.863001,0.0785 c 0.0016,5.9e-4 0.0031,5.9e-4 0.0048,10e-4 l 0.098,0.22237 c 0.178457,0.40466 0.218882,0.8566 0.121028,1.35463 -0.04733,0.2409 -0.142061,0.56443 -0.210404,0.71896 -0.169664,0.38364 -0.176868,0.38065 -0.309111,-0.12853 -0.175354,-0.67516 -0.09413,-1.54392 0.18646,-1.99365 z m -10.53263,0.69249 c 0.288824,9.8e-4 0.601988,0.0427 0.738542,0.11392 0.324934,0.16943 0.586381,0.5042 0.704961,0.90258 0.03616,0.1215 0.03328,0.12362 -0.05823,0.0442 -0.37194,-0.32267 -0.968583,-0.4074 -1.409213,-0.20016 -0.504864,0.23746 -1.02934,0.99242 -1.099188,1.58219 -0.0172,0.14523 -0.04616,0.27327 -0.06442,0.28456 -0.01826,0.0113 -0.09848,-0.16314 -0.178243,-0.38763 -0.124237,-0.34966 -0.141577,-0.46253 -0.120723,-0.78744 0.04492,-0.7 0.495862,-1.3558 1.036289,-1.50711 0.112434,-0.0315 0.276931,-0.0457 0.450226,-0.0451 z m 12.378172,0.67168 c 0.01327,0.002 0.03365,0.0182 0.063,0.0429 0.05334,0.0449 0.20481,0.13246 0.336605,0.19468 0.399287,0.18851 0.696871,0.58435 0.914349,1.21646 0.05119,0.1488 0.151902,0.34776 0.223794,0.44201 0.07189,0.0943 0.130667,0.18639 0.130667,0.20483 0,0.1461 -0.616245,-0.22691 -1.000582,-0.60565 -0.422167,-0.41601 -0.627768,-0.79361 -0.671788,-1.23391 -0.01996,-0.1997 -0.02524,-0.26546 0.004,-0.26133 z m -11.826093,0.65343 c 0.206909,-0.003 0.414232,0.0221 0.546806,0.0774 0.687134,0.2866 0.954737,1.10614 0.645107,1.9758 -0.224035,0.62925 -0.626955,1.41671 -0.84709,1.65553 -0.260072,0.28214 -0.430053,0.29707 -0.775773,0.0681 -0.398118,-0.2637 -0.524959,-0.4644 -0.755686,-1.19566 -0.185664,-0.58843 -0.207056,-0.70693 -0.185042,-1.02341 0.0463,-0.66565 0.383138,-1.26129 0.82741,-1.46309 0.130857,-0.0594 0.337361,-0.0914 0.544268,-0.0946 z m -15.196293,3.24511 0.0027,0.21943 c 0.0066,0.53927 -0.237554,1.30719 -0.55056,1.73192 -0.08627,0.11708 -0.2620831,0.28526 -0.3906745,0.37374 l -0.233737,0.16079 0.030232,-0.29693 c 0.079232,-0.77876 0.2090388,-1.0833 0.6940045,-1.62794 0.150948,-0.16952 0.313517,-0.36508 0.361257,-0.4346 z m 14.170656,0.2731 0.252909,0.22735 c 0.284871,0.25612 0.542377,0.39432 0.734786,0.39432 0.09103,0 0.150139,0.0417 0.196811,0.13879 0.07304,0.15193 0.08176,0.15716 0.859263,0.51698 0.295292,0.13665 0.580054,0.29728 0.632731,0.35699 0.05268,0.0597 0.125343,0.23581 0.161506,0.39138 l 0.0635,0.27341 c -0.0012,0.005 -0.002,0.009 -0.0035,0.0136 l -0.138173,0.0983 c -0.186461,0.13277 -0.248907,0.12963 -0.712266,-0.036 -0.322571,-0.11532 -0.472802,-0.13839 -0.898626,-0.13878 -0.438477,-5.9e-4 -0.54781,0.0174 -0.767047,0.12427 -0.326686,0.15933 -0.861924,0.70113 -1.124854,1.13855 -0.112493,0.18715 -0.22144,0.34111 -0.242055,0.34209 -0.02062,9.8e-4 -0.09829,-0.1181 -0.172563,-0.26468 -0.121244,-0.23926 -0.128666,-0.28417 -0.07243,-0.43968 0.08899,-0.24608 -0.0044,-0.31951 -0.148724,-0.11686 -0.178278,0.25036 -0.875604,1.72165 -0.90664,1.9129 -0.0625,0.38517 0.177609,0.54809 1.418244,0.96223 1.118018,0.37322 1.284182,0.39681 1.79086,0.25464 0.244281,-0.0686 0.524146,-0.10679 0.765323,-0.1046 0.373079,0.003 0.385511,0.0465 0.0351,0.12174 -0.09736,0.0209 -0.140608,0.0622 -0.140608,0.13412 0,0.12595 0.172069,0.20445 0.783889,0.35791 0.241839,0.0607 0.480768,0.1438 0.530978,0.18473 0.08138,0.0663 0.05513,0.0714 -0.24114,0.0464 -0.1828,-0.0155 -0.420936,-0.0435 -0.529257,-0.0623 -0.173698,-0.0301 -0.194786,-0.0228 -0.178649,0.061 0.01162,0.0603 0.18499,0.17973 0.474879,0.32707 0.725279,0.36865 0.626178,0.49713 -0.117782,0.15268 -0.178927,-0.0828 -0.358919,-0.15065 -0.400009,-0.15065 -0.167346,0 -0.02223,0.19159 0.308503,0.40732 0.192607,0.12562 0.326931,0.23622 0.29846,0.2457 -0.02847,0.01 -0.237336,-0.076 -0.464123,-0.19001 -0.468576,-0.23559 -0.516879,-0.24584 -0.516879,-0.10906 0,0.0642 0.101371,0.16174 0.292374,0.28122 0.180774,0.11308 0.253971,0.18205 0.191736,0.18068 -0.118075,-0.003 -0.443706,-0.16708 -0.666615,-0.33661 -0.08631,-0.0656 -0.316377,-0.19027 -0.511297,-0.27695 -0.19492,-0.0867 -0.538512,-0.24794 -0.763498,-0.35831 -0.290701,-0.14262 -0.594037,-0.23804 -1.04826,-0.32981 -0.351537,-0.071 -0.754157,-0.16663 -0.894772,-0.21244 -0.323474,-0.10536 -1.416879,-0.64931 -1.5274,-0.75984 -0.203334,-0.20334 -0.07643,-0.78044 0.634253,-2.88447 0.51435,-1.52276 0.78816,-2.1373 1.035682,-2.32417 0.148294,-0.11196 0.223898,-0.12591 0.777801,-0.14334 0.653149,-0.0206 0.791291,-0.0648 0.892032,-0.28589 z m 6.052689,0.0727 c 0.05303,0.001 0.119072,0.007 0.206445,0.0147 0.219501,0.0192 0.446147,0.0773 0.594181,0.15228 0.256215,0.12983 0.529152,0.41096 0.489589,0.50419 -0.775651,1.82797 -1.82221,4.86788 -1.822108,5.29274 1.4e-5,0.0731 0.0435,0.24793 0.09658,0.38855 0.139758,0.37022 0.281239,1.04914 0.229069,1.09919 -0.02443,0.0234 -0.173671,0.0584 -0.331633,0.0776 -0.283662,0.0345 -0.287722,0.0332 -0.327982,-0.11068 -0.02241,-0.0801 -0.03547,-0.16752 -0.02901,-0.19417 0.0065,-0.0266 -0.02713,-0.34268 -0.07477,-0.70233 -0.08631,-0.65167 -0.08624,-0.65424 0.01968,-0.74412 0.10139,-0.086 0.112951,-0.21355 0.252606,-2.76669 l 0.144664,-2.64252 c 0.0044,-0.0162 0.0091,-0.0312 0.014,-0.0446 l 0.188997,-0.16485 c 0.148673,-0.12971 0.190599,-0.16345 0.349692,-0.15928 z m 1.784571,1.26364 c 0.101847,-9.9e-4 0.218259,0.0529 0.307792,0.15339 0.112062,0.12577 0.162391,0.14687 0.289634,0.12143 0.183806,-0.0368 0.187654,-0.015 0.04241,0.24347 l -0.111694,0.19874 h -0.374039 -0.374139 v -0.29653 c 0,-0.16312 0.02763,-0.32427 0.06138,-0.35801 0.0417,-0.0417 0.09756,-0.0619 0.158665,-0.0625 z m -24.5625785,0.1546 c 0.052855,0 0.3236978,0.56172 0.4437339,0.92034 0.09865,0.29473 0.1317717,1.11542 0.056203,1.39338 -0.021027,0.0773 -0.05901,0.14061 -0.084405,0.14061 -0.025395,0 -0.1294376,-0.0971 -0.2310987,-0.21588 -0.2414895,-0.28213 -0.3530349,-0.66715 -0.3523282,-1.21585 5.889e-4,-0.445 0.095406,-1.0226 0.167895,-1.0226 z m 17.8050285,1.0157 c 0.273031,-0.003 0.58355,0.0535 0.950871,0.16769 0.543179,0.16893 0.583119,0.16812 0.838874,-0.0162 0.07011,-0.0505 0.128175,-0.0238 0.347154,0.15957 0.144638,0.1211 0.298499,0.28894 0.341982,0.37303 l 0.07913,0.15288 -0.182098,-0.13888 c -0.233003,-0.17782 -0.511341,-0.24208 -0.759947,-0.17581 -0.145003,0.0387 -0.256087,0.032 -0.455705,-0.0273 -0.363192,-0.10786 -0.61446,-0.0369 -0.892436,0.2522 -0.115774,0.12039 -0.290052,0.24509 -0.387227,0.27715 -0.09717,0.0321 -0.253547,0.13765 -0.347562,0.23465 -0.14559,0.15021 -0.173995,0.22022 -0.191329,0.47204 -0.02852,0.41439 -0.195969,0.74854 -0.427299,0.85247 -0.100848,0.0453 -0.194144,0.0824 -0.20726,0.0824 -0.01982,0 -0.506935,-0.74396 -0.628164,-0.95939 -0.08447,-0.15011 0.585468,-1.07526 1.012146,-1.39775 0.268661,-0.20306 0.557831,-0.30492 0.908872,-0.30871 z m 0.89893,0.72312 c 0.111836,0.001 0.227816,0.0283 0.330416,0.0814 0.123332,0.0638 0.184949,0.0694 0.281111,0.0256 0.06773,-0.0309 0.216436,-0.0561 0.330416,-0.0561 0.167507,0 0.24052,0.0333 0.381039,0.17379 0.196145,0.19614 0.216766,0.32427 0.07953,0.49374 l -0.09424,0.11647 -0.05641,-0.16191 c -0.03133,-0.0899 -0.09253,-0.16192 -0.137461,-0.16192 -0.0891,0 -0.105262,0.0343 -0.153898,0.32576 l -0.03307,0.19802 -0.146898,-0.14071 c -0.242626,-0.23245 -0.410708,-0.0848 -0.204113,0.17936 0.055,0.0703 0.100555,0.14508 0.101144,0.16617 0.0024,0.0806 -0.334722,0.026 -0.420704,-0.0682 -0.05558,-0.0609 -0.157273,-0.098 -0.268432,-0.098 -0.09843,0 -0.178953,-0.0201 -0.178953,-0.0446 0,-0.0246 0.05983,-0.15169 0.132896,-0.28243 0.07307,-0.13073 0.119722,-0.27173 0.103781,-0.31327 -0.04544,-0.11841 -0.196716,-0.0887 -0.317025,0.0622 l -0.109767,0.13766 -0.06543,-0.19823 c -0.06244,-0.18921 -0.0592,-0.20348 0.07233,-0.31662 0.09297,-0.08 0.229946,-0.11995 0.373734,-0.11808 z m -0.831365,0.51272 c 0.04087,-0.002 0.08146,0.013 0.101041,0.0446 0.01578,0.0255 0.01038,0.0959 -0.01197,0.15632 -0.04055,0.10962 -0.04097,0.1097 -0.132997,0.008 -0.05076,-0.0561 -0.07711,-0.12643 -0.05864,-0.15633 0.02055,-0.0333 0.06169,-0.0511 0.102564,-0.0527 z m -15.574594,0.11038 c 0.0729,0 0.1469,0.004 0.221764,0.0123 0.490115,0.0525 0.518231,0.0909 0.244796,0.33448 -0.126554,0.11273 -0.391132,0.28413 -0.587993,0.38084 -0.321804,0.15807 -0.7330262,0.25706 -0.8693072,0.20928 -0.028124,-0.01 -0.1374059,-0.0324 -0.2428676,-0.05 -0.2363383,-0.0395 -0.2432367,-0.11861 -0.031347,-0.35994 0.2996121,-0.34124 0.7546596,-0.52843 1.2649548,-0.52692 z m 18.222486,0.0838 c 0.02288,0 0.04888,0.0125 0.08481,0.0317 0.229305,0.12272 0.319232,0.42874 0.210199,0.71552 -0.03923,0.10317 -0.02822,0.16754 0.05093,0.29734 0.192168,0.31517 0.105591,0.66952 -0.202492,0.82883 -0.105251,0.0544 -0.153851,0.12691 -0.179662,0.26812 -0.04093,0.22393 -0.142926,0.39999 -0.270664,0.46707 -0.270294,0.14195 -0.743501,0.0918 -0.794236,-0.0842 -0.0138,-0.0478 -0.04162,-0.1273 -0.06188,-0.17652 -0.03053,-0.0742 -0.0091,-0.0895 0.125389,-0.0895 0.313347,0 0.476012,-0.18995 0.261129,-0.30495 -0.0544,-0.0291 -0.16943,-0.053 -0.25565,-0.053 -0.18934,0 -0.192367,-0.0292 -0.03155,-0.31237 0.09919,-0.17462 0.132278,-0.20238 0.158867,-0.13309 0.05012,0.1306 0.171696,0.1057 0.229779,-0.0471 0.04887,-0.12855 0.05551,-0.13066 0.148317,-0.0467 0.146545,0.13262 0.284653,0.0826 0.27949,-0.10125 -0.0024,-0.0837 -0.02208,-0.19233 -0.04383,-0.24155 -0.03302,-0.0747 -0.01282,-0.0895 0.122651,-0.0895 0.313346,0 0.47601,-0.19005 0.261127,-0.30506 -0.0544,-0.0291 -0.169429,-0.053 -0.255648,-0.053 -0.08622,0 -0.156737,-0.0193 -0.156737,-0.0429 0,-0.0236 0.06379,-0.15959 0.141721,-0.30211 0.09247,-0.16909 0.127608,-0.22659 0.177941,-0.22602 z m -3.035323,0.0699 c 0.02477,-0.004 0.05377,0.0244 0.10713,0.0921 0.05541,0.0703 0.101265,0.14508 0.101854,0.16617 5.89e-4,0.0211 -0.0679,0.0384 -0.152275,0.0384 -0.162565,0 -0.202774,-0.10182 -0.101041,-0.25565 0.01612,-0.0244 0.02947,-0.0385 0.04433,-0.041 z m 0.03115,0.55228 c 0.04218,0 0.07669,0.0205 0.07669,0.0456 0,0.0251 -0.03451,0.059 -0.07669,0.0752 -0.04218,0.0162 -0.0767,0.0877 -0.0767,0.15887 0,0.14912 0.119651,0.1711 0.278273,0.0511 0.144075,-0.10897 0.181997,-0.0936 0.181997,0.0741 0,0.31808 0.162182,0.42892 0.258186,0.17642 0.04887,-0.12855 0.05551,-0.13066 0.148317,-0.0467 0.146544,0.13262 0.284651,0.0826 0.279488,-0.10125 -0.0024,-0.0837 -0.02208,-0.19243 -0.04383,-0.24164 -0.03442,-0.0779 -0.0095,-0.0895 0.192955,-0.0895 0.127905,0 0.246796,0.023 0.26417,0.0511 0.01737,0.0281 0.08779,0.0511 0.156433,0.0511 0.138148,0 0.167913,0.0748 0.04809,0.12082 -0.04218,0.0162 -0.07669,0.0877 -0.07669,0.15887 0,0.081 0.02872,0.12945 0.07669,0.12945 0.09618,0 0.09886,0.0713 0.0056,0.14872 -0.05712,0.0474 -0.08178,0.0285 -0.125187,-0.096 -0.05416,-0.15536 -0.19837,-0.21106 -0.235865,-0.0911 -0.01099,0.0351 -0.03488,0.15295 -0.05306,0.26184 l -0.03307,0.19803 -0.139895,-0.13412 c -0.07696,-0.0737 -0.168096,-0.13401 -0.202592,-0.13401 -0.113962,0 -0.121931,0.14746 -0.01592,0.29633 l 0.10439,0.14648 -0.342489,0.057 c -0.188352,0.0314 -0.394153,0.0725 -0.457429,0.0914 -0.08237,0.0245 -0.115144,0.0131 -0.115144,-0.0403 0,-0.041 -0.09203,-0.16838 -0.204518,-0.28314 -0.254905,-0.26004 -0.281449,-0.52656 -0.0767,-0.76989 0.07031,-0.0836 0.127824,-0.17728 0.127824,-0.20837 0,-0.0311 0.03451,-0.0566 0.0767,-0.0566 z m 16.464699,0.14822 c 0.02308,-10e-4 0.04093,0.003 0.05245,0.015 0.01213,0.0121 3.92e-4,0.15456 -0.02587,0.31652 -0.07393,0.45422 -0.268434,0.82254 -0.606659,1.14839 -0.165208,0.15916 -0.395698,0.34188 -0.51211,0.406 -0.19792,0.109 -0.21162,0.11038 -0.21162,0.022 0,-0.4069 0.424656,-1.25081 0.803773,-1.5973 0.202154,-0.18476 0.400009,-0.30497 0.500037,-0.31063 z m 0.835016,0.22176 c 0.131346,-0.002 0.342737,0.051 0.515458,0.13909 0.283804,0.14478 0.557807,0.47908 0.773034,0.94336 0.105532,0.22765 0.20749,0.46567 0.226532,0.52895 0.02372,0.0788 0.01339,0.11471 -0.03277,0.11392 -0.150695,-0.003 -0.747977,-0.37557 -1.002712,-0.62613 -0.287547,-0.28285 -0.664905,-0.95282 -0.597833,-1.06135 0.01549,-0.025 0.05859,-0.037 0.118287,-0.0378 z m -15.279886,0.0903 c 0.02812,0 0.05113,0.023 0.05113,0.0511 0,0.0281 -0.02301,0.0511 -0.05113,0.0511 -0.02812,0 -0.05113,-0.023 -0.05113,-0.0511 0,-0.0281 0.02301,-0.0511 0.05113,-0.0511 z m 15.303118,2.02602 0.171853,0.34086 c 0.250685,0.49726 0.307948,0.95676 0.203099,1.63057 -0.04516,0.29025 -0.08797,0.59676 -0.09516,0.68112 l -0.01309,0.15339 -0.136752,-0.23008 c -0.265638,-0.4469 -0.367635,-0.84446 -0.367242,-1.43173 1.96e-4,-0.43951 0.02178,-0.59196 0.118795,-0.8405 z m -12.618704,0.0193 c -0.05906,0 -0.134959,0.0276 -0.168708,0.0614 -0.03375,0.0337 -0.06138,0.10965 -0.06138,0.16871 0,0.0591 0.02763,0.13496 0.06138,0.16871 0.03375,0.0337 0.109651,0.0614 0.168708,0.0614 0.05906,0 0.134962,-0.0276 0.168709,-0.0614 0.03375,-0.0337 0.06138,-0.10965 0.06138,-0.16871 0,-0.0591 -0.02763,-0.13496 -0.06138,-0.16871 -0.03375,-0.0337 -0.10965,-0.0614 -0.168709,-0.0614 z m -2.490952,0.0511 c 0.160523,0 0.208824,0.026 0.283545,0.15248 0.04954,0.0839 0.273534,0.3462 0.497705,0.58302 l 0.407618,0.43065 -0.133303,0.15835 c -0.07329,0.0871 -0.162832,0.15837 -0.19894,0.15837 -0.07335,0 -0.794439,-0.74008 -0.794439,-0.81534 0,-0.0264 0.02301,-0.0622 0.05113,-0.0795 0.103661,-0.0641 0.04623,-0.22968 -0.127824,-0.36856 -0.09843,-0.0785 -0.178952,-0.15999 -0.178954,-0.18108 0,-0.0211 0.08703,-0.0383 0.193462,-0.0383 z m -2.813051,0.31216 c 0.0181,0.002 0.07772,0.039 0.143853,0.091 0.091,0.0716 0.21086,0.10814 0.354966,0.10814 0.162101,0 0.27938,0.0425 0.459559,0.16668 0.229654,0.15826 0.24894,0.19036 0.380835,0.63547 0.18769,0.6334 0.268622,0.75172 0.489893,0.71582 0.253068,-0.0411 0.633505,-0.22214 0.670775,-0.31926 0.0179,-0.0467 -0.0071,-0.2109 -0.0557,-0.36501 -0.04858,-0.1541 -0.07906,-0.2895 -0.06777,-0.3008 0.01129,-0.0113 0.09082,-0.0346 0.176724,-0.0517 0.134966,-0.027 0.187325,-9.8e-4 0.385704,0.19123 l 0.229577,0.22237 0.06229,0.58809 c 0.139717,1.31944 0.304259,2.33243 0.440083,2.70998 0.476457,1.32444 1.922439,3.7874 5.358682,9.12717 1.013468,1.57489 1.934881,3.0422 2.047526,3.26064 0.161554,0.3133 0.20926,0.46763 0.226025,0.73083 0.03972,0.62374 -0.219062,0.99404 -0.930278,1.331 -0.36139,0.17122 -0.366633,0.17213 -0.615484,0.0969 -0.332393,-0.10051 -1.150945,-0.10233 -1.286056,-0.003 -0.09791,0.0721 -0.09788,0.0756 -0.0016,0.25595 0.05373,0.10059 0.08824,0.19218 0.07669,0.20351 -0.03133,0.0307 -1.095611,0.21351 -1.938466,0.33295 -1.315988,0.1865 -2.409342,0.3069 -3.27251,0.36024 v 0 c -0.974549,0.0602 -5.04724,0.0574 -6.289264,-0.004 -1.256391,-0.0625 -2.87421,-0.1884 -3.911731,-0.30424 -0.975396,-0.1089 -2.205718,-0.28585 -2.271927,-0.32676 -0.02179,-0.0135 -0.01816,-0.15758 0.008,-0.32017 0.07611,-0.47282 -0.04576,-1.27811 -0.273502,-1.8075 -0.16359,-0.38027 -0.262823,-0.34678 -0.504096,0.16972 -0.24979,0.53475 -0.358719,0.95803 -0.358719,1.39359 v 0.3435 l -0.187984,-0.0353 c -0.3305,-0.062 -0.549137,-0.18167 -0.71967,-0.39392 -0.0914,-0.11377 -0.166172,-0.2625 -0.166172,-0.33052 0,-0.068 -0.06198,-0.30716 -0.137665,-0.53138 -0.163394,-0.48405 -0.205833,-0.42371 0.572266,-0.81209 0.755961,-0.37733 1.703703,-0.73174 4.036716,-1.50965 2.479865,-0.82687 2.814588,-0.97177 3.237104,-1.40089 1.019754,-1.03572 2.475623,-4.02265 3.530691,-7.24389 0.140731,-0.42967 0.175388,-0.58029 0.182405,-0.91547 0.014,-0.11577 0.01502,-0.22396 9.81e-4,-0.34209 -0.0045,-0.36737 -0.03385,-0.46729 -0.20878,-0.91556 -0.31633,-0.81066 -0.439038,-1.42939 -0.441197,-2.22435 -0.002,-0.72871 0.04404,-0.9792 0.361765,-1.9686 0.103856,-0.32341 0.194037,-0.59643 0.200358,-0.60666 7.85e-4,-0.001 0.0025,-0.002 0.0051,-0.002 z m 1.593646,0.77151 c 0.100255,0.006 0.431325,0.10537 0.498515,0.15603 0.06143,0.0463 0.145009,0.33575 0.107737,0.37302 -0.07145,0.0715 -0.397573,0.16866 -0.423747,0.1263 -0.05749,-0.093 -0.230708,-0.63079 -0.209897,-0.6516 0.0035,-0.003 0.01307,-0.005 0.02739,-0.004 z m -18.762494,3.82509 c 0.060101,0 0.3456084,0.6685 0.4367333,1.0226 0.062501,0.24288 0.079397,0.47007 0.062797,0.84374 -0.015823,0.35609 -0.053164,0.58071 -0.1231594,0.73996 l -0.1005343,0.22867 -0.2017791,-0.40762 c -0.1953518,-0.39462 -0.2017576,-0.42403 -0.1990406,-0.91901 0.00346,-0.62986 0.076258,-1.50834 0.1249831,-1.50834 z m -1.158638,3.22128 c 0.1617135,0 0.7446279,0.34738 0.9844507,0.58668 0.2619238,0.26134 0.5833268,0.83659 0.5833268,1.0441 0,0.0839 -0.031067,0.10738 -0.1406078,0.10581 -0.4583671,-0.007 -1.0825095,-0.6071 -1.3670113,-1.31528 -0.1473119,-0.36669 -0.155188,-0.42131 -0.060158,-0.42131 z m 3.581417,0.0109 c 0.0062,5.9e-4 0.01093,0.003 0.01421,0.006 0.03905,0.0391 -0.171484,0.72349 -0.3014,0.97989 -0.1723208,0.34007 -0.3950937,0.62113 -0.619341,0.78125 -0.1167498,0.0834 -0.2675364,0.16882 -0.3350821,0.18991 -0.1219108,0.0381 -0.1226608,0.0362 -0.092927,-0.2519 0.041442,-0.40152 0.2825368,-0.88939 0.5911361,-1.19637 0.2458555,-0.24457 0.650745,-0.51832 0.743411,-0.50856 z m 31.309374,1.90742 c 0.643593,-10e-4 0.671986,0.0412 0.286895,0.42628 -0.235977,0.23598 -0.367415,0.32373 -0.578863,0.38652 -0.366272,0.10878 -1.134939,0.0876 -1.257142,-0.0346 -0.04756,-0.0476 0.500737,-0.48607 0.790279,-0.63202 0.254118,-0.1281 0.344605,-0.14541 0.758831,-0.14619 z m 0.99277,0.74067 c 0.08009,0 0.344129,0.40997 0.438762,0.68122 0.09956,0.28538 0.129814,1.21276 0.05164,1.58137 -0.02236,0.10547 -0.06218,0.19174 -0.08846,0.19174 -0.07733,0 -0.349328,-0.51034 -0.459356,-0.8618 -0.06578,-0.21013 -0.101754,-0.46873 -0.101754,-0.73164 0,-0.42147 0.08126,-0.86089 0.159173,-0.86089 z m -1.01164,1.8491 c 0.0036,-5.9e-4 0.0059,-5.9e-4 0.0069,5.8e-4 0.02665,0.0309 -0.07717,0.78234 -0.132997,0.96255 -0.0891,0.28763 -0.287244,0.59774 -0.608182,0.95188 -0.164782,0.18183 -0.313939,0.37575 -0.331429,0.43085 -0.01749,0.0551 -0.05552,0.10013 -0.08451,0.10013 -0.119133,0 0.10569,-1.17393 0.297141,-1.55155 0.144177,-0.28438 0.442795,-0.64389 0.647136,-0.77912 0.09552,-0.0632 0.180845,-0.11059 0.205939,-0.11534 z m -29.782683,4.18655 c 0.126373,-0.005 0.739836,0.36663 0.967509,0.59428 0.313829,0.3138 0.577899,0.83049 0.613457,1.20053 0.01313,0.13665 0.0037,0.24749 -0.021,0.24612 -0.135071,-0.007 -0.538249,-0.27642 -0.745136,-0.49761 -0.237161,-0.25354 -0.505954,-0.72344 -0.573281,-1.0022 -0.01955,-0.0809 -0.09136,-0.22926 -0.159476,-0.3295 -0.06812,-0.10025 -0.113401,-0.19267 -0.100636,-0.20543 0.0038,-0.004 0.01013,-0.006 0.01857,-0.006 z m 3.600085,0.89284 0.103577,0.30678 c 0.08089,0.23957 0.104372,0.44679 0.107434,0.9459 0.0035,0.57106 -0.0096,0.67143 -0.123361,0.94215 -0.07004,0.16665 -0.154847,0.31205 -0.188491,0.32301 -0.127549,0.0415 -0.288497,-0.40153 -0.311648,-0.85795 -0.0249,-0.49089 0.06124,-0.91576 0.279692,-1.37867 z m 18.642683,1.6674 c 0.06012,7.9e-4 0.12694,0.003 0.19833,0.007 0.692762,0.0364 1.107626,0.23036 1.431736,0.66956 0.158973,0.21542 0.145166,0.27631 -0.07669,0.33792 -0.340828,0.0947 -0.714796,0.022 -1.043596,-0.20279 -0.217045,-0.14839 -0.809961,-0.72245 -0.809961,-0.7842 0,-0.02 0.119814,-0.03 0.300185,-0.0274 z m -19.376355,0.40346 c 0.06149,0 0.208171,0.14668 0.208171,0.20817 0,0.0763 -0.07971,0.0549 -0.171042,-0.0461 -0.09483,-0.10478 -0.107955,-0.16211 -0.03713,-0.16211 z m -1.276114,0.25838 c 0.382566,-0.008 0.742459,0.0861 1.029088,0.27574 0.109761,0.0726 0.199547,0.16732 0.199547,0.2104 0,0.0445 -0.115815,0.13225 -0.268431,0.20331 -0.503517,0.23442 -1.088146,0.13786 -1.695195,-0.27979 -0.283088,-0.19478 -0.27365,-0.21027 0.204013,-0.33468 0.178479,-0.0465 0.357083,-0.0713 0.530978,-0.075 z m 21.777221,0.68965 c 0.03383,10e-4 0.07169,0.006 0.11687,0.0139 l 0.215069,0.0367 -0.456618,0.33579 c -0.823824,0.60588 -0.736141,0.56676 -1.289809,0.57532 -0.433794,0.007 -0.533796,0.0262 -0.794743,0.1543 -0.347404,0.17058 -0.887929,0.65713 -1.109029,0.99835 -0.143623,0.22165 -0.1914,0.25217 -0.705367,0.45073 -1.127611,0.43564 -2.393644,0.7636 -3.508883,0.90887 -0.335958,0.0438 -0.882468,0.0942 -1.214432,0.112 l -0.601891,0.0324 c -5.89e-4,-0.001 -0.0012,-0.004 -0.0016,-0.005 v -0.27462 c 0,-0.61702 -0.309844,-1.27497 -0.856018,-1.81795 -0.204179,-0.20297 -0.371198,-0.38127 -0.371198,-0.39625 0,-0.015 0.627038,-0.0273 1.393388,-0.0275 4.130308,-7.8e-4 8.088785,-0.44293 8.900941,-0.99408 0.116706,-0.0792 0.181841,-0.10694 0.283345,-0.10287 z m 0.608384,0.43257 c 0.08182,0 0.113896,0.42691 0.05813,0.77344 -0.02884,0.17921 -0.122906,0.46909 -0.209086,0.6442 -0.184986,0.37588 -0.668113,0.93526 -0.726367,0.841 -0.05769,-0.0933 0.05712,-0.92349 0.1752,-1.26668 0.05708,-0.1659 0.157216,-0.38209 0.222579,-0.48056 0.153211,-0.2308 0.416342,-0.5114 0.479543,-0.5114 z m -19.441383,0.051 c 0.05452,-0.003 0.181853,0.0154 0.404677,0.0583 1.497774,0.28822 4.722693,0.55393 6.734824,0.55492 l 0.597122,5.8e-4 0.03399,0.294 c 0.104809,0.90582 0.368995,1.58719 0.77141,1.9896 l 0.221968,0.22176 -0.267112,-0.007 c -0.146906,-0.004 -0.484648,-0.0288 -0.750513,-0.0553 l -0.483399,-0.0482 -0.289938,-0.26844 c -0.159471,-0.14763 -0.39631,-0.31851 -0.526313,-0.37961 -0.447495,-0.21035 -1.038168,-0.22928 -1.717816,-0.0551 -0.234546,0.0601 -0.275915,0.0541 -0.726065,-0.10621 -0.668968,-0.23819 -1.569187,-0.64594 -2.195129,-0.99429 -0.576868,-0.32105 -1.745357,-1.07031 -1.832049,-1.17477 -0.01486,-0.0179 -0.0084,-0.0281 0.02435,-0.0301 z m 17.464569,0.66195 c 0.08398,0 0.160767,0.008 0.224706,0.0238 l 0.131477,0.033 -0.127317,0.13919 c -0.07002,0.0765 -0.214647,0.24058 -0.321387,0.3645 -0.235176,0.27301 -0.684191,0.49794 -1.083159,0.54265 -0.157827,0.0177 -0.373719,0.065 -0.479748,0.1051 -0.256398,0.097 -0.2568,0.0967 -0.162723,-0.0852 0.13796,-0.26679 0.700206,-0.78687 1.019452,-0.94306 0.229897,-0.11248 0.546753,-0.18024 0.798699,-0.17997 z m -9.439326,0.10358 0.233331,0.19173 c 0.311385,0.25585 0.586126,0.61159 0.738642,0.95646 0.129057,0.29181 0.255304,0.9179 0.202388,1.00352 -0.04641,0.0751 -0.09508,0.0599 -0.312055,-0.0973 -0.277244,-0.20083 -0.469368,-0.43995 -0.636382,-0.79231 -0.146024,-0.30807 -0.271883,-0.89395 -0.242562,-1.12891 z m -2.454432,1.66334 c 0.513043,0 0.588227,0.0126 0.855208,0.14375 0.161077,0.0791 0.375193,0.24003 0.476196,0.35791 l 0.183518,0.21415 -0.194983,0.042 c -0.10725,0.0231 -0.367532,0.0528 -0.578456,0.066 -0.330665,0.0208 -0.419438,0.007 -0.644194,-0.0999 -0.143366,-0.0682 -0.357491,-0.19413 -0.475892,-0.27989 -0.118401,-0.0858 -0.282694,-0.1708 -0.365112,-0.1889 -0.455897,-0.10013 -0.0041,-0.25514 0.743715,-0.25514 z m 3.248668,1.18917 -0.102362,0.23871 c -0.208989,0.48755 -0.567871,0.80207 -1.100913,0.96477 -0.278161,0.0849 -0.741483,0.15305 -0.741483,0.10905 0,-0.0151 0.09092,-0.16118 0.201984,-0.32473 0.392749,-0.57835 0.916297,-0.92799 1.447155,-0.96639 z"
       id="path1099"
       inkscape:connector-curvature="0" />
    <flowRoot
       xml:space="preserve"
       id="flowRoot2046"
       style="font-style:normal;font-variant:normal;font-weight:normal;font-stretch:normal;font-size:13.33333302px;line-height:1.25;font-family:sans-serif;-inkscape-font-specification:'sans-serif, Normal';font-variant-ligatures:normal;font-variant-caps:normal;font-variant-numeric:normal;font-feature-settings:normal;text-align:start;letter-spacing:0px;word-spacing:0px;writing-mode:lr-tb;text-anchor:start;fill:#000000;fill-opacity:1;stroke:none"
       transform="matrix(0.26458333,0,0,0.26458333,0,-353.87501)"><flowRegion
         id="flowRegion2048"><rect
           id="rect2050"
           width="523.25903"
           height="385.87827"
           x="543.4621"
           y="1613.4922" /></flowRegion><flowPara
         id="flowPara2052" /></flowRoot>    <text
       xml:space="preserve"
       style="font-style:normal;font-variant:normal;font-weight:normal;font-stretch:normal;font-size:40.22298813px;line-height:1.25;font-family:Blacksword;-inkscape-font-specification:'Blacksword, Normal';font-variant-ligatures:normal;font-variant-caps:normal;font-variant-numeric:normal;font-feature-settings:normal;text-align:start;letter-spacing:0px;word-spacing:0px;writing-mode:lr-tb;text-anchor:start;fill:#550000;fill-opacity:1;stroke:#550000;stroke-width:0.41898945"
       x="3.2630699"
       y="190.92815"
       id="text828-4"
       transform="scale(0.89722261,1.1145506)"><tspan
         sodipodi:role="line"
         id="tspan826-0"
         x="3.2630699"
         y="190.92815"
         style="font-style:normal;font-variant:normal;font-weight:normal;font-stretch:normal;font-size:40.22298813px;font-family:Blacksword;-inkscape-font-specification:'Blacksword, Normal';font-variant-ligatures:normal;font-variant-caps:normal;font-variant-numeric:normal;font-feature-settings:normal;text-align:start;writing-mode:lr-tb;text-anchor:start;fill:#550000;stroke:#550000;stroke-width:0.41898945">Une dernière</tspan></text>
  </g>
</svg>
