  0
SECTION
  2
HEADER
  9
$ACADVER
  1
AC1014
  9
$HANDSEED
  5
FFFF
  9
$MEASUREMENT
 70
     1
  0
ENDSEC
  0
SECTION
  2
TABLES
  0
TABLE
  2
VPORT
  5
8
330
0
100
AcDbSymbolTable
 70
     4
  0
VPORT
  5
2E
330
8
100
AcDbSymbolTableRecord
100
AcDbViewportTableRecord
  2
*ACTIVE
 70
     0
 10
0.0
 20
0.0
 11
1.0
 21
1.0
 12
210.0
 22
148.5
 13
0.0
 23
0.0
 14
10.0
 24
10.0
 15
10.0
 25
10.0
 16
0.0
 26
0.0
 36
1.0
 17
0.0
 27
0.0
 37
0.0
 40
341.0
 41
1.24
 42
50.0
 43
0.0
 44
0.0
 50
0.0
 51
0.0
 71
     0
 72
   100
 73
     1
 74
     3
 75
     0
 76
     0
 77
     0
 78
     0
  0
ENDTAB
  0
TABLE
  2
LTYPE
  5
5
330
0
100
AcDbSymbolTable
 70
     1
  0
LTYPE
  5
14
330
5
100
AcDbSymbolTableRecord
100
AcDbLinetypeTableRecord
  2
BYBLOCK
 70
     0
  3

 72
    65
 73
     0
 40
0.0
  0
LTYPE
  5
15
330
5
100
AcDbSymbolTableRecord
100
AcDbLinetypeTableRecord
  2
BYLAYER
 70
     0
  3

 72
    65
 73
     0
 40
0.0
  0
LTYPE
  5
16
330
5
100
AcDbSymbolTableRecord
100
AcDbLinetypeTableRecord
  2
CONTINUOUS
 70
     0
  3
Solid line
 72
    65
 73
     0
 40
0.0
  0
ENDTAB
  0
TABLE
  2
LAYER
  5
2
100
AcDbSymbolTable
 70
3
  0
LAYER
  5
50
100
AcDbSymbolTableRecord
100
AcDbLayerTableRecord
  2
0
 70
0
  6
CONTINUOUS
  0
LAYER
  5
51
100
AcDbSymbolTableRecord
100
AcDbLayerTableRecord
  2
DecoupeLaser
 70
0
  6
CONTINUOUS
  0
LAYER
  5
52
100
AcDbSymbolTableRecord
100
AcDbLayerTableRecord
  2
DecoupeScie
 70
0
  6
CONTINUOUS
  0
ENDTAB
  0
TABLE
  2
STYLE
  5
3
330
0
100
AcDbSymbolTable
 70
     1
  0
STYLE
  5
11
330
3
100
AcDbSymbolTableRecord
100
AcDbTextStyleTableRecord
  2
STANDARD
 70
     0
 40
0.0
 41
1.0
 50
0.0
 71
     0
 42
2.5
  3
txt
  4

  0
ENDTAB
  0
TABLE
  2
VIEW
  5
6
330
0
100
AcDbSymbolTable
 70
     0
  0
ENDTAB
  0
TABLE
  2
UCS
  5
7
330
0
100
AcDbSymbolTable
 70
     0
  0
ENDTAB
  0
TABLE
  2
APPID
  5
9
330
0
100
AcDbSymbolTable
 70
     2
  0
APPID
  5
12
330
9
100
AcDbSymbolTableRecord
100
AcDbRegAppTableRecord
  2
ACAD
 70
     0
  0
ENDTAB
  0
TABLE
  2
DIMSTYLE
  5
A
330
0
100
AcDbSymbolTable
 70
     1
  0
DIMSTYLE
105
27
330
A
100
AcDbSymbolTableRecord
100
AcDbDimStyleTableRecord
  2
ISO-25
 70
     0
  3

  4

  5

  6

  7

 40
1.0
 41
2.5
 42
0.625
 43
3.75
 44
1.25
 45
0.0
 46
0.0
 47
0.0
 48
0.0
140
2.5
141
2.5
142
0.0
143
0.03937007874016
144
1.0
145
0.0
146
1.0
147
0.625
 71
     0
 72
     0
 73
     0
 74
     0
 75
     0
 76
     0
 77
     1
 78
     8
170
     0
171
     3
172
     1
173
     0
174
     0
175
     0
176
     0
177
     0
178
     0
270
     2
271
     2
272
     2
273
     2
274
     3
340
11
275
     0
280
     0
281
     0
282
     0
283
     0
284
     8
285
     0
286
     0
287
     3
288
     0
  0
ENDTAB
  0
TABLE
  2
BLOCK_RECORD
  5
1
330
0
100
AcDbSymbolTable
 70
     1
  0
BLOCK_RECORD
  5
1F
330
1
100
AcDbSymbolTableRecord
100
AcDbBlockTableRecord
  2
*MODEL_SPACE
  0
BLOCK_RECORD
  5
1B
330
1
100
AcDbSymbolTableRecord
100
AcDbBlockTableRecord
  2
*PAPER_SPACE
  0
ENDTAB
  0
ENDSEC
  0
SECTION
  2
BLOCKS
  0
BLOCK
  5
20
330
1F
100
AcDbEntity
  8
0
100
AcDbBlockBegin
  2
*MODEL_SPACE
 70
     0
 10
0.0
 20
0.0
 30
0.0
  3
*MODEL_SPACE
  1

  0
ENDBLK
  5
21
330
1F
100
AcDbEntity
  8
0
100
AcDbBlockEnd
  0
BLOCK
  5
1C
330
1B
100
AcDbEntity
 67
     1
  8
0
100
AcDbBlockBegin
  2
*PAPER_SPACE
  1

  0
ENDBLK
  5
1D
330
1B
100
AcDbEntity
 67
     1
  8
0
100
AcDbBlockEnd
  0
ENDSEC
  0
SECTION
  2
ENTITIES
  0
LINE
  5
100
100
AcDbEntity
  8
DecoupeLaser
 62
7
100
AcDbLine
 10
51.697541
 20
281.235652
 30
0.0
 11
88.802459
 21
281.235652
 31
0.0
  0
SPLINE
  5
101
100
AcDbEntity
  8
DecoupeLaser
 62
7
100
AcDbSpline
 70
8
 71
3
 72
8
 73
4
 74
0
 40
0
 40
0
 40
0
 40
0
 40
1
 40
1
 40
1
 40
1
 10
88.802459
 20
281.235652
 30
0.0
 10
89.742897
 20
281.235652
 30
0.0
 10
90.500000
 20
279.895492
 30
0.0
 10
90.500000
 20
278.230809
 30
0.0
  0
LINE
  5
102
100
AcDbEntity
  8
DecoupeLaser
 62
7
100
AcDbLine
 10
90.500000
 20
278.230809
 30
0.0
 11
90.500000
 21
249.240494
 31
0.0
  0
SPLINE
  5
103
100
AcDbEntity
  8
DecoupeLaser
 62
7
100
AcDbSpline
 70
8
 71
3
 72
8
 73
4
 74
0
 40
0
 40
0
 40
0
 40
0
 40
1
 40
1
 40
1
 40
1
 10
90.500000
 20
249.240494
 30
0.0
 10
90.500000
 20
247.575812
 30
0.0
 10
89.742897
 20
246.235652
 30
0.0
 10
88.802459
 20
246.235652
 30
0.0
  0
LINE
  5
104
100
AcDbEntity
  8
DecoupeLaser
 62
7
100
AcDbLine
 10
88.802459
 20
246.235652
 30
0.0
 11
51.697541
 21
246.235652
 31
0.0
  0
SPLINE
  5
105
100
AcDbEntity
  8
DecoupeLaser
 62
7
100
AcDbSpline
 70
8
 71
3
 72
8
 73
4
 74
0
 40
0
 40
0
 40
0
 40
0
 40
1
 40
1
 40
1
 40
1
 10
51.697541
 20
246.235652
 30
0.0
 10
50.757103
 20
246.235652
 30
0.0
 10
50.000000
 20
247.575812
 30
0.0
 10
50.000000
 20
249.240494
 30
0.0
  0
LINE
  5
106
100
AcDbEntity
  8
DecoupeLaser
 62
7
100
AcDbLine
 10
50.000000
 20
249.240494
 30
0.0
 11
50.000000
 21
278.230809
 31
0.0
  0
SPLINE
  5
107
100
AcDbEntity
  8
DecoupeLaser
 62
7
100
AcDbSpline
 70
8
 71
3
 72
8
 73
4
 74
0
 40
0
 40
0
 40
0
 40
0
 40
1
 40
1
 40
1
 40
1
 10
50.000000
 20
278.230809
 30
0.0
 10
50.000000
 20
279.895492
 30
0.0
 10
50.757103
 20
281.235652
 30
0.0
 10
51.697541
 20
281.235652
 30
0.0
  0
LINE
  5
108
100
AcDbEntity
  8
DecoupeLaser
 62
7
100
AcDbLine
 10
51.697541
 20
281.235652
 30
0.0
 11
51.697541
 21
281.235652
 31
0.0
  0
SPLINE
  5
109
100
AcDbEntity
  8
DecoupeLaser
 62
7
100
AcDbSpline
 70
8
 71
3
 72
8
 73
4
 74
0
 40
0
 40
0
 40
0
 40
0
 40
1
 40
1
 40
1
 40
1
 10
58.800001
 20
276.563840
 30
0.0
 10
58.800001
 20
275.431656
 30
0.0
 10
57.882185
 20
274.513840
 30
0.0
 10
56.750001
 20
274.513840
 30
0.0
  0
SPLINE
  5
10a
100
AcDbEntity
  8
DecoupeLaser
 62
7
100
AcDbSpline
 70
8
 71
3
 72
8
 73
4
 74
0
 40
0
 40
0
 40
0
 40
0
 40
1
 40
1
 40
1
 40
1
 10
56.750001
 20
274.513840
 30
0.0
 10
56.206307
 20
274.513840
 30
0.0
 10
55.684882
 20
274.729822
 30
0.0
 10
55.300432
 20
275.114271
 30
0.0
  0
SPLINE
  5
10b
100
AcDbEntity
  8
DecoupeLaser
 62
7
100
AcDbSpline
 70
8
 71
3
 72
8
 73
4
 74
0
 40
0
 40
0
 40
0
 40
0
 40
1
 40
1
 40
1
 40
1
 10
55.300432
 20
275.114271
 30
0.0
 10
54.915983
 20
275.498721
 30
0.0
 10
54.700001
 20
276.020146
 30
0.0
 10
54.700001
 20
276.563840
 30
0.0
  0
SPLINE
  5
10c
100
AcDbEntity
  8
DecoupeLaser
 62
7
100
AcDbSpline
 70
8
 71
3
 72
8
 73
4
 74
0
 40
0
 40
0
 40
0
 40
0
 40
1
 40
1
 40
1
 40
1
 10
54.700001
 20
276.563840
 30
0.0
 10
54.700001
 20
277.107534
 30
0.0
 10
54.915983
 20
277.628959
 30
0.0
 10
55.300432
 20
278.013409
 30
0.0
  0
SPLINE
  5
10d
100
AcDbEntity
  8
DecoupeLaser
 62
7
100
AcDbSpline
 70
8
 71
3
 72
8
 73
4
 74
0
 40
0
 40
0
 40
0
 40
0
 40
1
 40
1
 40
1
 40
1
 10
55.300432
 20
278.013409
 30
0.0
 10
55.684882
 20
278.397858
 30
0.0
 10
56.206307
 20
278.613840
 30
0.0
 10
56.750001
 20
278.613840
 30
0.0
  0
SPLINE
  5
10e
100
AcDbEntity
  8
DecoupeLaser
 62
7
100
AcDbSpline
 70
8
 71
3
 72
8
 73
4
 74
0
 40
0
 40
0
 40
0
 40
0
 40
1
 40
1
 40
1
 40
1
 10
56.750001
 20
278.613840
 30
0.0
 10
57.882185
 20
278.613840
 30
0.0
 10
58.800001
 20
277.696024
 30
0.0
 10
58.800001
 20
276.563840
 30
0.0
  0
LINE
  5
10f
100
AcDbEntity
  8
DecoupeLaser
 62
7
100
AcDbLine
 10
58.800001
 20
276.563840
 30
0.0
 11
58.800001
 21
276.563840
 31
0.0
  0
SPLINE
  5
110
100
AcDbEntity
  8
DecoupeLaser
 62
7
100
AcDbSpline
 70
8
 71
3
 72
8
 73
4
 74
0
 40
0
 40
0
 40
0
 40
0
 40
1
 40
1
 40
1
 40
1
 10
85.799999
 20
276.307464
 30
0.0
 10
85.799999
 20
275.175281
 30
0.0
 10
84.882183
 20
274.257464
 30
0.0
 10
83.750000
 20
274.257464
 30
0.0
  0
SPLINE
  5
111
100
AcDbEntity
  8
DecoupeLaser
 62
7
100
AcDbSpline
 70
8
 71
3
 72
8
 73
4
 74
0
 40
0
 40
0
 40
0
 40
0
 40
1
 40
1
 40
1
 40
1
 10
83.750000
 20
274.257464
 30
0.0
 10
83.206306
 20
274.257464
 30
0.0
 10
82.684881
 20
274.473445
 30
0.0
 10
82.300431
 20
274.857895
 30
0.0
  0
SPLINE
  5
112
100
AcDbEntity
  8
DecoupeLaser
 62
7
100
AcDbSpline
 70
8
 71
3
 72
8
 73
4
 74
0
 40
0
 40
0
 40
0
 40
0
 40
1
 40
1
 40
1
 40
1
 10
82.300431
 20
274.857895
 30
0.0
 10
81.915982
 20
275.242345
 30
0.0
 10
81.700000
 20
275.763770
 30
0.0
 10
81.700000
 20
276.307464
 30
0.0
  0
SPLINE
  5
113
100
AcDbEntity
  8
DecoupeLaser
 62
7
100
AcDbSpline
 70
8
 71
3
 72
8
 73
4
 74
0
 40
0
 40
0
 40
0
 40
0
 40
1
 40
1
 40
1
 40
1
 10
81.700000
 20
276.307464
 30
0.0
 10
81.700000
 20
276.851158
 30
0.0
 10
81.915982
 20
277.372583
 30
0.0
 10
82.300431
 20
277.757033
 30
0.0
  0
SPLINE
  5
114
100
AcDbEntity
  8
DecoupeLaser
 62
7
100
AcDbSpline
 70
8
 71
3
 72
8
 73
4
 74
0
 40
0
 40
0
 40
0
 40
0
 40
1
 40
1
 40
1
 40
1
 10
82.300431
 20
277.757033
 30
0.0
 10
82.684881
 20
278.141483
 30
0.0
 10
83.206306
 20
278.357464
 30
0.0
 10
83.750000
 20
278.357464
 30
0.0
  0
SPLINE
  5
115
100
AcDbEntity
  8
DecoupeLaser
 62
7
100
AcDbSpline
 70
8
 71
3
 72
8
 73
4
 74
0
 40
0
 40
0
 40
0
 40
0
 40
1
 40
1
 40
1
 40
1
 10
83.750000
 20
278.357464
 30
0.0
 10
84.882183
 20
278.357464
 30
0.0
 10
85.799999
 20
277.439648
 30
0.0
 10
85.799999
 20
276.307464
 30
0.0
  0
LINE
  5
116
100
AcDbEntity
  8
DecoupeLaser
 62
7
100
AcDbLine
 10
85.799999
 20
276.307464
 30
0.0
 11
85.799999
 21
276.307464
 31
0.0
  0
SPLINE
  5
117
100
AcDbEntity
  8
DecoupeLaser
 62
7
100
AcDbSpline
 70
8
 71
3
 72
8
 73
4
 74
0
 40
0
 40
0
 40
0
 40
0
 40
1
 40
1
 40
1
 40
1
 10
58.800001
 20
251.163840
 30
0.0
 10
58.800001
 20
250.031656
 30
0.0
 10
57.882185
 20
249.113840
 30
0.0
 10
56.750001
 20
249.113840
 30
0.0
  0
SPLINE
  5
118
100
AcDbEntity
  8
DecoupeLaser
 62
7
100
AcDbSpline
 70
8
 71
3
 72
8
 73
4
 74
0
 40
0
 40
0
 40
0
 40
0
 40
1
 40
1
 40
1
 40
1
 10
56.750001
 20
249.113840
 30
0.0
 10
56.206307
 20
249.113840
 30
0.0
 10
55.684882
 20
249.329822
 30
0.0
 10
55.300432
 20
249.714271
 30
0.0
  0
SPLINE
  5
119
100
AcDbEntity
  8
DecoupeLaser
 62
7
100
AcDbSpline
 70
8
 71
3
 72
8
 73
4
 74
0
 40
0
 40
0
 40
0
 40
0
 40
1
 40
1
 40
1
 40
1
 10
55.300432
 20
249.714271
 30
0.0
 10
54.915983
 20
250.098721
 30
0.0
 10
54.700001
 20
250.620146
 30
0.0
 10
54.700001
 20
251.163840
 30
0.0
  0
SPLINE
  5
11a
100
AcDbEntity
  8
DecoupeLaser
 62
7
100
AcDbSpline
 70
8
 71
3
 72
8
 73
4
 74
0
 40
0
 40
0
 40
0
 40
0
 40
1
 40
1
 40
1
 40
1
 10
54.700001
 20
251.163840
 30
0.0
 10
54.700001
 20
251.707534
 30
0.0
 10
54.915983
 20
252.228959
 30
0.0
 10
55.300432
 20
252.613409
 30
0.0
  0
SPLINE
  5
11b
100
AcDbEntity
  8
DecoupeLaser
 62
7
100
AcDbSpline
 70
8
 71
3
 72
8
 73
4
 74
0
 40
0
 40
0
 40
0
 40
0
 40
1
 40
1
 40
1
 40
1
 10
55.300432
 20
252.613409
 30
0.0
 10
55.684882
 20
252.997858
 30
0.0
 10
56.206307
 20
253.213840
 30
0.0
 10
56.750001
 20
253.213840
 30
0.0
  0
SPLINE
  5
11c
100
AcDbEntity
  8
DecoupeLaser
 62
7
100
AcDbSpline
 70
8
 71
3
 72
8
 73
4
 74
0
 40
0
 40
0
 40
0
 40
0
 40
1
 40
1
 40
1
 40
1
 10
56.750001
 20
253.213840
 30
0.0
 10
57.882185
 20
253.213840
 30
0.0
 10
58.800001
 20
252.296024
 30
0.0
 10
58.800001
 20
251.163840
 30
0.0
  0
LINE
  5
11d
100
AcDbEntity
  8
DecoupeLaser
 62
7
100
AcDbLine
 10
58.800001
 20
251.163840
 30
0.0
 11
58.800001
 21
251.163840
 31
0.0
  0
SPLINE
  5
11e
100
AcDbEntity
  8
DecoupeLaser
 62
7
100
AcDbSpline
 70
8
 71
3
 72
8
 73
4
 74
0
 40
0
 40
0
 40
0
 40
0
 40
1
 40
1
 40
1
 40
1
 10
85.799999
 20
251.163840
 30
0.0
 10
85.799999
 20
249.890064
 30
0.0
 10
84.882183
 20
248.857465
 30
0.0
 10
83.750000
 20
248.857465
 30
0.0
  0
SPLINE
  5
11f
100
AcDbEntity
  8
DecoupeLaser
 62
7
100
AcDbSpline
 70
8
 71
3
 72
8
 73
4
 74
0
 40
0
 40
0
 40
0
 40
0
 40
1
 40
1
 40
1
 40
1
 10
83.750000
 20
248.857465
 30
0.0
 10
82.617817
 20
248.857465
 30
0.0
 10
81.700000
 20
249.890064
 30
0.0
 10
81.700000
 20
251.163840
 30
0.0
  0
SPLINE
  5
120
100
AcDbEntity
  8
DecoupeLaser
 62
7
100
AcDbSpline
 70
8
 71
3
 72
8
 73
4
 74
0
 40
0
 40
0
 40
0
 40
0
 40
1
 40
1
 40
1
 40
1
 10
81.700000
 20
251.163840
 30
0.0
 10
81.700000
 20
251.775529
 30
0.0
 10
81.915981
 20
252.362165
 30
0.0
 10
82.300431
 20
252.794694
 30
0.0
  0
SPLINE
  5
121
100
AcDbEntity
  8
DecoupeLaser
 62
7
100
AcDbSpline
 70
8
 71
3
 72
8
 73
4
 74
0
 40
0
 40
0
 40
0
 40
0
 40
1
 40
1
 40
1
 40
1
 10
82.300431
 20
252.794694
 30
0.0
 10
82.684881
 20
253.227224
 30
0.0
 10
83.206306
 20
253.470216
 30
0.0
 10
83.750000
 20
253.470216
 30
0.0
  0
SPLINE
  5
122
100
AcDbEntity
  8
DecoupeLaser
 62
7
100
AcDbSpline
 70
8
 71
3
 72
8
 73
4
 74
0
 40
0
 40
0
 40
0
 40
0
 40
1
 40
1
 40
1
 40
1
 10
83.750000
 20
253.470216
 30
0.0
 10
84.882183
 20
253.470216
 30
0.0
 10
85.799999
 20
252.437616
 30
0.0
 10
85.799999
 20
251.163840
 30
0.0
  0
LINE
  5
123
100
AcDbEntity
  8
DecoupeLaser
 62
7
100
AcDbLine
 10
85.799999
 20
251.163840
 30
0.0
 11
85.799999
 21
251.163840
 31
0.0
  0
LINE
  5
124
100
AcDbEntity
  8
DecoupeLaser
 62
7
100
AcDbLine
 10
50.000000
 20
208.874184
 30
0.0
 11
90.000000
 21
208.874184
 31
0.0
  0
LINE
  5
125
100
AcDbEntity
  8
DecoupeLaser
 62
7
100
AcDbLine
 10
90.000000
 20
208.874184
 30
0.0
 11
90.000000
 21
173.874184
 31
0.0
  0
LINE
  5
126
100
AcDbEntity
  8
DecoupeLaser
 62
7
100
AcDbLine
 10
90.000000
 20
173.874184
 30
0.0
 11
50.000000
 21
173.874184
 31
0.0
  0
LINE
  5
127
100
AcDbEntity
  8
DecoupeLaser
 62
7
100
AcDbLine
 10
50.000000
 20
173.874184
 30
0.0
 11
50.000000
 21
208.874184
 31
0.0
  0
SPLINE
  5
128
100
AcDbEntity
  8
DecoupeLaser
 62
7
100
AcDbSpline
 70
8
 71
3
 72
8
 73
4
 74
0
 40
0
 40
0
 40
0
 40
0
 40
1
 40
1
 40
1
 40
1
 10
72.050000
 20
201.957522
 30
0.0
 10
72.050000
 20
201.413828
 30
0.0
 10
71.834018
 20
200.892403
 30
0.0
 10
71.449569
 20
200.507953
 30
0.0
  0
SPLINE
  5
129
100
AcDbEntity
  8
DecoupeLaser
 62
7
100
AcDbSpline
 70
8
 71
3
 72
8
 73
4
 74
0
 40
0
 40
0
 40
0
 40
0
 40
1
 40
1
 40
1
 40
1
 10
71.449569
 20
200.507953
 30
0.0
 10
71.065119
 20
200.123503
 30
0.0
 10
70.543694
 20
199.907522
 30
0.0
 10
70.000000
 20
199.907522
 30
0.0
  0
SPLINE
  5
12a
100
AcDbEntity
  8
DecoupeLaser
 62
7
100
AcDbSpline
 70
8
 71
3
 72
8
 73
4
 74
0
 40
0
 40
0
 40
0
 40
0
 40
1
 40
1
 40
1
 40
1
 10
70.000000
 20
199.907522
 30
0.0
 10
69.456306
 20
199.907522
 30
0.0
 10
68.934881
 20
200.123503
 30
0.0
 10
68.550431
 20
200.507953
 30
0.0
  0
SPLINE
  5
12b
100
AcDbEntity
  8
DecoupeLaser
 62
7
100
AcDbSpline
 70
8
 71
3
 72
8
 73
4
 74
0
 40
0
 40
0
 40
0
 40
0
 40
1
 40
1
 40
1
 40
1
 10
68.550431
 20
200.507953
 30
0.0
 10
68.165982
 20
200.892403
 30
0.0
 10
67.950000
 20
201.413828
 30
0.0
 10
67.950000
 20
201.957522
 30
0.0
  0
SPLINE
  5
12c
100
AcDbEntity
  8
DecoupeLaser
 62
7
100
AcDbSpline
 70
8
 71
3
 72
8
 73
4
 74
0
 40
0
 40
0
 40
0
 40
0
 40
1
 40
1
 40
1
 40
1
 10
67.950000
 20
201.957522
 30
0.0
 10
67.950000
 20
202.501216
 30
0.0
 10
68.165982
 20
203.022641
 30
0.0
 10
68.550431
 20
203.407091
 30
0.0
  0
SPLINE
  5
12d
100
AcDbEntity
  8
DecoupeLaser
 62
7
100
AcDbSpline
 70
8
 71
3
 72
8
 73
4
 74
0
 40
0
 40
0
 40
0
 40
0
 40
1
 40
1
 40
1
 40
1
 10
68.550431
 20
203.407091
 30
0.0
 10
68.934881
 20
203.791541
 30
0.0
 10
69.456306
 20
204.007522
 30
0.0
 10
70.000000
 20
204.007522
 30
0.0
  0
SPLINE
  5
12e
100
AcDbEntity
  8
DecoupeLaser
 62
7
100
AcDbSpline
 70
8
 71
3
 72
8
 73
4
 74
0
 40
0
 40
0
 40
0
 40
0
 40
1
 40
1
 40
1
 40
1
 10
70.000000
 20
204.007522
 30
0.0
 10
70.543694
 20
204.007522
 30
0.0
 10
71.065119
 20
203.791541
 30
0.0
 10
71.449569
 20
203.407091
 30
0.0
  0
SPLINE
  5
12f
100
AcDbEntity
  8
DecoupeLaser
 62
7
100
AcDbSpline
 70
8
 71
3
 72
8
 73
4
 74
0
 40
0
 40
0
 40
0
 40
0
 40
1
 40
1
 40
1
 40
1
 10
71.449569
 20
203.407091
 30
0.0
 10
71.834018
 20
203.022641
 30
0.0
 10
72.050000
 20
202.501216
 30
0.0
 10
72.050000
 20
201.957522
 30
0.0
  0
LINE
  5
130
100
AcDbEntity
  8
DecoupeLaser
 62
7
100
AcDbLine
 10
72.050000
 20
201.957522
 30
0.0
 11
72.050000
 21
201.957522
 31
0.0
  0
SPLINE
  5
131
100
AcDbEntity
  8
DecoupeLaser
 62
7
100
AcDbSpline
 70
8
 71
3
 72
8
 73
4
 74
0
 40
0
 40
0
 40
0
 40
0
 40
1
 40
1
 40
1
 40
1
 10
72.050000
 20
180.790850
 30
0.0
 10
72.050001
 20
180.247156
 30
0.0
 10
71.834020
 20
179.725731
 30
0.0
 10
71.449570
 20
179.341281
 30
0.0
  0
SPLINE
  5
132
100
AcDbEntity
  8
DecoupeLaser
 62
7
100
AcDbSpline
 70
8
 71
3
 72
8
 73
4
 74
0
 40
0
 40
0
 40
0
 40
0
 40
1
 40
1
 40
1
 40
1
 10
71.449570
 20
179.341281
 30
0.0
 10
71.065121
 20
178.956832
 30
0.0
 10
70.543694
 20
178.740850
 30
0.0
 10
70.000000
 20
178.740850
 30
0.0
  0
SPLINE
  5
133
100
AcDbEntity
  8
DecoupeLaser
 62
7
100
AcDbSpline
 70
8
 71
3
 72
8
 73
4
 74
0
 40
0
 40
0
 40
0
 40
0
 40
1
 40
1
 40
1
 40
1
 10
70.000000
 20
178.740850
 30
0.0
 10
69.456306
 20
178.740850
 30
0.0
 10
68.934879
 20
178.956832
 30
0.0
 10
68.550430
 20
179.341281
 30
0.0
  0
SPLINE
  5
134
100
AcDbEntity
  8
DecoupeLaser
 62
7
100
AcDbSpline
 70
8
 71
3
 72
8
 73
4
 74
0
 40
0
 40
0
 40
0
 40
0
 40
1
 40
1
 40
1
 40
1
 10
68.550430
 20
179.341281
 30
0.0
 10
68.165980
 20
179.725731
 30
0.0
 10
67.949999
 20
180.247156
 30
0.0
 10
67.950000
 20
180.790850
 30
0.0
  0
SPLINE
  5
135
100
AcDbEntity
  8
DecoupeLaser
 62
7
100
AcDbSpline
 70
8
 71
3
 72
8
 73
4
 74
0
 40
0
 40
0
 40
0
 40
0
 40
1
 40
1
 40
1
 40
1
 10
67.950000
 20
180.790850
 30
0.0
 10
67.949999
 20
181.334544
 30
0.0
 10
68.165980
 20
181.855969
 30
0.0
 10
68.550430
 20
182.240419
 30
0.0
  0
SPLINE
  5
136
100
AcDbEntity
  8
DecoupeLaser
 62
7
100
AcDbSpline
 70
8
 71
3
 72
8
 73
4
 74
0
 40
0
 40
0
 40
0
 40
0
 40
1
 40
1
 40
1
 40
1
 10
68.550430
 20
182.240419
 30
0.0
 10
68.934879
 20
182.624869
 30
0.0
 10
69.456306
 20
182.840850
 30
0.0
 10
70.000000
 20
182.840850
 30
0.0
  0
SPLINE
  5
137
100
AcDbEntity
  8
DecoupeLaser
 62
7
100
AcDbSpline
 70
8
 71
3
 72
8
 73
4
 74
0
 40
0
 40
0
 40
0
 40
0
 40
1
 40
1
 40
1
 40
1
 10
70.000000
 20
182.840850
 30
0.0
 10
70.543694
 20
182.840850
 30
0.0
 10
71.065121
 20
182.624869
 30
0.0
 10
71.449570
 20
182.240419
 30
0.0
  0
SPLINE
  5
138
100
AcDbEntity
  8
DecoupeLaser
 62
7
100
AcDbSpline
 70
8
 71
3
 72
8
 73
4
 74
0
 40
0
 40
0
 40
0
 40
0
 40
1
 40
1
 40
1
 40
1
 10
71.449570
 20
182.240419
 30
0.0
 10
71.834020
 20
181.855969
 30
0.0
 10
72.050001
 20
181.334544
 30
0.0
 10
72.050000
 20
180.790850
 30
0.0
  0
LINE
  5
139
100
AcDbEntity
  8
DecoupeLaser
 62
7
100
AcDbLine
 10
72.050000
 20
180.790850
 30
0.0
 11
72.050000
 21
180.790850
 31
0.0
  0
LINE
  5
13a
100
AcDbEntity
  8
DecoupeLaser
 62
7
100
AcDbLine
 10
93.501716
 20
281.235652
 30
0.0
 11
130.606700
 21
281.235652
 31
0.0
  0
SPLINE
  5
13b
100
AcDbEntity
  8
DecoupeLaser
 62
7
100
AcDbSpline
 70
8
 71
3
 72
8
 73
4
 74
0
 40
0
 40
0
 40
0
 40
0
 40
1
 40
1
 40
1
 40
1
 10
130.606700
 20
281.235652
 30
0.0
 10
131.547140
 20
281.235652
 30
0.0
 10
132.304240
 20
279.895492
 30
0.0
 10
132.304240
 20
278.230809
 30
0.0
  0
LINE
  5
13c
100
AcDbEntity
  8
DecoupeLaser
 62
7
100
AcDbLine
 10
132.304240
 20
278.230809
 30
0.0
 11
132.304240
 21
249.240494
 31
0.0
  0
SPLINE
  5
13d
100
AcDbEntity
  8
DecoupeLaser
 62
7
100
AcDbSpline
 70
8
 71
3
 72
8
 73
4
 74
0
 40
0
 40
0
 40
0
 40
0
 40
1
 40
1
 40
1
 40
1
 10
132.304240
 20
249.240494
 30
0.0
 10
132.304240
 20
247.575812
 30
0.0
 10
131.547140
 20
246.235652
 30
0.0
 10
130.606700
 20
246.235652
 30
0.0
  0
LINE
  5
13e
100
AcDbEntity
  8
DecoupeLaser
 62
7
100
AcDbLine
 10
130.606700
 20
246.235652
 30
0.0
 11
93.501716
 21
246.235652
 31
0.0
  0
SPLINE
  5
13f
100
AcDbEntity
  8
DecoupeLaser
 62
7
100
AcDbSpline
 70
8
 71
3
 72
8
 73
4
 74
0
 40
0
 40
0
 40
0
 40
0
 40
1
 40
1
 40
1
 40
1
 10
93.501716
 20
246.235652
 30
0.0
 10
92.561278
 20
246.235652
 30
0.0
 10
91.804175
 20
247.575812
 30
0.0
 10
91.804175
 20
249.240494
 30
0.0
  0
LINE
  5
140
100
AcDbEntity
  8
DecoupeLaser
 62
7
100
AcDbLine
 10
91.804175
 20
249.240494
 30
0.0
 11
91.804175
 21
278.230809
 31
0.0
  0
SPLINE
  5
141
100
AcDbEntity
  8
DecoupeLaser
 62
7
100
AcDbSpline
 70
8
 71
3
 72
8
 73
4
 74
0
 40
0
 40
0
 40
0
 40
0
 40
1
 40
1
 40
1
 40
1
 10
91.804175
 20
278.230809
 30
0.0
 10
91.804175
 20
279.895492
 30
0.0
 10
92.561278
 20
281.235652
 30
0.0
 10
93.501716
 20
281.235652
 30
0.0
  0
LINE
  5
142
100
AcDbEntity
  8
DecoupeLaser
 62
7
100
AcDbLine
 10
93.501716
 20
281.235652
 30
0.0
 11
93.501716
 21
281.235652
 31
0.0
  0
SPLINE
  5
143
100
AcDbEntity
  8
DecoupeLaser
 62
7
100
AcDbSpline
 70
8
 71
3
 72
8
 73
4
 74
0
 40
0
 40
0
 40
0
 40
0
 40
1
 40
1
 40
1
 40
1
 10
100.604180
 20
276.563840
 30
0.0
 10
100.604180
 20
276.020146
 30
0.0
 10
100.388198
 20
275.498719
 30
0.0
 10
100.003747
 20
275.114270
 30
0.0
  0
SPLINE
  5
144
100
AcDbEntity
  8
DecoupeLaser
 62
7
100
AcDbSpline
 70
8
 71
3
 72
8
 73
4
 74
0
 40
0
 40
0
 40
0
 40
0
 40
1
 40
1
 40
1
 40
1
 10
100.003747
 20
275.114270
 30
0.0
 10
99.619297
 20
274.729820
 30
0.0
 10
99.097870
 20
274.513839
 30
0.0
 10
98.554176
 20
274.513840
 30
0.0
  0
SPLINE
  5
145
100
AcDbEntity
  8
DecoupeLaser
 62
7
100
AcDbSpline
 70
8
 71
3
 72
8
 73
4
 74
0
 40
0
 40
0
 40
0
 40
0
 40
1
 40
1
 40
1
 40
1
 10
98.554176
 20
274.513840
 30
0.0
 10
98.010482
 20
274.513840
 30
0.0
 10
97.489057
 20
274.729822
 30
0.0
 10
97.104607
 20
275.114271
 30
0.0
  0
SPLINE
  5
146
100
AcDbEntity
  8
DecoupeLaser
 62
7
100
AcDbSpline
 70
8
 71
3
 72
8
 73
4
 74
0
 40
0
 40
0
 40
0
 40
0
 40
1
 40
1
 40
1
 40
1
 10
97.104607
 20
275.114271
 30
0.0
 10
96.720158
 20
275.498721
 30
0.0
 10
96.504176
 20
276.020146
 30
0.0
 10
96.504176
 20
276.563840
 30
0.0
  0
SPLINE
  5
147
100
AcDbEntity
  8
DecoupeLaser
 62
7
100
AcDbSpline
 70
8
 71
3
 72
8
 73
4
 74
0
 40
0
 40
0
 40
0
 40
0
 40
1
 40
1
 40
1
 40
1
 10
96.504176
 20
276.563840
 30
0.0
 10
96.504176
 20
277.107534
 30
0.0
 10
96.720158
 20
277.628959
 30
0.0
 10
97.104607
 20
278.013409
 30
0.0
  0
SPLINE
  5
148
100
AcDbEntity
  8
DecoupeLaser
 62
7
100
AcDbSpline
 70
8
 71
3
 72
8
 73
4
 74
0
 40
0
 40
0
 40
0
 40
0
 40
1
 40
1
 40
1
 40
1
 10
97.104607
 20
278.013409
 30
0.0
 10
97.489057
 20
278.397858
 30
0.0
 10
98.010482
 20
278.613840
 30
0.0
 10
98.554176
 20
278.613840
 30
0.0
  0
SPLINE
  5
149
100
AcDbEntity
  8
DecoupeLaser
 62
7
100
AcDbSpline
 70
8
 71
3
 72
8
 73
4
 74
0
 40
0
 40
0
 40
0
 40
0
 40
1
 40
1
 40
1
 40
1
 10
98.554176
 20
278.613840
 30
0.0
 10
99.097870
 20
278.613841
 30
0.0
 10
99.619297
 20
278.397860
 30
0.0
 10
100.003747
 20
278.013410
 30
0.0
  0
SPLINE
  5
14a
100
AcDbEntity
  8
DecoupeLaser
 62
7
100
AcDbSpline
 70
8
 71
3
 72
8
 73
4
 74
0
 40
0
 40
0
 40
0
 40
0
 40
1
 40
1
 40
1
 40
1
 10
100.003747
 20
278.013410
 30
0.0
 10
100.388198
 20
277.628961
 30
0.0
 10
100.604180
 20
277.107535
 30
0.0
 10
100.604180
 20
276.563840
 30
0.0
  0
LINE
  5
14b
100
AcDbEntity
  8
DecoupeLaser
 62
7
100
AcDbLine
 10
100.604180
 20
276.563840
 30
0.0
 11
100.604180
 21
276.563840
 31
0.0
  0
SPLINE
  5
14c
100
AcDbEntity
  8
DecoupeLaser
 62
7
100
AcDbSpline
 70
8
 71
3
 72
8
 73
4
 74
0
 40
0
 40
0
 40
0
 40
0
 40
1
 40
1
 40
1
 40
1
 10
127.604240
 20
276.307464
 30
0.0
 10
127.604240
 20
275.763770
 30
0.0
 10
127.388258
 20
275.242345
 30
0.0
 10
127.003809
 20
274.857895
 30
0.0
  0
SPLINE
  5
14d
100
AcDbEntity
  8
DecoupeLaser
 62
7
100
AcDbSpline
 70
8
 71
3
 72
8
 73
4
 74
0
 40
0
 40
0
 40
0
 40
0
 40
1
 40
1
 40
1
 40
1
 10
127.003809
 20
274.857895
 30
0.0
 10
126.619359
 20
274.473445
 30
0.0
 10
126.097934
 20
274.257464
 30
0.0
 10
125.554240
 20
274.257464
 30
0.0
  0
SPLINE
  5
14e
100
AcDbEntity
  8
DecoupeLaser
 62
7
100
AcDbSpline
 70
8
 71
3
 72
8
 73
4
 74
0
 40
0
 40
0
 40
0
 40
0
 40
1
 40
1
 40
1
 40
1
 10
125.554240
 20
274.257464
 30
0.0
 10
125.010546
 20
274.257464
 30
0.0
 10
124.489121
 20
274.473445
 30
0.0
 10
124.104671
 20
274.857895
 30
0.0
  0
SPLINE
  5
14f
100
AcDbEntity
  8
DecoupeLaser
 62
7
100
AcDbSpline
 70
8
 71
3
 72
8
 73
4
 74
0
 40
0
 40
0
 40
0
 40
0
 40
1
 40
1
 40
1
 40
1
 10
124.104671
 20
274.857895
 30
0.0
 10
123.720222
 20
275.242345
 30
0.0
 10
123.504240
 20
275.763770
 30
0.0
 10
123.504240
 20
276.307464
 30
0.0
  0
SPLINE
  5
150
100
AcDbEntity
  8
DecoupeLaser
 62
7
100
AcDbSpline
 70
8
 71
3
 72
8
 73
4
 74
0
 40
0
 40
0
 40
0
 40
0
 40
1
 40
1
 40
1
 40
1
 10
123.504240
 20
276.307464
 30
0.0
 10
123.504240
 20
276.851158
 30
0.0
 10
123.720222
 20
277.372583
 30
0.0
 10
124.104671
 20
277.757033
 30
0.0
  0
SPLINE
  5
151
100
AcDbEntity
  8
DecoupeLaser
 62
7
100
AcDbSpline
 70
8
 71
3
 72
8
 73
4
 74
0
 40
0
 40
0
 40
0
 40
0
 40
1
 40
1
 40
1
 40
1
 10
124.104671
 20
277.757033
 30
0.0
 10
124.489121
 20
278.141483
 30
0.0
 10
125.010546
 20
278.357464
 30
0.0
 10
125.554240
 20
278.357464
 30
0.0
  0
SPLINE
  5
152
100
AcDbEntity
  8
DecoupeLaser
 62
7
100
AcDbSpline
 70
8
 71
3
 72
8
 73
4
 74
0
 40
0
 40
0
 40
0
 40
0
 40
1
 40
1
 40
1
 40
1
 10
125.554240
 20
278.357464
 30
0.0
 10
126.097934
 20
278.357464
 30
0.0
 10
126.619359
 20
278.141483
 30
0.0
 10
127.003809
 20
277.757033
 30
0.0
  0
SPLINE
  5
153
100
AcDbEntity
  8
DecoupeLaser
 62
7
100
AcDbSpline
 70
8
 71
3
 72
8
 73
4
 74
0
 40
0
 40
0
 40
0
 40
0
 40
1
 40
1
 40
1
 40
1
 10
127.003809
 20
277.757033
 30
0.0
 10
127.388258
 20
277.372583
 30
0.0
 10
127.604240
 20
276.851158
 30
0.0
 10
127.604240
 20
276.307464
 30
0.0
  0
LINE
  5
154
100
AcDbEntity
  8
DecoupeLaser
 62
7
100
AcDbLine
 10
127.604240
 20
276.307464
 30
0.0
 11
127.604240
 21
276.307464
 31
0.0
  0
SPLINE
  5
155
100
AcDbEntity
  8
DecoupeLaser
 62
7
100
AcDbSpline
 70
8
 71
3
 72
8
 73
4
 74
0
 40
0
 40
0
 40
0
 40
0
 40
1
 40
1
 40
1
 40
1
 10
100.604180
 20
251.163840
 30
0.0
 10
100.604180
 20
250.620146
 30
0.0
 10
100.388198
 20
250.098719
 30
0.0
 10
100.003747
 20
249.714270
 30
0.0
  0
SPLINE
  5
156
100
AcDbEntity
  8
DecoupeLaser
 62
7
100
AcDbSpline
 70
8
 71
3
 72
8
 73
4
 74
0
 40
0
 40
0
 40
0
 40
0
 40
1
 40
1
 40
1
 40
1
 10
100.003747
 20
249.714270
 30
0.0
 10
99.619297
 20
249.329820
 30
0.0
 10
99.097870
 20
249.113839
 30
0.0
 10
98.554176
 20
249.113840
 30
0.0
  0
SPLINE
  5
157
100
AcDbEntity
  8
DecoupeLaser
 62
7
100
AcDbSpline
 70
8
 71
3
 72
8
 73
4
 74
0
 40
0
 40
0
 40
0
 40
0
 40
1
 40
1
 40
1
 40
1
 10
98.554176
 20
249.113840
 30
0.0
 10
98.010482
 20
249.113840
 30
0.0
 10
97.489057
 20
249.329822
 30
0.0
 10
97.104607
 20
249.714271
 30
0.0
  0
SPLINE
  5
158
100
AcDbEntity
  8
DecoupeLaser
 62
7
100
AcDbSpline
 70
8
 71
3
 72
8
 73
4
 74
0
 40
0
 40
0
 40
0
 40
0
 40
1
 40
1
 40
1
 40
1
 10
97.104607
 20
249.714271
 30
0.0
 10
96.720158
 20
250.098721
 30
0.0
 10
96.504176
 20
250.620146
 30
0.0
 10
96.504176
 20
251.163840
 30
0.0
  0
SPLINE
  5
159
100
AcDbEntity
  8
DecoupeLaser
 62
7
100
AcDbSpline
 70
8
 71
3
 72
8
 73
4
 74
0
 40
0
 40
0
 40
0
 40
0
 40
1
 40
1
 40
1
 40
1
 10
96.504176
 20
251.163840
 30
0.0
 10
96.504176
 20
251.707534
 30
0.0
 10
96.720158
 20
252.228959
 30
0.0
 10
97.104607
 20
252.613409
 30
0.0
  0
SPLINE
  5
15a
100
AcDbEntity
  8
DecoupeLaser
 62
7
100
AcDbSpline
 70
8
 71
3
 72
8
 73
4
 74
0
 40
0
 40
0
 40
0
 40
0
 40
1
 40
1
 40
1
 40
1
 10
97.104607
 20
252.613409
 30
0.0
 10
97.489057
 20
252.997858
 30
0.0
 10
98.010482
 20
253.213840
 30
0.0
 10
98.554176
 20
253.213840
 30
0.0
  0
SPLINE
  5
15b
100
AcDbEntity
  8
DecoupeLaser
 62
7
100
AcDbSpline
 70
8
 71
3
 72
8
 73
4
 74
0
 40
0
 40
0
 40
0
 40
0
 40
1
 40
1
 40
1
 40
1
 10
98.554176
 20
253.213840
 30
0.0
 10
99.097870
 20
253.213841
 30
0.0
 10
99.619297
 20
252.997860
 30
0.0
 10
100.003747
 20
252.613410
 30
0.0
  0
SPLINE
  5
15c
100
AcDbEntity
  8
DecoupeLaser
 62
7
100
AcDbSpline
 70
8
 71
3
 72
8
 73
4
 74
0
 40
0
 40
0
 40
0
 40
0
 40
1
 40
1
 40
1
 40
1
 10
100.003747
 20
252.613410
 30
0.0
 10
100.388198
 20
252.228961
 30
0.0
 10
100.604180
 20
251.707535
 30
0.0
 10
100.604180
 20
251.163840
 30
0.0
  0
LINE
  5
15d
100
AcDbEntity
  8
DecoupeLaser
 62
7
100
AcDbLine
 10
100.604180
 20
251.163840
 30
0.0
 11
100.604180
 21
251.163840
 31
0.0
  0
SPLINE
  5
15e
100
AcDbEntity
  8
DecoupeLaser
 62
7
100
AcDbSpline
 70
8
 71
3
 72
8
 73
4
 74
0
 40
0
 40
0
 40
0
 40
0
 40
1
 40
1
 40
1
 40
1
 10
127.604240
 20
251.163840
 30
0.0
 10
127.604240
 20
249.890064
 30
0.0
 10
126.686424
 20
248.857465
 30
0.0
 10
125.554240
 20
248.857465
 30
0.0
  0
SPLINE
  5
15f
100
AcDbEntity
  8
DecoupeLaser
 62
7
100
AcDbSpline
 70
8
 71
3
 72
8
 73
4
 74
0
 40
0
 40
0
 40
0
 40
0
 40
1
 40
1
 40
1
 40
1
 10
125.554240
 20
248.857465
 30
0.0
 10
124.422057
 20
248.857465
 30
0.0
 10
123.504240
 20
249.890064
 30
0.0
 10
123.504240
 20
251.163840
 30
0.0
  0
SPLINE
  5
160
100
AcDbEntity
  8
DecoupeLaser
 62
7
100
AcDbSpline
 70
8
 71
3
 72
8
 73
4
 74
0
 40
0
 40
0
 40
0
 40
0
 40
1
 40
1
 40
1
 40
1
 10
123.504240
 20
251.163840
 30
0.0
 10
123.504240
 20
251.775529
 30
0.0
 10
123.720221
 20
252.362165
 30
0.0
 10
124.104671
 20
252.794694
 30
0.0
  0
SPLINE
  5
161
100
AcDbEntity
  8
DecoupeLaser
 62
7
100
AcDbSpline
 70
8
 71
3
 72
8
 73
4
 74
0
 40
0
 40
0
 40
0
 40
0
 40
1
 40
1
 40
1
 40
1
 10
124.104671
 20
252.794694
 30
0.0
 10
124.489121
 20
253.227224
 30
0.0
 10
125.010546
 20
253.470216
 30
0.0
 10
125.554240
 20
253.470216
 30
0.0
  0
SPLINE
  5
162
100
AcDbEntity
  8
DecoupeLaser
 62
7
100
AcDbSpline
 70
8
 71
3
 72
8
 73
4
 74
0
 40
0
 40
0
 40
0
 40
0
 40
1
 40
1
 40
1
 40
1
 10
125.554240
 20
253.470216
 30
0.0
 10
126.097934
 20
253.470216
 30
0.0
 10
126.619359
 20
253.227224
 30
0.0
 10
127.003809
 20
252.794694
 30
0.0
  0
SPLINE
  5
163
100
AcDbEntity
  8
DecoupeLaser
 62
7
100
AcDbSpline
 70
8
 71
3
 72
8
 73
4
 74
0
 40
0
 40
0
 40
0
 40
0
 40
1
 40
1
 40
1
 40
1
 10
127.003809
 20
252.794694
 30
0.0
 10
127.388259
 20
252.362165
 30
0.0
 10
127.604240
 20
251.775529
 30
0.0
 10
127.604240
 20
251.163840
 30
0.0
  0
LINE
  5
164
100
AcDbEntity
  8
DecoupeLaser
 62
7
100
AcDbLine
 10
127.604240
 20
251.163840
 30
0.0
 11
127.604240
 21
251.163840
 31
0.0
  0
LINE
  5
165
100
AcDbEntity
  8
DecoupeLaser
 62
7
100
AcDbLine
 10
135.305900
 20
281.235652
 30
0.0
 11
172.410890
 21
281.235652
 31
0.0
  0
SPLINE
  5
166
100
AcDbEntity
  8
DecoupeLaser
 62
7
100
AcDbSpline
 70
8
 71
3
 72
8
 73
4
 74
0
 40
0
 40
0
 40
0
 40
0
 40
1
 40
1
 40
1
 40
1
 10
172.410890
 20
281.235652
 30
0.0
 10
173.351330
 20
281.235652
 30
0.0
 10
174.108430
 20
279.895492
 30
0.0
 10
174.108430
 20
278.230809
 30
0.0
  0
LINE
  5
167
100
AcDbEntity
  8
DecoupeLaser
 62
7
100
AcDbLine
 10
174.108430
 20
278.230809
 30
0.0
 11
174.108430
 21
249.240494
 31
0.0
  0
SPLINE
  5
168
100
AcDbEntity
  8
DecoupeLaser
 62
7
100
AcDbSpline
 70
8
 71
3
 72
8
 73
4
 74
0
 40
0
 40
0
 40
0
 40
0
 40
1
 40
1
 40
1
 40
1
 10
174.108430
 20
249.240494
 30
0.0
 10
174.108430
 20
247.575812
 30
0.0
 10
173.351330
 20
246.235652
 30
0.0
 10
172.410890
 20
246.235652
 30
0.0
  0
LINE
  5
169
100
AcDbEntity
  8
DecoupeLaser
 62
7
100
AcDbLine
 10
172.410890
 20
246.235652
 30
0.0
 11
135.305900
 21
246.235652
 31
0.0
  0
SPLINE
  5
16a
100
AcDbEntity
  8
DecoupeLaser
 62
7
100
AcDbSpline
 70
8
 71
3
 72
8
 73
4
 74
0
 40
0
 40
0
 40
0
 40
0
 40
1
 40
1
 40
1
 40
1
 10
135.305900
 20
246.235652
 30
0.0
 10
134.365460
 20
246.235652
 30
0.0
 10
133.608360
 20
247.575812
 30
0.0
 10
133.608360
 20
249.240494
 30
0.0
  0
LINE
  5
16b
100
AcDbEntity
  8
DecoupeLaser
 62
7
100
AcDbLine
 10
133.608360
 20
249.240494
 30
0.0
 11
133.608360
 21
278.230809
 31
0.0
  0
SPLINE
  5
16c
100
AcDbEntity
  8
DecoupeLaser
 62
7
100
AcDbSpline
 70
8
 71
3
 72
8
 73
4
 74
0
 40
0
 40
0
 40
0
 40
0
 40
1
 40
1
 40
1
 40
1
 10
133.608360
 20
278.230809
 30
0.0
 10
133.608360
 20
279.895492
 30
0.0
 10
134.365460
 20
281.235652
 30
0.0
 10
135.305900
 20
281.235652
 30
0.0
  0
LINE
  5
16d
100
AcDbEntity
  8
DecoupeLaser
 62
7
100
AcDbLine
 10
135.305900
 20
281.235652
 30
0.0
 11
135.305900
 21
281.235652
 31
0.0
  0
SPLINE
  5
16e
100
AcDbEntity
  8
DecoupeLaser
 62
7
100
AcDbSpline
 70
8
 71
3
 72
8
 73
4
 74
0
 40
0
 40
0
 40
0
 40
0
 40
1
 40
1
 40
1
 40
1
 10
142.408370
 20
276.563840
 30
0.0
 10
142.408370
 20
276.020144
 30
0.0
 10
142.192387
 20
275.498717
 30
0.0
 10
141.807935
 20
275.114268
 30
0.0
  0
SPLINE
  5
16f
100
AcDbEntity
  8
DecoupeLaser
 62
7
100
AcDbSpline
 70
8
 71
3
 72
8
 73
4
 74
0
 40
0
 40
0
 40
0
 40
0
 40
1
 40
1
 40
1
 40
1
 10
141.807935
 20
275.114268
 30
0.0
 10
141.423484
 20
274.729818
 30
0.0
 10
140.902056
 20
274.513837
 30
0.0
 10
140.358360
 20
274.513840
 30
0.0
  0
SPLINE
  5
170
100
AcDbEntity
  8
DecoupeLaser
 62
7
100
AcDbSpline
 70
8
 71
3
 72
8
 73
4
 74
0
 40
0
 40
0
 40
0
 40
0
 40
1
 40
1
 40
1
 40
1
 10
140.358360
 20
274.513840
 30
0.0
 10
139.814666
 20
274.513840
 30
0.0
 10
139.293241
 20
274.729822
 30
0.0
 10
138.908791
 20
275.114271
 30
0.0
  0
SPLINE
  5
171
100
AcDbEntity
  8
DecoupeLaser
 62
7
100
AcDbSpline
 70
8
 71
3
 72
8
 73
4
 74
0
 40
0
 40
0
 40
0
 40
0
 40
1
 40
1
 40
1
 40
1
 10
138.908791
 20
275.114271
 30
0.0
 10
138.524342
 20
275.498721
 30
0.0
 10
138.308360
 20
276.020146
 30
0.0
 10
138.308360
 20
276.563840
 30
0.0
  0
SPLINE
  5
172
100
AcDbEntity
  8
DecoupeLaser
 62
7
100
AcDbSpline
 70
8
 71
3
 72
8
 73
4
 74
0
 40
0
 40
0
 40
0
 40
0
 40
1
 40
1
 40
1
 40
1
 10
138.308360
 20
276.563840
 30
0.0
 10
138.308360
 20
277.107534
 30
0.0
 10
138.524342
 20
277.628959
 30
0.0
 10
138.908791
 20
278.013409
 30
0.0
  0
SPLINE
  5
173
100
AcDbEntity
  8
DecoupeLaser
 62
7
100
AcDbSpline
 70
8
 71
3
 72
8
 73
4
 74
0
 40
0
 40
0
 40
0
 40
0
 40
1
 40
1
 40
1
 40
1
 10
138.908791
 20
278.013409
 30
0.0
 10
139.293241
 20
278.397858
 30
0.0
 10
139.814666
 20
278.613840
 30
0.0
 10
140.358360
 20
278.613840
 30
0.0
  0
SPLINE
  5
174
100
AcDbEntity
  8
DecoupeLaser
 62
7
100
AcDbSpline
 70
8
 71
3
 72
8
 73
4
 74
0
 40
0
 40
0
 40
0
 40
0
 40
1
 40
1
 40
1
 40
1
 10
140.358360
 20
278.613840
 30
0.0
 10
140.902056
 20
278.613843
 30
0.0
 10
141.423484
 20
278.397862
 30
0.0
 10
141.807935
 20
278.013412
 30
0.0
  0
SPLINE
  5
175
100
AcDbEntity
  8
DecoupeLaser
 62
7
100
AcDbSpline
 70
8
 71
3
 72
8
 73
4
 74
0
 40
0
 40
0
 40
0
 40
0
 40
1
 40
1
 40
1
 40
1
 10
141.807935
 20
278.013412
 30
0.0
 10
142.192387
 20
277.628963
 30
0.0
 10
142.408370
 20
277.107536
 30
0.0
 10
142.408370
 20
276.563840
 30
0.0
  0
LINE
  5
176
100
AcDbEntity
  8
DecoupeLaser
 62
7
100
AcDbLine
 10
142.408370
 20
276.563840
 30
0.0
 11
142.408370
 21
276.563840
 31
0.0
  0
SPLINE
  5
177
100
AcDbEntity
  8
DecoupeLaser
 62
7
100
AcDbSpline
 70
8
 71
3
 72
8
 73
4
 74
0
 40
0
 40
0
 40
0
 40
0
 40
1
 40
1
 40
1
 40
1
 10
169.408430
 20
276.307464
 30
0.0
 10
169.408430
 20
275.763770
 30
0.0
 10
169.192448
 20
275.242345
 30
0.0
 10
168.807999
 20
274.857895
 30
0.0
  0
SPLINE
  5
178
100
AcDbEntity
  8
DecoupeLaser
 62
7
100
AcDbSpline
 70
8
 71
3
 72
8
 73
4
 74
0
 40
0
 40
0
 40
0
 40
0
 40
1
 40
1
 40
1
 40
1
 10
168.807999
 20
274.857895
 30
0.0
 10
168.423549
 20
274.473445
 30
0.0
 10
167.902124
 20
274.257464
 30
0.0
 10
167.358430
 20
274.257464
 30
0.0
  0
SPLINE
  5
179
100
AcDbEntity
  8
DecoupeLaser
 62
7
100
AcDbSpline
 70
8
 71
3
 72
8
 73
4
 74
0
 40
0
 40
0
 40
0
 40
0
 40
1
 40
1
 40
1
 40
1
 10
167.358430
 20
274.257464
 30
0.0
 10
166.814736
 20
274.257464
 30
0.0
 10
166.293311
 20
274.473445
 30
0.0
 10
165.908861
 20
274.857895
 30
0.0
  0
SPLINE
  5
17a
100
AcDbEntity
  8
DecoupeLaser
 62
7
100
AcDbSpline
 70
8
 71
3
 72
8
 73
4
 74
0
 40
0
 40
0
 40
0
 40
0
 40
1
 40
1
 40
1
 40
1
 10
165.908861
 20
274.857895
 30
0.0
 10
165.524412
 20
275.242345
 30
0.0
 10
165.308430
 20
275.763770
 30
0.0
 10
165.308430
 20
276.307464
 30
0.0
  0
SPLINE
  5
17b
100
AcDbEntity
  8
DecoupeLaser
 62
7
100
AcDbSpline
 70
8
 71
3
 72
8
 73
4
 74
0
 40
0
 40
0
 40
0
 40
0
 40
1
 40
1
 40
1
 40
1
 10
165.308430
 20
276.307464
 30
0.0
 10
165.308430
 20
276.851158
 30
0.0
 10
165.524412
 20
277.372583
 30
0.0
 10
165.908861
 20
277.757033
 30
0.0
  0
SPLINE
  5
17c
100
AcDbEntity
  8
DecoupeLaser
 62
7
100
AcDbSpline
 70
8
 71
3
 72
8
 73
4
 74
0
 40
0
 40
0
 40
0
 40
0
 40
1
 40
1
 40
1
 40
1
 10
165.908861
 20
277.757033
 30
0.0
 10
166.293311
 20
278.141483
 30
0.0
 10
166.814736
 20
278.357464
 30
0.0
 10
167.358430
 20
278.357464
 30
0.0
  0
SPLINE
  5
17d
100
AcDbEntity
  8
DecoupeLaser
 62
7
100
AcDbSpline
 70
8
 71
3
 72
8
 73
4
 74
0
 40
0
 40
0
 40
0
 40
0
 40
1
 40
1
 40
1
 40
1
 10
167.358430
 20
278.357464
 30
0.0
 10
167.902124
 20
278.357464
 30
0.0
 10
168.423549
 20
278.141483
 30
0.0
 10
168.807999
 20
277.757033
 30
0.0
  0
SPLINE
  5
17e
100
AcDbEntity
  8
DecoupeLaser
 62
7
100
AcDbSpline
 70
8
 71
3
 72
8
 73
4
 74
0
 40
0
 40
0
 40
0
 40
0
 40
1
 40
1
 40
1
 40
1
 10
168.807999
 20
277.757033
 30
0.0
 10
169.192448
 20
277.372583
 30
0.0
 10
169.408430
 20
276.851158
 30
0.0
 10
169.408430
 20
276.307464
 30
0.0
  0
LINE
  5
17f
100
AcDbEntity
  8
DecoupeLaser
 62
7
100
AcDbLine
 10
169.408430
 20
276.307464
 30
0.0
 11
169.408430
 21
276.307464
 31
0.0
  0
SPLINE
  5
180
100
AcDbEntity
  8
DecoupeLaser
 62
7
100
AcDbSpline
 70
8
 71
3
 72
8
 73
4
 74
0
 40
0
 40
0
 40
0
 40
0
 40
1
 40
1
 40
1
 40
1
 10
142.408370
 20
251.163840
 30
0.0
 10
142.408370
 20
250.620144
 30
0.0
 10
142.192387
 20
250.098717
 30
0.0
 10
141.807935
 20
249.714268
 30
0.0
  0
SPLINE
  5
181
100
AcDbEntity
  8
DecoupeLaser
 62
7
100
AcDbSpline
 70
8
 71
3
 72
8
 73
4
 74
0
 40
0
 40
0
 40
0
 40
0
 40
1
 40
1
 40
1
 40
1
 10
141.807935
 20
249.714268
 30
0.0
 10
141.423484
 20
249.329818
 30
0.0
 10
140.902056
 20
249.113837
 30
0.0
 10
140.358360
 20
249.113840
 30
0.0
  0
SPLINE
  5
182
100
AcDbEntity
  8
DecoupeLaser
 62
7
100
AcDbSpline
 70
8
 71
3
 72
8
 73
4
 74
0
 40
0
 40
0
 40
0
 40
0
 40
1
 40
1
 40
1
 40
1
 10
140.358360
 20
249.113840
 30
0.0
 10
139.814666
 20
249.113840
 30
0.0
 10
139.293241
 20
249.329822
 30
0.0
 10
138.908791
 20
249.714271
 30
0.0
  0
SPLINE
  5
183
100
AcDbEntity
  8
DecoupeLaser
 62
7
100
AcDbSpline
 70
8
 71
3
 72
8
 73
4
 74
0
 40
0
 40
0
 40
0
 40
0
 40
1
 40
1
 40
1
 40
1
 10
138.908791
 20
249.714271
 30
0.0
 10
138.524342
 20
250.098721
 30
0.0
 10
138.308360
 20
250.620146
 30
0.0
 10
138.308360
 20
251.163840
 30
0.0
  0
SPLINE
  5
184
100
AcDbEntity
  8
DecoupeLaser
 62
7
100
AcDbSpline
 70
8
 71
3
 72
8
 73
4
 74
0
 40
0
 40
0
 40
0
 40
0
 40
1
 40
1
 40
1
 40
1
 10
138.308360
 20
251.163840
 30
0.0
 10
138.308360
 20
251.707534
 30
0.0
 10
138.524342
 20
252.228959
 30
0.0
 10
138.908791
 20
252.613409
 30
0.0
  0
SPLINE
  5
185
100
AcDbEntity
  8
DecoupeLaser
 62
7
100
AcDbSpline
 70
8
 71
3
 72
8
 73
4
 74
0
 40
0
 40
0
 40
0
 40
0
 40
1
 40
1
 40
1
 40
1
 10
138.908791
 20
252.613409
 30
0.0
 10
139.293241
 20
252.997858
 30
0.0
 10
139.814666
 20
253.213840
 30
0.0
 10
140.358360
 20
253.213840
 30
0.0
  0
SPLINE
  5
186
100
AcDbEntity
  8
DecoupeLaser
 62
7
100
AcDbSpline
 70
8
 71
3
 72
8
 73
4
 74
0
 40
0
 40
0
 40
0
 40
0
 40
1
 40
1
 40
1
 40
1
 10
140.358360
 20
253.213840
 30
0.0
 10
140.902056
 20
253.213843
 30
0.0
 10
141.423484
 20
252.997862
 30
0.0
 10
141.807935
 20
252.613412
 30
0.0
  0
SPLINE
  5
187
100
AcDbEntity
  8
DecoupeLaser
 62
7
100
AcDbSpline
 70
8
 71
3
 72
8
 73
4
 74
0
 40
0
 40
0
 40
0
 40
0
 40
1
 40
1
 40
1
 40
1
 10
141.807935
 20
252.613412
 30
0.0
 10
142.192387
 20
252.228963
 30
0.0
 10
142.408370
 20
251.707536
 30
0.0
 10
142.408370
 20
251.163840
 30
0.0
  0
LINE
  5
188
100
AcDbEntity
  8
DecoupeLaser
 62
7
100
AcDbLine
 10
142.408370
 20
251.163840
 30
0.0
 11
142.408370
 21
251.163840
 31
0.0
  0
SPLINE
  5
189
100
AcDbEntity
  8
DecoupeLaser
 62
7
100
AcDbSpline
 70
8
 71
3
 72
8
 73
4
 74
0
 40
0
 40
0
 40
0
 40
0
 40
1
 40
1
 40
1
 40
1
 10
169.408430
 20
251.163840
 30
0.0
 10
169.408430
 20
249.890064
 30
0.0
 10
168.490614
 20
248.857465
 30
0.0
 10
167.358430
 20
248.857465
 30
0.0
  0
SPLINE
  5
18a
100
AcDbEntity
  8
DecoupeLaser
 62
7
100
AcDbSpline
 70
8
 71
3
 72
8
 73
4
 74
0
 40
0
 40
0
 40
0
 40
0
 40
1
 40
1
 40
1
 40
1
 10
167.358430
 20
248.857465
 30
0.0
 10
166.226247
 20
248.857465
 30
0.0
 10
165.308430
 20
249.890064
 30
0.0
 10
165.308430
 20
251.163840
 30
0.0
  0
SPLINE
  5
18b
100
AcDbEntity
  8
DecoupeLaser
 62
7
100
AcDbSpline
 70
8
 71
3
 72
8
 73
4
 74
0
 40
0
 40
0
 40
0
 40
0
 40
1
 40
1
 40
1
 40
1
 10
165.308430
 20
251.163840
 30
0.0
 10
165.308430
 20
251.775529
 30
0.0
 10
165.524411
 20
252.362165
 30
0.0
 10
165.908861
 20
252.794694
 30
0.0
  0
SPLINE
  5
18c
100
AcDbEntity
  8
DecoupeLaser
 62
7
100
AcDbSpline
 70
8
 71
3
 72
8
 73
4
 74
0
 40
0
 40
0
 40
0
 40
0
 40
1
 40
1
 40
1
 40
1
 10
165.908861
 20
252.794694
 30
0.0
 10
166.293311
 20
253.227224
 30
0.0
 10
166.814736
 20
253.470216
 30
0.0
 10
167.358430
 20
253.470216
 30
0.0
  0
SPLINE
  5
18d
100
AcDbEntity
  8
DecoupeLaser
 62
7
100
AcDbSpline
 70
8
 71
3
 72
8
 73
4
 74
0
 40
0
 40
0
 40
0
 40
0
 40
1
 40
1
 40
1
 40
1
 10
167.358430
 20
253.470216
 30
0.0
 10
167.902124
 20
253.470216
 30
0.0
 10
168.423549
 20
253.227224
 30
0.0
 10
168.807999
 20
252.794694
 30
0.0
  0
SPLINE
  5
18e
100
AcDbEntity
  8
DecoupeLaser
 62
7
100
AcDbSpline
 70
8
 71
3
 72
8
 73
4
 74
0
 40
0
 40
0
 40
0
 40
0
 40
1
 40
1
 40
1
 40
1
 10
168.807999
 20
252.794694
 30
0.0
 10
169.192449
 20
252.362165
 30
0.0
 10
169.408430
 20
251.775529
 30
0.0
 10
169.408430
 20
251.163840
 30
0.0
  0
LINE
  5
18f
100
AcDbEntity
  8
DecoupeLaser
 62
7
100
AcDbLine
 10
169.408430
 20
251.163840
 30
0.0
 11
169.408430
 21
251.163840
 31
0.0
  0
LINE
  5
190
100
AcDbEntity
  8
DecoupeLaser
 62
7
100
AcDbLine
 10
51.697541
 20
245.252314
 30
0.0
 11
88.802459
 21
245.252314
 31
0.0
  0
SPLINE
  5
191
100
AcDbEntity
  8
DecoupeLaser
 62
7
100
AcDbSpline
 70
8
 71
3
 72
8
 73
4
 74
0
 40
0
 40
0
 40
0
 40
0
 40
1
 40
1
 40
1
 40
1
 10
88.802459
 20
245.252314
 30
0.0
 10
89.742897
 20
245.252314
 30
0.0
 10
90.500000
 20
243.912154
 30
0.0
 10
90.500000
 20
242.247471
 30
0.0
  0
LINE
  5
192
100
AcDbEntity
  8
DecoupeLaser
 62
7
100
AcDbLine
 10
90.500000
 20
242.247471
 30
0.0
 11
90.500000
 21
213.257156
 31
0.0
  0
SPLINE
  5
193
100
AcDbEntity
  8
DecoupeLaser
 62
7
100
AcDbSpline
 70
8
 71
3
 72
8
 73
4
 74
0
 40
0
 40
0
 40
0
 40
0
 40
1
 40
1
 40
1
 40
1
 10
90.500000
 20
213.257156
 30
0.0
 10
90.500000
 20
211.592474
 30
0.0
 10
89.742897
 20
210.252314
 30
0.0
 10
88.802459
 20
210.252314
 30
0.0
  0
LINE
  5
194
100
AcDbEntity
  8
DecoupeLaser
 62
7
100
AcDbLine
 10
88.802459
 20
210.252314
 30
0.0
 11
51.697541
 21
210.252314
 31
0.0
  0
SPLINE
  5
195
100
AcDbEntity
  8
DecoupeLaser
 62
7
100
AcDbSpline
 70
8
 71
3
 72
8
 73
4
 74
0
 40
0
 40
0
 40
0
 40
0
 40
1
 40
1
 40
1
 40
1
 10
51.697541
 20
210.252314
 30
0.0
 10
50.757103
 20
210.252314
 30
0.0
 10
50.000000
 20
211.592474
 30
0.0
 10
50.000000
 20
213.257156
 30
0.0
  0
LINE
  5
196
100
AcDbEntity
  8
DecoupeLaser
 62
7
100
AcDbLine
 10
50.000000
 20
213.257156
 30
0.0
 11
50.000000
 21
242.247471
 31
0.0
  0
SPLINE
  5
197
100
AcDbEntity
  8
DecoupeLaser
 62
7
100
AcDbSpline
 70
8
 71
3
 72
8
 73
4
 74
0
 40
0
 40
0
 40
0
 40
0
 40
1
 40
1
 40
1
 40
1
 10
50.000000
 20
242.247471
 30
0.0
 10
50.000000
 20
243.912154
 30
0.0
 10
50.757103
 20
245.252314
 30
0.0
 10
51.697541
 20
245.252314
 30
0.0
  0
LINE
  5
198
100
AcDbEntity
  8
DecoupeLaser
 62
7
100
AcDbLine
 10
51.697541
 20
245.252314
 30
0.0
 11
51.697541
 21
245.252314
 31
0.0
  0
SPLINE
  5
199
100
AcDbEntity
  8
DecoupeLaser
 62
7
100
AcDbSpline
 70
8
 71
3
 72
8
 73
4
 74
0
 40
0
 40
0
 40
0
 40
0
 40
1
 40
1
 40
1
 40
1
 10
58.800001
 20
240.580502
 30
0.0
 10
58.800001
 20
239.448318
 30
0.0
 10
57.882185
 20
238.530502
 30
0.0
 10
56.750001
 20
238.530502
 30
0.0
  0
SPLINE
  5
19a
100
AcDbEntity
  8
DecoupeLaser
 62
7
100
AcDbSpline
 70
8
 71
3
 72
8
 73
4
 74
0
 40
0
 40
0
 40
0
 40
0
 40
1
 40
1
 40
1
 40
1
 10
56.750001
 20
238.530502
 30
0.0
 10
56.206307
 20
238.530502
 30
0.0
 10
55.684882
 20
238.746484
 30
0.0
 10
55.300432
 20
239.130933
 30
0.0
  0
SPLINE
  5
19b
100
AcDbEntity
  8
DecoupeLaser
 62
7
100
AcDbSpline
 70
8
 71
3
 72
8
 73
4
 74
0
 40
0
 40
0
 40
0
 40
0
 40
1
 40
1
 40
1
 40
1
 10
55.300432
 20
239.130933
 30
0.0
 10
54.915983
 20
239.515383
 30
0.0
 10
54.700001
 20
240.036808
 30
0.0
 10
54.700001
 20
240.580502
 30
0.0
  0
SPLINE
  5
19c
100
AcDbEntity
  8
DecoupeLaser
 62
7
100
AcDbSpline
 70
8
 71
3
 72
8
 73
4
 74
0
 40
0
 40
0
 40
0
 40
0
 40
1
 40
1
 40
1
 40
1
 10
54.700001
 20
240.580502
 30
0.0
 10
54.700001
 20
241.124196
 30
0.0
 10
54.915983
 20
241.645621
 30
0.0
 10
55.300432
 20
242.030071
 30
0.0
  0
SPLINE
  5
19d
100
AcDbEntity
  8
DecoupeLaser
 62
7
100
AcDbSpline
 70
8
 71
3
 72
8
 73
4
 74
0
 40
0
 40
0
 40
0
 40
0
 40
1
 40
1
 40
1
 40
1
 10
55.300432
 20
242.030071
 30
0.0
 10
55.684882
 20
242.414520
 30
0.0
 10
56.206307
 20
242.630502
 30
0.0
 10
56.750001
 20
242.630502
 30
0.0
  0
SPLINE
  5
19e
100
AcDbEntity
  8
DecoupeLaser
 62
7
100
AcDbSpline
 70
8
 71
3
 72
8
 73
4
 74
0
 40
0
 40
0
 40
0
 40
0
 40
1
 40
1
 40
1
 40
1
 10
56.750001
 20
242.630502
 30
0.0
 10
57.882185
 20
242.630502
 30
0.0
 10
58.800001
 20
241.712686
 30
0.0
 10
58.800001
 20
240.580502
 30
0.0
  0
LINE
  5
19f
100
AcDbEntity
  8
DecoupeLaser
 62
7
100
AcDbLine
 10
58.800001
 20
240.580502
 30
0.0
 11
58.800001
 21
240.580502
 31
0.0
  0
SPLINE
  5
1a0
100
AcDbEntity
  8
DecoupeLaser
 62
7
100
AcDbSpline
 70
8
 71
3
 72
8
 73
4
 74
0
 40
0
 40
0
 40
0
 40
0
 40
1
 40
1
 40
1
 40
1
 10
85.799999
 20
240.324126
 30
0.0
 10
85.799999
 20
239.191943
 30
0.0
 10
84.882183
 20
238.274126
 30
0.0
 10
83.750000
 20
238.274126
 30
0.0
  0
SPLINE
  5
1a1
100
AcDbEntity
  8
DecoupeLaser
 62
7
100
AcDbSpline
 70
8
 71
3
 72
8
 73
4
 74
0
 40
0
 40
0
 40
0
 40
0
 40
1
 40
1
 40
1
 40
1
 10
83.750000
 20
238.274126
 30
0.0
 10
83.206306
 20
238.274126
 30
0.0
 10
82.684881
 20
238.490107
 30
0.0
 10
82.300431
 20
238.874557
 30
0.0
  0
SPLINE
  5
1a2
100
AcDbEntity
  8
DecoupeLaser
 62
7
100
AcDbSpline
 70
8
 71
3
 72
8
 73
4
 74
0
 40
0
 40
0
 40
0
 40
0
 40
1
 40
1
 40
1
 40
1
 10
82.300431
 20
238.874557
 30
0.0
 10
81.915982
 20
239.259007
 30
0.0
 10
81.700000
 20
239.780432
 30
0.0
 10
81.700000
 20
240.324126
 30
0.0
  0
SPLINE
  5
1a3
100
AcDbEntity
  8
DecoupeLaser
 62
7
100
AcDbSpline
 70
8
 71
3
 72
8
 73
4
 74
0
 40
0
 40
0
 40
0
 40
0
 40
1
 40
1
 40
1
 40
1
 10
81.700000
 20
240.324126
 30
0.0
 10
81.700000
 20
240.867820
 30
0.0
 10
81.915982
 20
241.389245
 30
0.0
 10
82.300431
 20
241.773695
 30
0.0
  0
SPLINE
  5
1a4
100
AcDbEntity
  8
DecoupeLaser
 62
7
100
AcDbSpline
 70
8
 71
3
 72
8
 73
4
 74
0
 40
0
 40
0
 40
0
 40
0
 40
1
 40
1
 40
1
 40
1
 10
82.300431
 20
241.773695
 30
0.0
 10
82.684881
 20
242.158145
 30
0.0
 10
83.206306
 20
242.374126
 30
0.0
 10
83.750000
 20
242.374126
 30
0.0
  0
SPLINE
  5
1a5
100
AcDbEntity
  8
DecoupeLaser
 62
7
100
AcDbSpline
 70
8
 71
3
 72
8
 73
4
 74
0
 40
0
 40
0
 40
0
 40
0
 40
1
 40
1
 40
1
 40
1
 10
83.750000
 20
242.374126
 30
0.0
 10
84.882183
 20
242.374126
 30
0.0
 10
85.799999
 20
241.456310
 30
0.0
 10
85.799999
 20
240.324126
 30
0.0
  0
LINE
  5
1a6
100
AcDbEntity
  8
DecoupeLaser
 62
7
100
AcDbLine
 10
85.799999
 20
240.324126
 30
0.0
 11
85.799999
 21
240.324126
 31
0.0
  0
SPLINE
  5
1a7
100
AcDbEntity
  8
DecoupeLaser
 62
7
100
AcDbSpline
 70
8
 71
3
 72
8
 73
4
 74
0
 40
0
 40
0
 40
0
 40
0
 40
1
 40
1
 40
1
 40
1
 10
58.800001
 20
215.180502
 30
0.0
 10
58.800001
 20
214.048318
 30
0.0
 10
57.882185
 20
213.130502
 30
0.0
 10
56.750001
 20
213.130502
 30
0.0
  0
SPLINE
  5
1a8
100
AcDbEntity
  8
DecoupeLaser
 62
7
100
AcDbSpline
 70
8
 71
3
 72
8
 73
4
 74
0
 40
0
 40
0
 40
0
 40
0
 40
1
 40
1
 40
1
 40
1
 10
56.750001
 20
213.130502
 30
0.0
 10
56.206307
 20
213.130502
 30
0.0
 10
55.684882
 20
213.346484
 30
0.0
 10
55.300432
 20
213.730933
 30
0.0
  0
SPLINE
  5
1a9
100
AcDbEntity
  8
DecoupeLaser
 62
7
100
AcDbSpline
 70
8
 71
3
 72
8
 73
4
 74
0
 40
0
 40
0
 40
0
 40
0
 40
1
 40
1
 40
1
 40
1
 10
55.300432
 20
213.730933
 30
0.0
 10
54.915983
 20
214.115383
 30
0.0
 10
54.700001
 20
214.636808
 30
0.0
 10
54.700001
 20
215.180502
 30
0.0
  0
SPLINE
  5
1aa
100
AcDbEntity
  8
DecoupeLaser
 62
7
100
AcDbSpline
 70
8
 71
3
 72
8
 73
4
 74
0
 40
0
 40
0
 40
0
 40
0
 40
1
 40
1
 40
1
 40
1
 10
54.700001
 20
215.180502
 30
0.0
 10
54.700001
 20
215.724196
 30
0.0
 10
54.915983
 20
216.245621
 30
0.0
 10
55.300432
 20
216.630071
 30
0.0
  0
SPLINE
  5
1ab
100
AcDbEntity
  8
DecoupeLaser
 62
7
100
AcDbSpline
 70
8
 71
3
 72
8
 73
4
 74
0
 40
0
 40
0
 40
0
 40
0
 40
1
 40
1
 40
1
 40
1
 10
55.300432
 20
216.630071
 30
0.0
 10
55.684882
 20
217.014520
 30
0.0
 10
56.206307
 20
217.230502
 30
0.0
 10
56.750001
 20
217.230502
 30
0.0
  0
SPLINE
  5
1ac
100
AcDbEntity
  8
DecoupeLaser
 62
7
100
AcDbSpline
 70
8
 71
3
 72
8
 73
4
 74
0
 40
0
 40
0
 40
0
 40
0
 40
1
 40
1
 40
1
 40
1
 10
56.750001
 20
217.230502
 30
0.0
 10
57.882185
 20
217.230502
 30
0.0
 10
58.800001
 20
216.312686
 30
0.0
 10
58.800001
 20
215.180502
 30
0.0
  0
LINE
  5
1ad
100
AcDbEntity
  8
DecoupeLaser
 62
7
100
AcDbLine
 10
58.800001
 20
215.180502
 30
0.0
 11
58.800001
 21
215.180502
 31
0.0
  0
SPLINE
  5
1ae
100
AcDbEntity
  8
DecoupeLaser
 62
7
100
AcDbSpline
 70
8
 71
3
 72
8
 73
4
 74
0
 40
0
 40
0
 40
0
 40
0
 40
1
 40
1
 40
1
 40
1
 10
85.799999
 20
215.180502
 30
0.0
 10
85.799999
 20
213.906726
 30
0.0
 10
84.882183
 20
212.874127
 30
0.0
 10
83.750000
 20
212.874127
 30
0.0
  0
SPLINE
  5
1af
100
AcDbEntity
  8
DecoupeLaser
 62
7
100
AcDbSpline
 70
8
 71
3
 72
8
 73
4
 74
0
 40
0
 40
0
 40
0
 40
0
 40
1
 40
1
 40
1
 40
1
 10
83.750000
 20
212.874127
 30
0.0
 10
82.617817
 20
212.874127
 30
0.0
 10
81.700000
 20
213.906726
 30
0.0
 10
81.700000
 20
215.180502
 30
0.0
  0
SPLINE
  5
1b0
100
AcDbEntity
  8
DecoupeLaser
 62
7
100
AcDbSpline
 70
8
 71
3
 72
8
 73
4
 74
0
 40
0
 40
0
 40
0
 40
0
 40
1
 40
1
 40
1
 40
1
 10
81.700000
 20
215.180502
 30
0.0
 10
81.700000
 20
215.792191
 30
0.0
 10
81.915981
 20
216.378827
 30
0.0
 10
82.300431
 20
216.811356
 30
0.0
  0
SPLINE
  5
1b1
100
AcDbEntity
  8
DecoupeLaser
 62
7
100
AcDbSpline
 70
8
 71
3
 72
8
 73
4
 74
0
 40
0
 40
0
 40
0
 40
0
 40
1
 40
1
 40
1
 40
1
 10
82.300431
 20
216.811356
 30
0.0
 10
82.684881
 20
217.243886
 30
0.0
 10
83.206306
 20
217.486878
 30
0.0
 10
83.750000
 20
217.486878
 30
0.0
  0
SPLINE
  5
1b2
100
AcDbEntity
  8
DecoupeLaser
 62
7
100
AcDbSpline
 70
8
 71
3
 72
8
 73
4
 74
0
 40
0
 40
0
 40
0
 40
0
 40
1
 40
1
 40
1
 40
1
 10
83.750000
 20
217.486878
 30
0.0
 10
84.882183
 20
217.486878
 30
0.0
 10
85.799999
 20
216.454278
 30
0.0
 10
85.799999
 20
215.180502
 30
0.0
  0
LINE
  5
1b3
100
AcDbEntity
  8
DecoupeLaser
 62
7
100
AcDbLine
 10
85.799999
 20
215.180502
 30
0.0
 11
85.799999
 21
215.180502
 31
0.0
  0
LINE
  5
1b4
100
AcDbEntity
  8
DecoupeLaser
 62
7
100
AcDbLine
 10
93.501716
 20
245.252314
 30
0.0
 11
130.606700
 21
245.252314
 31
0.0
  0
SPLINE
  5
1b5
100
AcDbEntity
  8
DecoupeLaser
 62
7
100
AcDbSpline
 70
8
 71
3
 72
8
 73
4
 74
0
 40
0
 40
0
 40
0
 40
0
 40
1
 40
1
 40
1
 40
1
 10
130.606700
 20
245.252314
 30
0.0
 10
131.547140
 20
245.252314
 30
0.0
 10
132.304240
 20
243.912154
 30
0.0
 10
132.304240
 20
242.247471
 30
0.0
  0
LINE
  5
1b6
100
AcDbEntity
  8
DecoupeLaser
 62
7
100
AcDbLine
 10
132.304240
 20
242.247471
 30
0.0
 11
132.304240
 21
213.257156
 31
0.0
  0
SPLINE
  5
1b7
100
AcDbEntity
  8
DecoupeLaser
 62
7
100
AcDbSpline
 70
8
 71
3
 72
8
 73
4
 74
0
 40
0
 40
0
 40
0
 40
0
 40
1
 40
1
 40
1
 40
1
 10
132.304240
 20
213.257156
 30
0.0
 10
132.304240
 20
211.592474
 30
0.0
 10
131.547140
 20
210.252314
 30
0.0
 10
130.606700
 20
210.252314
 30
0.0
  0
LINE
  5
1b8
100
AcDbEntity
  8
DecoupeLaser
 62
7
100
AcDbLine
 10
130.606700
 20
210.252314
 30
0.0
 11
93.501716
 21
210.252314
 31
0.0
  0
SPLINE
  5
1b9
100
AcDbEntity
  8
DecoupeLaser
 62
7
100
AcDbSpline
 70
8
 71
3
 72
8
 73
4
 74
0
 40
0
 40
0
 40
0
 40
0
 40
1
 40
1
 40
1
 40
1
 10
93.501716
 20
210.252314
 30
0.0
 10
92.561278
 20
210.252314
 30
0.0
 10
91.804175
 20
211.592474
 30
0.0
 10
91.804175
 20
213.257156
 30
0.0
  0
LINE
  5
1ba
100
AcDbEntity
  8
DecoupeLaser
 62
7
100
AcDbLine
 10
91.804175
 20
213.257156
 30
0.0
 11
91.804175
 21
242.247471
 31
0.0
  0
SPLINE
  5
1bb
100
AcDbEntity
  8
DecoupeLaser
 62
7
100
AcDbSpline
 70
8
 71
3
 72
8
 73
4
 74
0
 40
0
 40
0
 40
0
 40
0
 40
1
 40
1
 40
1
 40
1
 10
91.804175
 20
242.247471
 30
0.0
 10
91.804175
 20
243.912154
 30
0.0
 10
92.561278
 20
245.252314
 30
0.0
 10
93.501716
 20
245.252314
 30
0.0
  0
LINE
  5
1bc
100
AcDbEntity
  8
DecoupeLaser
 62
7
100
AcDbLine
 10
93.501716
 20
245.252314
 30
0.0
 11
93.501716
 21
245.252314
 31
0.0
  0
SPLINE
  5
1bd
100
AcDbEntity
  8
DecoupeLaser
 62
7
100
AcDbSpline
 70
8
 71
3
 72
8
 73
4
 74
0
 40
0
 40
0
 40
0
 40
0
 40
1
 40
1
 40
1
 40
1
 10
100.604180
 20
240.580502
 30
0.0
 10
100.604180
 20
240.036808
 30
0.0
 10
100.388198
 20
239.515381
 30
0.0
 10
100.003747
 20
239.130932
 30
0.0
  0
SPLINE
  5
1be
100
AcDbEntity
  8
DecoupeLaser
 62
7
100
AcDbSpline
 70
8
 71
3
 72
8
 73
4
 74
0
 40
0
 40
0
 40
0
 40
0
 40
1
 40
1
 40
1
 40
1
 10
100.003747
 20
239.130932
 30
0.0
 10
99.619297
 20
238.746482
 30
0.0
 10
99.097870
 20
238.530501
 30
0.0
 10
98.554176
 20
238.530502
 30
0.0
  0
SPLINE
  5
1bf
100
AcDbEntity
  8
DecoupeLaser
 62
7
100
AcDbSpline
 70
8
 71
3
 72
8
 73
4
 74
0
 40
0
 40
0
 40
0
 40
0
 40
1
 40
1
 40
1
 40
1
 10
98.554176
 20
238.530502
 30
0.0
 10
98.010482
 20
238.530502
 30
0.0
 10
97.489057
 20
238.746484
 30
0.0
 10
97.104607
 20
239.130933
 30
0.0
  0
SPLINE
  5
1c0
100
AcDbEntity
  8
DecoupeLaser
 62
7
100
AcDbSpline
 70
8
 71
3
 72
8
 73
4
 74
0
 40
0
 40
0
 40
0
 40
0
 40
1
 40
1
 40
1
 40
1
 10
97.104607
 20
239.130933
 30
0.0
 10
96.720158
 20
239.515383
 30
0.0
 10
96.504176
 20
240.036808
 30
0.0
 10
96.504176
 20
240.580502
 30
0.0
  0
SPLINE
  5
1c1
100
AcDbEntity
  8
DecoupeLaser
 62
7
100
AcDbSpline
 70
8
 71
3
 72
8
 73
4
 74
0
 40
0
 40
0
 40
0
 40
0
 40
1
 40
1
 40
1
 40
1
 10
96.504176
 20
240.580502
 30
0.0
 10
96.504176
 20
241.124196
 30
0.0
 10
96.720158
 20
241.645621
 30
0.0
 10
97.104607
 20
242.030071
 30
0.0
  0
SPLINE
  5
1c2
100
AcDbEntity
  8
DecoupeLaser
 62
7
100
AcDbSpline
 70
8
 71
3
 72
8
 73
4
 74
0
 40
0
 40
0
 40
0
 40
0
 40
1
 40
1
 40
1
 40
1
 10
97.104607
 20
242.030071
 30
0.0
 10
97.489057
 20
242.414520
 30
0.0
 10
98.010482
 20
242.630502
 30
0.0
 10
98.554176
 20
242.630502
 30
0.0
  0
SPLINE
  5
1c3
100
AcDbEntity
  8
DecoupeLaser
 62
7
100
AcDbSpline
 70
8
 71
3
 72
8
 73
4
 74
0
 40
0
 40
0
 40
0
 40
0
 40
1
 40
1
 40
1
 40
1
 10
98.554176
 20
242.630502
 30
0.0
 10
99.097870
 20
242.630503
 30
0.0
 10
99.619297
 20
242.414522
 30
0.0
 10
100.003747
 20
242.030072
 30
0.0
  0
SPLINE
  5
1c4
100
AcDbEntity
  8
DecoupeLaser
 62
7
100
AcDbSpline
 70
8
 71
3
 72
8
 73
4
 74
0
 40
0
 40
0
 40
0
 40
0
 40
1
 40
1
 40
1
 40
1
 10
100.003747
 20
242.030072
 30
0.0
 10
100.388198
 20
241.645623
 30
0.0
 10
100.604180
 20
241.124197
 30
0.0
 10
100.604180
 20
240.580502
 30
0.0
  0
LINE
  5
1c5
100
AcDbEntity
  8
DecoupeLaser
 62
7
100
AcDbLine
 10
100.604180
 20
240.580502
 30
0.0
 11
100.604180
 21
240.580502
 31
0.0
  0
SPLINE
  5
1c6
100
AcDbEntity
  8
DecoupeLaser
 62
7
100
AcDbSpline
 70
8
 71
3
 72
8
 73
4
 74
0
 40
0
 40
0
 40
0
 40
0
 40
1
 40
1
 40
1
 40
1
 10
127.604240
 20
240.324126
 30
0.0
 10
127.604240
 20
239.780432
 30
0.0
 10
127.388258
 20
239.259007
 30
0.0
 10
127.003809
 20
238.874557
 30
0.0
  0
SPLINE
  5
1c7
100
AcDbEntity
  8
DecoupeLaser
 62
7
100
AcDbSpline
 70
8
 71
3
 72
8
 73
4
 74
0
 40
0
 40
0
 40
0
 40
0
 40
1
 40
1
 40
1
 40
1
 10
127.003809
 20
238.874557
 30
0.0
 10
126.619359
 20
238.490107
 30
0.0
 10
126.097934
 20
238.274126
 30
0.0
 10
125.554240
 20
238.274126
 30
0.0
  0
SPLINE
  5
1c8
100
AcDbEntity
  8
DecoupeLaser
 62
7
100
AcDbSpline
 70
8
 71
3
 72
8
 73
4
 74
0
 40
0
 40
0
 40
0
 40
0
 40
1
 40
1
 40
1
 40
1
 10
125.554240
 20
238.274126
 30
0.0
 10
125.010546
 20
238.274126
 30
0.0
 10
124.489121
 20
238.490107
 30
0.0
 10
124.104671
 20
238.874557
 30
0.0
  0
SPLINE
  5
1c9
100
AcDbEntity
  8
DecoupeLaser
 62
7
100
AcDbSpline
 70
8
 71
3
 72
8
 73
4
 74
0
 40
0
 40
0
 40
0
 40
0
 40
1
 40
1
 40
1
 40
1
 10
124.104671
 20
238.874557
 30
0.0
 10
123.720222
 20
239.259007
 30
0.0
 10
123.504240
 20
239.780432
 30
0.0
 10
123.504240
 20
240.324126
 30
0.0
  0
SPLINE
  5
1ca
100
AcDbEntity
  8
DecoupeLaser
 62
7
100
AcDbSpline
 70
8
 71
3
 72
8
 73
4
 74
0
 40
0
 40
0
 40
0
 40
0
 40
1
 40
1
 40
1
 40
1
 10
123.504240
 20
240.324126
 30
0.0
 10
123.504240
 20
240.867820
 30
0.0
 10
123.720222
 20
241.389245
 30
0.0
 10
124.104671
 20
241.773695
 30
0.0
  0
SPLINE
  5
1cb
100
AcDbEntity
  8
DecoupeLaser
 62
7
100
AcDbSpline
 70
8
 71
3
 72
8
 73
4
 74
0
 40
0
 40
0
 40
0
 40
0
 40
1
 40
1
 40
1
 40
1
 10
124.104671
 20
241.773695
 30
0.0
 10
124.489121
 20
242.158145
 30
0.0
 10
125.010546
 20
242.374126
 30
0.0
 10
125.554240
 20
242.374126
 30
0.0
  0
SPLINE
  5
1cc
100
AcDbEntity
  8
DecoupeLaser
 62
7
100
AcDbSpline
 70
8
 71
3
 72
8
 73
4
 74
0
 40
0
 40
0
 40
0
 40
0
 40
1
 40
1
 40
1
 40
1
 10
125.554240
 20
242.374126
 30
0.0
 10
126.097934
 20
242.374126
 30
0.0
 10
126.619359
 20
242.158145
 30
0.0
 10
127.003809
 20
241.773695
 30
0.0
  0
SPLINE
  5
1cd
100
AcDbEntity
  8
DecoupeLaser
 62
7
100
AcDbSpline
 70
8
 71
3
 72
8
 73
4
 74
0
 40
0
 40
0
 40
0
 40
0
 40
1
 40
1
 40
1
 40
1
 10
127.003809
 20
241.773695
 30
0.0
 10
127.388258
 20
241.389245
 30
0.0
 10
127.604240
 20
240.867820
 30
0.0
 10
127.604240
 20
240.324126
 30
0.0
  0
LINE
  5
1ce
100
AcDbEntity
  8
DecoupeLaser
 62
7
100
AcDbLine
 10
127.604240
 20
240.324126
 30
0.0
 11
127.604240
 21
240.324126
 31
0.0
  0
SPLINE
  5
1cf
100
AcDbEntity
  8
DecoupeLaser
 62
7
100
AcDbSpline
 70
8
 71
3
 72
8
 73
4
 74
0
 40
0
 40
0
 40
0
 40
0
 40
1
 40
1
 40
1
 40
1
 10
100.604180
 20
215.180502
 30
0.0
 10
100.604180
 20
214.636808
 30
0.0
 10
100.388198
 20
214.115381
 30
0.0
 10
100.003747
 20
213.730932
 30
0.0
  0
SPLINE
  5
1d0
100
AcDbEntity
  8
DecoupeLaser
 62
7
100
AcDbSpline
 70
8
 71
3
 72
8
 73
4
 74
0
 40
0
 40
0
 40
0
 40
0
 40
1
 40
1
 40
1
 40
1
 10
100.003747
 20
213.730932
 30
0.0
 10
99.619297
 20
213.346482
 30
0.0
 10
99.097870
 20
213.130501
 30
0.0
 10
98.554176
 20
213.130502
 30
0.0
  0
SPLINE
  5
1d1
100
AcDbEntity
  8
DecoupeLaser
 62
7
100
AcDbSpline
 70
8
 71
3
 72
8
 73
4
 74
0
 40
0
 40
0
 40
0
 40
0
 40
1
 40
1
 40
1
 40
1
 10
98.554176
 20
213.130502
 30
0.0
 10
98.010482
 20
213.130502
 30
0.0
 10
97.489057
 20
213.346484
 30
0.0
 10
97.104607
 20
213.730933
 30
0.0
  0
SPLINE
  5
1d2
100
AcDbEntity
  8
DecoupeLaser
 62
7
100
AcDbSpline
 70
8
 71
3
 72
8
 73
4
 74
0
 40
0
 40
0
 40
0
 40
0
 40
1
 40
1
 40
1
 40
1
 10
97.104607
 20
213.730933
 30
0.0
 10
96.720158
 20
214.115383
 30
0.0
 10
96.504176
 20
214.636808
 30
0.0
 10
96.504176
 20
215.180502
 30
0.0
  0
SPLINE
  5
1d3
100
AcDbEntity
  8
DecoupeLaser
 62
7
100
AcDbSpline
 70
8
 71
3
 72
8
 73
4
 74
0
 40
0
 40
0
 40
0
 40
0
 40
1
 40
1
 40
1
 40
1
 10
96.504176
 20
215.180502
 30
0.0
 10
96.504176
 20
215.724196
 30
0.0
 10
96.720158
 20
216.245621
 30
0.0
 10
97.104607
 20
216.630071
 30
0.0
  0
SPLINE
  5
1d4
100
AcDbEntity
  8
DecoupeLaser
 62
7
100
AcDbSpline
 70
8
 71
3
 72
8
 73
4
 74
0
 40
0
 40
0
 40
0
 40
0
 40
1
 40
1
 40
1
 40
1
 10
97.104607
 20
216.630071
 30
0.0
 10
97.489057
 20
217.014520
 30
0.0
 10
98.010482
 20
217.230502
 30
0.0
 10
98.554176
 20
217.230502
 30
0.0
  0
SPLINE
  5
1d5
100
AcDbEntity
  8
DecoupeLaser
 62
7
100
AcDbSpline
 70
8
 71
3
 72
8
 73
4
 74
0
 40
0
 40
0
 40
0
 40
0
 40
1
 40
1
 40
1
 40
1
 10
98.554176
 20
217.230502
 30
0.0
 10
99.097870
 20
217.230503
 30
0.0
 10
99.619297
 20
217.014522
 30
0.0
 10
100.003747
 20
216.630072
 30
0.0
  0
SPLINE
  5
1d6
100
AcDbEntity
  8
DecoupeLaser
 62
7
100
AcDbSpline
 70
8
 71
3
 72
8
 73
4
 74
0
 40
0
 40
0
 40
0
 40
0
 40
1
 40
1
 40
1
 40
1
 10
100.003747
 20
216.630072
 30
0.0
 10
100.388198
 20
216.245623
 30
0.0
 10
100.604180
 20
215.724197
 30
0.0
 10
100.604180
 20
215.180502
 30
0.0
  0
LINE
  5
1d7
100
AcDbEntity
  8
DecoupeLaser
 62
7
100
AcDbLine
 10
100.604180
 20
215.180502
 30
0.0
 11
100.604180
 21
215.180502
 31
0.0
  0
SPLINE
  5
1d8
100
AcDbEntity
  8
DecoupeLaser
 62
7
100
AcDbSpline
 70
8
 71
3
 72
8
 73
4
 74
0
 40
0
 40
0
 40
0
 40
0
 40
1
 40
1
 40
1
 40
1
 10
127.604240
 20
215.180502
 30
0.0
 10
127.604240
 20
213.906726
 30
0.0
 10
126.686424
 20
212.874127
 30
0.0
 10
125.554240
 20
212.874127
 30
0.0
  0
SPLINE
  5
1d9
100
AcDbEntity
  8
DecoupeLaser
 62
7
100
AcDbSpline
 70
8
 71
3
 72
8
 73
4
 74
0
 40
0
 40
0
 40
0
 40
0
 40
1
 40
1
 40
1
 40
1
 10
125.554240
 20
212.874127
 30
0.0
 10
124.422057
 20
212.874127
 30
0.0
 10
123.504240
 20
213.906726
 30
0.0
 10
123.504240
 20
215.180502
 30
0.0
  0
SPLINE
  5
1da
100
AcDbEntity
  8
DecoupeLaser
 62
7
100
AcDbSpline
 70
8
 71
3
 72
8
 73
4
 74
0
 40
0
 40
0
 40
0
 40
0
 40
1
 40
1
 40
1
 40
1
 10
123.504240
 20
215.180502
 30
0.0
 10
123.504240
 20
215.792191
 30
0.0
 10
123.720221
 20
216.378827
 30
0.0
 10
124.104671
 20
216.811356
 30
0.0
  0
SPLINE
  5
1db
100
AcDbEntity
  8
DecoupeLaser
 62
7
100
AcDbSpline
 70
8
 71
3
 72
8
 73
4
 74
0
 40
0
 40
0
 40
0
 40
0
 40
1
 40
1
 40
1
 40
1
 10
124.104671
 20
216.811356
 30
0.0
 10
124.489121
 20
217.243886
 30
0.0
 10
125.010546
 20
217.486878
 30
0.0
 10
125.554240
 20
217.486878
 30
0.0
  0
SPLINE
  5
1dc
100
AcDbEntity
  8
DecoupeLaser
 62
7
100
AcDbSpline
 70
8
 71
3
 72
8
 73
4
 74
0
 40
0
 40
0
 40
0
 40
0
 40
1
 40
1
 40
1
 40
1
 10
125.554240
 20
217.486878
 30
0.0
 10
126.097934
 20
217.486878
 30
0.0
 10
126.619359
 20
217.243886
 30
0.0
 10
127.003809
 20
216.811356
 30
0.0
  0
SPLINE
  5
1dd
100
AcDbEntity
  8
DecoupeLaser
 62
7
100
AcDbSpline
 70
8
 71
3
 72
8
 73
4
 74
0
 40
0
 40
0
 40
0
 40
0
 40
1
 40
1
 40
1
 40
1
 10
127.003809
 20
216.811356
 30
0.0
 10
127.388259
 20
216.378827
 30
0.0
 10
127.604240
 20
215.792191
 30
0.0
 10
127.604240
 20
215.180502
 30
0.0
  0
LINE
  5
1de
100
AcDbEntity
  8
DecoupeLaser
 62
7
100
AcDbLine
 10
127.604240
 20
215.180502
 30
0.0
 11
127.604240
 21
215.180502
 31
0.0
  0
LINE
  5
1df
100
AcDbEntity
  8
DecoupeLaser
 62
7
100
AcDbLine
 10
135.305900
 20
245.252314
 30
0.0
 11
172.410890
 21
245.252314
 31
0.0
  0
SPLINE
  5
1e0
100
AcDbEntity
  8
DecoupeLaser
 62
7
100
AcDbSpline
 70
8
 71
3
 72
8
 73
4
 74
0
 40
0
 40
0
 40
0
 40
0
 40
1
 40
1
 40
1
 40
1
 10
172.410890
 20
245.252314
 30
0.0
 10
173.351330
 20
245.252314
 30
0.0
 10
174.108430
 20
243.912154
 30
0.0
 10
174.108430
 20
242.247471
 30
0.0
  0
LINE
  5
1e1
100
AcDbEntity
  8
DecoupeLaser
 62
7
100
AcDbLine
 10
174.108430
 20
242.247471
 30
0.0
 11
174.108430
 21
213.257156
 31
0.0
  0
SPLINE
  5
1e2
100
AcDbEntity
  8
DecoupeLaser
 62
7
100
AcDbSpline
 70
8
 71
3
 72
8
 73
4
 74
0
 40
0
 40
0
 40
0
 40
0
 40
1
 40
1
 40
1
 40
1
 10
174.108430
 20
213.257156
 30
0.0
 10
174.108430
 20
211.592474
 30
0.0
 10
173.351330
 20
210.252314
 30
0.0
 10
172.410890
 20
210.252314
 30
0.0
  0
LINE
  5
1e3
100
AcDbEntity
  8
DecoupeLaser
 62
7
100
AcDbLine
 10
172.410890
 20
210.252314
 30
0.0
 11
135.305900
 21
210.252314
 31
0.0
  0
SPLINE
  5
1e4
100
AcDbEntity
  8
DecoupeLaser
 62
7
100
AcDbSpline
 70
8
 71
3
 72
8
 73
4
 74
0
 40
0
 40
0
 40
0
 40
0
 40
1
 40
1
 40
1
 40
1
 10
135.305900
 20
210.252314
 30
0.0
 10
134.365460
 20
210.252314
 30
0.0
 10
133.608360
 20
211.592474
 30
0.0
 10
133.608360
 20
213.257156
 30
0.0
  0
LINE
  5
1e5
100
AcDbEntity
  8
DecoupeLaser
 62
7
100
AcDbLine
 10
133.608360
 20
213.257156
 30
0.0
 11
133.608360
 21
242.247471
 31
0.0
  0
SPLINE
  5
1e6
100
AcDbEntity
  8
DecoupeLaser
 62
7
100
AcDbSpline
 70
8
 71
3
 72
8
 73
4
 74
0
 40
0
 40
0
 40
0
 40
0
 40
1
 40
1
 40
1
 40
1
 10
133.608360
 20
242.247471
 30
0.0
 10
133.608360
 20
243.912154
 30
0.0
 10
134.365460
 20
245.252314
 30
0.0
 10
135.305900
 20
245.252314
 30
0.0
  0
LINE
  5
1e7
100
AcDbEntity
  8
DecoupeLaser
 62
7
100
AcDbLine
 10
135.305900
 20
245.252314
 30
0.0
 11
135.305900
 21
245.252314
 31
0.0
  0
SPLINE
  5
1e8
100
AcDbEntity
  8
DecoupeLaser
 62
7
100
AcDbSpline
 70
8
 71
3
 72
8
 73
4
 74
0
 40
0
 40
0
 40
0
 40
0
 40
1
 40
1
 40
1
 40
1
 10
142.408370
 20
240.580502
 30
0.0
 10
142.408370
 20
240.036806
 30
0.0
 10
142.192387
 20
239.515379
 30
0.0
 10
141.807935
 20
239.130930
 30
0.0
  0
SPLINE
  5
1e9
100
AcDbEntity
  8
DecoupeLaser
 62
7
100
AcDbSpline
 70
8
 71
3
 72
8
 73
4
 74
0
 40
0
 40
0
 40
0
 40
0
 40
1
 40
1
 40
1
 40
1
 10
141.807935
 20
239.130930
 30
0.0
 10
141.423484
 20
238.746480
 30
0.0
 10
140.902056
 20
238.530499
 30
0.0
 10
140.358360
 20
238.530502
 30
0.0
  0
SPLINE
  5
1ea
100
AcDbEntity
  8
DecoupeLaser
 62
7
100
AcDbSpline
 70
8
 71
3
 72
8
 73
4
 74
0
 40
0
 40
0
 40
0
 40
0
 40
1
 40
1
 40
1
 40
1
 10
140.358360
 20
238.530502
 30
0.0
 10
139.814666
 20
238.530502
 30
0.0
 10
139.293241
 20
238.746484
 30
0.0
 10
138.908791
 20
239.130933
 30
0.0
  0
SPLINE
  5
1eb
100
AcDbEntity
  8
DecoupeLaser
 62
7
100
AcDbSpline
 70
8
 71
3
 72
8
 73
4
 74
0
 40
0
 40
0
 40
0
 40
0
 40
1
 40
1
 40
1
 40
1
 10
138.908791
 20
239.130933
 30
0.0
 10
138.524342
 20
239.515383
 30
0.0
 10
138.308360
 20
240.036808
 30
0.0
 10
138.308360
 20
240.580502
 30
0.0
  0
SPLINE
  5
1ec
100
AcDbEntity
  8
DecoupeLaser
 62
7
100
AcDbSpline
 70
8
 71
3
 72
8
 73
4
 74
0
 40
0
 40
0
 40
0
 40
0
 40
1
 40
1
 40
1
 40
1
 10
138.308360
 20
240.580502
 30
0.0
 10
138.308360
 20
241.124196
 30
0.0
 10
138.524342
 20
241.645621
 30
0.0
 10
138.908791
 20
242.030071
 30
0.0
  0
SPLINE
  5
1ed
100
AcDbEntity
  8
DecoupeLaser
 62
7
100
AcDbSpline
 70
8
 71
3
 72
8
 73
4
 74
0
 40
0
 40
0
 40
0
 40
0
 40
1
 40
1
 40
1
 40
1
 10
138.908791
 20
242.030071
 30
0.0
 10
139.293241
 20
242.414520
 30
0.0
 10
139.814666
 20
242.630502
 30
0.0
 10
140.358360
 20
242.630502
 30
0.0
  0
SPLINE
  5
1ee
100
AcDbEntity
  8
DecoupeLaser
 62
7
100
AcDbSpline
 70
8
 71
3
 72
8
 73
4
 74
0
 40
0
 40
0
 40
0
 40
0
 40
1
 40
1
 40
1
 40
1
 10
140.358360
 20
242.630502
 30
0.0
 10
140.902056
 20
242.630505
 30
0.0
 10
141.423484
 20
242.414524
 30
0.0
 10
141.807935
 20
242.030074
 30
0.0
  0
SPLINE
  5
1ef
100
AcDbEntity
  8
DecoupeLaser
 62
7
100
AcDbSpline
 70
8
 71
3
 72
8
 73
4
 74
0
 40
0
 40
0
 40
0
 40
0
 40
1
 40
1
 40
1
 40
1
 10
141.807935
 20
242.030074
 30
0.0
 10
142.192387
 20
241.645625
 30
0.0
 10
142.408370
 20
241.124198
 30
0.0
 10
142.408370
 20
240.580502
 30
0.0
  0
LINE
  5
1f0
100
AcDbEntity
  8
DecoupeLaser
 62
7
100
AcDbLine
 10
142.408370
 20
240.580502
 30
0.0
 11
142.408370
 21
240.580502
 31
0.0
  0
SPLINE
  5
1f1
100
AcDbEntity
  8
DecoupeLaser
 62
7
100
AcDbSpline
 70
8
 71
3
 72
8
 73
4
 74
0
 40
0
 40
0
 40
0
 40
0
 40
1
 40
1
 40
1
 40
1
 10
169.408430
 20
240.324126
 30
0.0
 10
169.408430
 20
239.780432
 30
0.0
 10
169.192448
 20
239.259007
 30
0.0
 10
168.807999
 20
238.874557
 30
0.0
  0
SPLINE
  5
1f2
100
AcDbEntity
  8
DecoupeLaser
 62
7
100
AcDbSpline
 70
8
 71
3
 72
8
 73
4
 74
0
 40
0
 40
0
 40
0
 40
0
 40
1
 40
1
 40
1
 40
1
 10
168.807999
 20
238.874557
 30
0.0
 10
168.423549
 20
238.490107
 30
0.0
 10
167.902124
 20
238.274126
 30
0.0
 10
167.358430
 20
238.274126
 30
0.0
  0
SPLINE
  5
1f3
100
AcDbEntity
  8
DecoupeLaser
 62
7
100
AcDbSpline
 70
8
 71
3
 72
8
 73
4
 74
0
 40
0
 40
0
 40
0
 40
0
 40
1
 40
1
 40
1
 40
1
 10
167.358430
 20
238.274126
 30
0.0
 10
166.814736
 20
238.274126
 30
0.0
 10
166.293311
 20
238.490107
 30
0.0
 10
165.908861
 20
238.874557
 30
0.0
  0
SPLINE
  5
1f4
100
AcDbEntity
  8
DecoupeLaser
 62
7
100
AcDbSpline
 70
8
 71
3
 72
8
 73
4
 74
0
 40
0
 40
0
 40
0
 40
0
 40
1
 40
1
 40
1
 40
1
 10
165.908861
 20
238.874557
 30
0.0
 10
165.524412
 20
239.259007
 30
0.0
 10
165.308430
 20
239.780432
 30
0.0
 10
165.308430
 20
240.324126
 30
0.0
  0
SPLINE
  5
1f5
100
AcDbEntity
  8
DecoupeLaser
 62
7
100
AcDbSpline
 70
8
 71
3
 72
8
 73
4
 74
0
 40
0
 40
0
 40
0
 40
0
 40
1
 40
1
 40
1
 40
1
 10
165.308430
 20
240.324126
 30
0.0
 10
165.308430
 20
240.867820
 30
0.0
 10
165.524412
 20
241.389245
 30
0.0
 10
165.908861
 20
241.773695
 30
0.0
  0
SPLINE
  5
1f6
100
AcDbEntity
  8
DecoupeLaser
 62
7
100
AcDbSpline
 70
8
 71
3
 72
8
 73
4
 74
0
 40
0
 40
0
 40
0
 40
0
 40
1
 40
1
 40
1
 40
1
 10
165.908861
 20
241.773695
 30
0.0
 10
166.293311
 20
242.158145
 30
0.0
 10
166.814736
 20
242.374126
 30
0.0
 10
167.358430
 20
242.374126
 30
0.0
  0
SPLINE
  5
1f7
100
AcDbEntity
  8
DecoupeLaser
 62
7
100
AcDbSpline
 70
8
 71
3
 72
8
 73
4
 74
0
 40
0
 40
0
 40
0
 40
0
 40
1
 40
1
 40
1
 40
1
 10
167.358430
 20
242.374126
 30
0.0
 10
167.902124
 20
242.374126
 30
0.0
 10
168.423549
 20
242.158145
 30
0.0
 10
168.807999
 20
241.773695
 30
0.0
  0
SPLINE
  5
1f8
100
AcDbEntity
  8
DecoupeLaser
 62
7
100
AcDbSpline
 70
8
 71
3
 72
8
 73
4
 74
0
 40
0
 40
0
 40
0
 40
0
 40
1
 40
1
 40
1
 40
1
 10
168.807999
 20
241.773695
 30
0.0
 10
169.192448
 20
241.389245
 30
0.0
 10
169.408430
 20
240.867820
 30
0.0
 10
169.408430
 20
240.324126
 30
0.0
  0
LINE
  5
1f9
100
AcDbEntity
  8
DecoupeLaser
 62
7
100
AcDbLine
 10
169.408430
 20
240.324126
 30
0.0
 11
169.408430
 21
240.324126
 31
0.0
  0
SPLINE
  5
1fa
100
AcDbEntity
  8
DecoupeLaser
 62
7
100
AcDbSpline
 70
8
 71
3
 72
8
 73
4
 74
0
 40
0
 40
0
 40
0
 40
0
 40
1
 40
1
 40
1
 40
1
 10
142.408370
 20
215.180502
 30
0.0
 10
142.408370
 20
214.636806
 30
0.0
 10
142.192387
 20
214.115379
 30
0.0
 10
141.807935
 20
213.730930
 30
0.0
  0
SPLINE
  5
1fb
100
AcDbEntity
  8
DecoupeLaser
 62
7
100
AcDbSpline
 70
8
 71
3
 72
8
 73
4
 74
0
 40
0
 40
0
 40
0
 40
0
 40
1
 40
1
 40
1
 40
1
 10
141.807935
 20
213.730930
 30
0.0
 10
141.423484
 20
213.346480
 30
0.0
 10
140.902056
 20
213.130499
 30
0.0
 10
140.358360
 20
213.130502
 30
0.0
  0
SPLINE
  5
1fc
100
AcDbEntity
  8
DecoupeLaser
 62
7
100
AcDbSpline
 70
8
 71
3
 72
8
 73
4
 74
0
 40
0
 40
0
 40
0
 40
0
 40
1
 40
1
 40
1
 40
1
 10
140.358360
 20
213.130502
 30
0.0
 10
139.814666
 20
213.130502
 30
0.0
 10
139.293241
 20
213.346484
 30
0.0
 10
138.908791
 20
213.730933
 30
0.0
  0
SPLINE
  5
1fd
100
AcDbEntity
  8
DecoupeLaser
 62
7
100
AcDbSpline
 70
8
 71
3
 72
8
 73
4
 74
0
 40
0
 40
0
 40
0
 40
0
 40
1
 40
1
 40
1
 40
1
 10
138.908791
 20
213.730933
 30
0.0
 10
138.524342
 20
214.115383
 30
0.0
 10
138.308360
 20
214.636808
 30
0.0
 10
138.308360
 20
215.180502
 30
0.0
  0
SPLINE
  5
1fe
100
AcDbEntity
  8
DecoupeLaser
 62
7
100
AcDbSpline
 70
8
 71
3
 72
8
 73
4
 74
0
 40
0
 40
0
 40
0
 40
0
 40
1
 40
1
 40
1
 40
1
 10
138.308360
 20
215.180502
 30
0.0
 10
138.308360
 20
215.724196
 30
0.0
 10
138.524342
 20
216.245621
 30
0.0
 10
138.908791
 20
216.630071
 30
0.0
  0
SPLINE
  5
1ff
100
AcDbEntity
  8
DecoupeLaser
 62
7
100
AcDbSpline
 70
8
 71
3
 72
8
 73
4
 74
0
 40
0
 40
0
 40
0
 40
0
 40
1
 40
1
 40
1
 40
1
 10
138.908791
 20
216.630071
 30
0.0
 10
139.293241
 20
217.014520
 30
0.0
 10
139.814666
 20
217.230502
 30
0.0
 10
140.358360
 20
217.230502
 30
0.0
  0
SPLINE
  5
200
100
AcDbEntity
  8
DecoupeLaser
 62
7
100
AcDbSpline
 70
8
 71
3
 72
8
 73
4
 74
0
 40
0
 40
0
 40
0
 40
0
 40
1
 40
1
 40
1
 40
1
 10
140.358360
 20
217.230502
 30
0.0
 10
140.902056
 20
217.230505
 30
0.0
 10
141.423484
 20
217.014524
 30
0.0
 10
141.807935
 20
216.630074
 30
0.0
  0
SPLINE
  5
201
100
AcDbEntity
  8
DecoupeLaser
 62
7
100
AcDbSpline
 70
8
 71
3
 72
8
 73
4
 74
0
 40
0
 40
0
 40
0
 40
0
 40
1
 40
1
 40
1
 40
1
 10
141.807935
 20
216.630074
 30
0.0
 10
142.192387
 20
216.245625
 30
0.0
 10
142.408370
 20
215.724198
 30
0.0
 10
142.408370
 20
215.180502
 30
0.0
  0
LINE
  5
202
100
AcDbEntity
  8
DecoupeLaser
 62
7
100
AcDbLine
 10
142.408370
 20
215.180502
 30
0.0
 11
142.408370
 21
215.180502
 31
0.0
  0
SPLINE
  5
203
100
AcDbEntity
  8
DecoupeLaser
 62
7
100
AcDbSpline
 70
8
 71
3
 72
8
 73
4
 74
0
 40
0
 40
0
 40
0
 40
0
 40
1
 40
1
 40
1
 40
1
 10
169.408430
 20
215.180502
 30
0.0
 10
169.408430
 20
213.906726
 30
0.0
 10
168.490614
 20
212.874127
 30
0.0
 10
167.358430
 20
212.874127
 30
0.0
  0
SPLINE
  5
204
100
AcDbEntity
  8
DecoupeLaser
 62
7
100
AcDbSpline
 70
8
 71
3
 72
8
 73
4
 74
0
 40
0
 40
0
 40
0
 40
0
 40
1
 40
1
 40
1
 40
1
 10
167.358430
 20
212.874127
 30
0.0
 10
166.226247
 20
212.874127
 30
0.0
 10
165.308430
 20
213.906726
 30
0.0
 10
165.308430
 20
215.180502
 30
0.0
  0
SPLINE
  5
205
100
AcDbEntity
  8
DecoupeLaser
 62
7
100
AcDbSpline
 70
8
 71
3
 72
8
 73
4
 74
0
 40
0
 40
0
 40
0
 40
0
 40
1
 40
1
 40
1
 40
1
 10
165.308430
 20
215.180502
 30
0.0
 10
165.308430
 20
215.792191
 30
0.0
 10
165.524411
 20
216.378827
 30
0.0
 10
165.908861
 20
216.811356
 30
0.0
  0
SPLINE
  5
206
100
AcDbEntity
  8
DecoupeLaser
 62
7
100
AcDbSpline
 70
8
 71
3
 72
8
 73
4
 74
0
 40
0
 40
0
 40
0
 40
0
 40
1
 40
1
 40
1
 40
1
 10
165.908861
 20
216.811356
 30
0.0
 10
166.293311
 20
217.243886
 30
0.0
 10
166.814736
 20
217.486878
 30
0.0
 10
167.358430
 20
217.486878
 30
0.0
  0
SPLINE
  5
207
100
AcDbEntity
  8
DecoupeLaser
 62
7
100
AcDbSpline
 70
8
 71
3
 72
8
 73
4
 74
0
 40
0
 40
0
 40
0
 40
0
 40
1
 40
1
 40
1
 40
1
 10
167.358430
 20
217.486878
 30
0.0
 10
167.902124
 20
217.486878
 30
0.0
 10
168.423549
 20
217.243886
 30
0.0
 10
168.807999
 20
216.811356
 30
0.0
  0
SPLINE
  5
208
100
AcDbEntity
  8
DecoupeLaser
 62
7
100
AcDbSpline
 70
8
 71
3
 72
8
 73
4
 74
0
 40
0
 40
0
 40
0
 40
0
 40
1
 40
1
 40
1
 40
1
 10
168.807999
 20
216.811356
 30
0.0
 10
169.192449
 20
216.378827
 30
0.0
 10
169.408430
 20
215.792191
 30
0.0
 10
169.408430
 20
215.180502
 30
0.0
  0
LINE
  5
209
100
AcDbEntity
  8
DecoupeLaser
 62
7
100
AcDbLine
 10
169.408430
 20
215.180502
 30
0.0
 11
169.408430
 21
215.180502
 31
0.0
  0
SPLINE
  5
20a
100
AcDbEntity
  8
DecoupeLaser
 62
7
100
AcDbSpline
 70
8
 71
3
 72
8
 73
4
 74
0
 40
0
 40
0
 40
0
 40
0
 40
1
 40
1
 40
1
 40
1
 10
72.050000
 20
201.957522
 30
0.0
 10
72.050000
 20
201.413828
 30
0.0
 10
71.834018
 20
200.892403
 30
0.0
 10
71.449569
 20
200.507953
 30
0.0
  0
SPLINE
  5
20b
100
AcDbEntity
  8
DecoupeLaser
 62
7
100
AcDbSpline
 70
8
 71
3
 72
8
 73
4
 74
0
 40
0
 40
0
 40
0
 40
0
 40
1
 40
1
 40
1
 40
1
 10
71.449569
 20
200.507953
 30
0.0
 10
71.065119
 20
200.123503
 30
0.0
 10
70.543694
 20
199.907522
 30
0.0
 10
70.000000
 20
199.907522
 30
0.0
  0
SPLINE
  5
20c
100
AcDbEntity
  8
DecoupeLaser
 62
7
100
AcDbSpline
 70
8
 71
3
 72
8
 73
4
 74
0
 40
0
 40
0
 40
0
 40
0
 40
1
 40
1
 40
1
 40
1
 10
70.000000
 20
199.907522
 30
0.0
 10
69.456306
 20
199.907522
 30
0.0
 10
68.934881
 20
200.123503
 30
0.0
 10
68.550431
 20
200.507953
 30
0.0
  0
SPLINE
  5
20d
100
AcDbEntity
  8
DecoupeLaser
 62
7
100
AcDbSpline
 70
8
 71
3
 72
8
 73
4
 74
0
 40
0
 40
0
 40
0
 40
0
 40
1
 40
1
 40
1
 40
1
 10
68.550431
 20
200.507953
 30
0.0
 10
68.165982
 20
200.892403
 30
0.0
 10
67.950000
 20
201.413828
 30
0.0
 10
67.950000
 20
201.957522
 30
0.0
  0
SPLINE
  5
20e
100
AcDbEntity
  8
DecoupeLaser
 62
7
100
AcDbSpline
 70
8
 71
3
 72
8
 73
4
 74
0
 40
0
 40
0
 40
0
 40
0
 40
1
 40
1
 40
1
 40
1
 10
67.950000
 20
201.957522
 30
0.0
 10
67.950000
 20
202.501216
 30
0.0
 10
68.165982
 20
203.022641
 30
0.0
 10
68.550431
 20
203.407091
 30
0.0
  0
SPLINE
  5
20f
100
AcDbEntity
  8
DecoupeLaser
 62
7
100
AcDbSpline
 70
8
 71
3
 72
8
 73
4
 74
0
 40
0
 40
0
 40
0
 40
0
 40
1
 40
1
 40
1
 40
1
 10
68.550431
 20
203.407091
 30
0.0
 10
68.934881
 20
203.791541
 30
0.0
 10
69.456306
 20
204.007522
 30
0.0
 10
70.000000
 20
204.007522
 30
0.0
  0
SPLINE
  5
210
100
AcDbEntity
  8
DecoupeLaser
 62
7
100
AcDbSpline
 70
8
 71
3
 72
8
 73
4
 74
0
 40
0
 40
0
 40
0
 40
0
 40
1
 40
1
 40
1
 40
1
 10
70.000000
 20
204.007522
 30
0.0
 10
70.543694
 20
204.007522
 30
0.0
 10
71.065119
 20
203.791541
 30
0.0
 10
71.449569
 20
203.407091
 30
0.0
  0
SPLINE
  5
211
100
AcDbEntity
  8
DecoupeLaser
 62
7
100
AcDbSpline
 70
8
 71
3
 72
8
 73
4
 74
0
 40
0
 40
0
 40
0
 40
0
 40
1
 40
1
 40
1
 40
1
 10
71.449569
 20
203.407091
 30
0.0
 10
71.834018
 20
203.022641
 30
0.0
 10
72.050000
 20
202.501216
 30
0.0
 10
72.050000
 20
201.957522
 30
0.0
  0
LINE
  5
212
100
AcDbEntity
  8
DecoupeLaser
 62
7
100
AcDbLine
 10
72.050000
 20
201.957522
 30
0.0
 11
72.050000
 21
201.957522
 31
0.0
  0
SPLINE
  5
213
100
AcDbEntity
  8
DecoupeLaser
 62
7
100
AcDbSpline
 70
8
 71
3
 72
8
 73
4
 74
0
 40
0
 40
0
 40
0
 40
0
 40
1
 40
1
 40
1
 40
1
 10
72.050000
 20
180.790850
 30
0.0
 10
72.050001
 20
180.247156
 30
0.0
 10
71.834020
 20
179.725731
 30
0.0
 10
71.449570
 20
179.341281
 30
0.0
  0
SPLINE
  5
214
100
AcDbEntity
  8
DecoupeLaser
 62
7
100
AcDbSpline
 70
8
 71
3
 72
8
 73
4
 74
0
 40
0
 40
0
 40
0
 40
0
 40
1
 40
1
 40
1
 40
1
 10
71.449570
 20
179.341281
 30
0.0
 10
71.065121
 20
178.956832
 30
0.0
 10
70.543694
 20
178.740850
 30
0.0
 10
70.000000
 20
178.740850
 30
0.0
  0
SPLINE
  5
215
100
AcDbEntity
  8
DecoupeLaser
 62
7
100
AcDbSpline
 70
8
 71
3
 72
8
 73
4
 74
0
 40
0
 40
0
 40
0
 40
0
 40
1
 40
1
 40
1
 40
1
 10
70.000000
 20
178.740850
 30
0.0
 10
69.456306
 20
178.740850
 30
0.0
 10
68.934879
 20
178.956832
 30
0.0
 10
68.550430
 20
179.341281
 30
0.0
  0
SPLINE
  5
216
100
AcDbEntity
  8
DecoupeLaser
 62
7
100
AcDbSpline
 70
8
 71
3
 72
8
 73
4
 74
0
 40
0
 40
0
 40
0
 40
0
 40
1
 40
1
 40
1
 40
1
 10
68.550430
 20
179.341281
 30
0.0
 10
68.165980
 20
179.725731
 30
0.0
 10
67.949999
 20
180.247156
 30
0.0
 10
67.950000
 20
180.790850
 30
0.0
  0
SPLINE
  5
217
100
AcDbEntity
  8
DecoupeLaser
 62
7
100
AcDbSpline
 70
8
 71
3
 72
8
 73
4
 74
0
 40
0
 40
0
 40
0
 40
0
 40
1
 40
1
 40
1
 40
1
 10
67.950000
 20
180.790850
 30
0.0
 10
67.949999
 20
181.334544
 30
0.0
 10
68.165980
 20
181.855969
 30
0.0
 10
68.550430
 20
182.240419
 30
0.0
  0
SPLINE
  5
218
100
AcDbEntity
  8
DecoupeLaser
 62
7
100
AcDbSpline
 70
8
 71
3
 72
8
 73
4
 74
0
 40
0
 40
0
 40
0
 40
0
 40
1
 40
1
 40
1
 40
1
 10
68.550430
 20
182.240419
 30
0.0
 10
68.934879
 20
182.624869
 30
0.0
 10
69.456306
 20
182.840850
 30
0.0
 10
70.000000
 20
182.840850
 30
0.0
  0
SPLINE
  5
219
100
AcDbEntity
  8
DecoupeLaser
 62
7
100
AcDbSpline
 70
8
 71
3
 72
8
 73
4
 74
0
 40
0
 40
0
 40
0
 40
0
 40
1
 40
1
 40
1
 40
1
 10
70.000000
 20
182.840850
 30
0.0
 10
70.543694
 20
182.840850
 30
0.0
 10
71.065121
 20
182.624869
 30
0.0
 10
71.449570
 20
182.240419
 30
0.0
  0
SPLINE
  5
21a
100
AcDbEntity
  8
DecoupeLaser
 62
7
100
AcDbSpline
 70
8
 71
3
 72
8
 73
4
 74
0
 40
0
 40
0
 40
0
 40
0
 40
1
 40
1
 40
1
 40
1
 10
71.449570
 20
182.240419
 30
0.0
 10
71.834020
 20
181.855969
 30
0.0
 10
72.050001
 20
181.334544
 30
0.0
 10
72.050000
 20
180.790850
 30
0.0
  0
LINE
  5
21b
100
AcDbEntity
  8
DecoupeLaser
 62
7
100
AcDbLine
 10
72.050000
 20
180.790850
 30
0.0
 11
72.050000
 21
180.790850
 31
0.0
  0
LINE
  5
21c
100
AcDbEntity
  8
DecoupeLaser
 62
7
100
AcDbLine
 10
91.274986
 20
208.874184
 30
0.0
 11
131.274986
 21
208.874184
 31
0.0
  0
LINE
  5
21d
100
AcDbEntity
  8
DecoupeLaser
 62
7
100
AcDbLine
 10
131.274986
 20
208.874184
 30
0.0
 11
131.274986
 21
173.874184
 31
0.0
  0
LINE
  5
21e
100
AcDbEntity
  8
DecoupeLaser
 62
7
100
AcDbLine
 10
131.274986
 20
173.874184
 30
0.0
 11
91.274986
 21
173.874184
 31
0.0
  0
LINE
  5
21f
100
AcDbEntity
  8
DecoupeLaser
 62
7
100
AcDbLine
 10
91.274986
 20
173.874184
 30
0.0
 11
91.274986
 21
208.874184
 31
0.0
  0
SPLINE
  5
220
100
AcDbEntity
  8
DecoupeLaser
 62
7
100
AcDbSpline
 70
8
 71
3
 72
8
 73
4
 74
0
 40
0
 40
0
 40
0
 40
0
 40
1
 40
1
 40
1
 40
1
 10
113.325000
 20
201.957522
 30
0.0
 10
113.325000
 20
201.413828
 30
0.0
 10
113.109018
 20
200.892403
 30
0.0
 10
112.724569
 20
200.507953
 30
0.0
  0
SPLINE
  5
221
100
AcDbEntity
  8
DecoupeLaser
 62
7
100
AcDbSpline
 70
8
 71
3
 72
8
 73
4
 74
0
 40
0
 40
0
 40
0
 40
0
 40
1
 40
1
 40
1
 40
1
 10
112.724569
 20
200.507953
 30
0.0
 10
112.340119
 20
200.123503
 30
0.0
 10
111.818694
 20
199.907522
 30
0.0
 10
111.275000
 20
199.907522
 30
0.0
  0
SPLINE
  5
222
100
AcDbEntity
  8
DecoupeLaser
 62
7
100
AcDbSpline
 70
8
 71
3
 72
8
 73
4
 74
0
 40
0
 40
0
 40
0
 40
0
 40
1
 40
1
 40
1
 40
1
 10
111.275000
 20
199.907522
 30
0.0
 10
110.731306
 20
199.907522
 30
0.0
 10
110.209881
 20
200.123503
 30
0.0
 10
109.825431
 20
200.507953
 30
0.0
  0
SPLINE
  5
223
100
AcDbEntity
  8
DecoupeLaser
 62
7
100
AcDbSpline
 70
8
 71
3
 72
8
 73
4
 74
0
 40
0
 40
0
 40
0
 40
0
 40
1
 40
1
 40
1
 40
1
 10
109.825431
 20
200.507953
 30
0.0
 10
109.440982
 20
200.892403
 30
0.0
 10
109.225000
 20
201.413828
 30
0.0
 10
109.225000
 20
201.957522
 30
0.0
  0
SPLINE
  5
224
100
AcDbEntity
  8
DecoupeLaser
 62
7
100
AcDbSpline
 70
8
 71
3
 72
8
 73
4
 74
0
 40
0
 40
0
 40
0
 40
0
 40
1
 40
1
 40
1
 40
1
 10
109.225000
 20
201.957522
 30
0.0
 10
109.225000
 20
202.501216
 30
0.0
 10
109.440982
 20
203.022641
 30
0.0
 10
109.825431
 20
203.407091
 30
0.0
  0
SPLINE
  5
225
100
AcDbEntity
  8
DecoupeLaser
 62
7
100
AcDbSpline
 70
8
 71
3
 72
8
 73
4
 74
0
 40
0
 40
0
 40
0
 40
0
 40
1
 40
1
 40
1
 40
1
 10
109.825431
 20
203.407091
 30
0.0
 10
110.209881
 20
203.791541
 30
0.0
 10
110.731306
 20
204.007522
 30
0.0
 10
111.275000
 20
204.007522
 30
0.0
  0
SPLINE
  5
226
100
AcDbEntity
  8
DecoupeLaser
 62
7
100
AcDbSpline
 70
8
 71
3
 72
8
 73
4
 74
0
 40
0
 40
0
 40
0
 40
0
 40
1
 40
1
 40
1
 40
1
 10
111.275000
 20
204.007522
 30
0.0
 10
111.818694
 20
204.007522
 30
0.0
 10
112.340119
 20
203.791541
 30
0.0
 10
112.724569
 20
203.407091
 30
0.0
  0
SPLINE
  5
227
100
AcDbEntity
  8
DecoupeLaser
 62
7
100
AcDbSpline
 70
8
 71
3
 72
8
 73
4
 74
0
 40
0
 40
0
 40
0
 40
0
 40
1
 40
1
 40
1
 40
1
 10
112.724569
 20
203.407091
 30
0.0
 10
113.109018
 20
203.022641
 30
0.0
 10
113.325000
 20
202.501216
 30
0.0
 10
113.325000
 20
201.957522
 30
0.0
  0
LINE
  5
228
100
AcDbEntity
  8
DecoupeLaser
 62
7
100
AcDbLine
 10
113.325000
 20
201.957522
 30
0.0
 11
113.325000
 21
201.957522
 31
0.0
  0
SPLINE
  5
229
100
AcDbEntity
  8
DecoupeLaser
 62
7
100
AcDbSpline
 70
8
 71
3
 72
8
 73
4
 74
0
 40
0
 40
0
 40
0
 40
0
 40
1
 40
1
 40
1
 40
1
 10
113.325000
 20
180.790850
 30
0.0
 10
113.325001
 20
180.247156
 30
0.0
 10
113.109020
 20
179.725731
 30
0.0
 10
112.724570
 20
179.341281
 30
0.0
  0
SPLINE
  5
22a
100
AcDbEntity
  8
DecoupeLaser
 62
7
100
AcDbSpline
 70
8
 71
3
 72
8
 73
4
 74
0
 40
0
 40
0
 40
0
 40
0
 40
1
 40
1
 40
1
 40
1
 10
112.724570
 20
179.341281
 30
0.0
 10
112.340121
 20
178.956832
 30
0.0
 10
111.818694
 20
178.740850
 30
0.0
 10
111.275000
 20
178.740850
 30
0.0
  0
SPLINE
  5
22b
100
AcDbEntity
  8
DecoupeLaser
 62
7
100
AcDbSpline
 70
8
 71
3
 72
8
 73
4
 74
0
 40
0
 40
0
 40
0
 40
0
 40
1
 40
1
 40
1
 40
1
 10
111.275000
 20
178.740850
 30
0.0
 10
110.731306
 20
178.740850
 30
0.0
 10
110.209879
 20
178.956832
 30
0.0
 10
109.825430
 20
179.341281
 30
0.0
  0
SPLINE
  5
22c
100
AcDbEntity
  8
DecoupeLaser
 62
7
100
AcDbSpline
 70
8
 71
3
 72
8
 73
4
 74
0
 40
0
 40
0
 40
0
 40
0
 40
1
 40
1
 40
1
 40
1
 10
109.825430
 20
179.341281
 30
0.0
 10
109.440980
 20
179.725731
 30
0.0
 10
109.224999
 20
180.247156
 30
0.0
 10
109.225000
 20
180.790850
 30
0.0
  0
SPLINE
  5
22d
100
AcDbEntity
  8
DecoupeLaser
 62
7
100
AcDbSpline
 70
8
 71
3
 72
8
 73
4
 74
0
 40
0
 40
0
 40
0
 40
0
 40
1
 40
1
 40
1
 40
1
 10
109.225000
 20
180.790850
 30
0.0
 10
109.224999
 20
181.334544
 30
0.0
 10
109.440980
 20
181.855969
 30
0.0
 10
109.825430
 20
182.240419
 30
0.0
  0
SPLINE
  5
22e
100
AcDbEntity
  8
DecoupeLaser
 62
7
100
AcDbSpline
 70
8
 71
3
 72
8
 73
4
 74
0
 40
0
 40
0
 40
0
 40
0
 40
1
 40
1
 40
1
 40
1
 10
109.825430
 20
182.240419
 30
0.0
 10
110.209879
 20
182.624869
 30
0.0
 10
110.731306
 20
182.840850
 30
0.0
 10
111.275000
 20
182.840850
 30
0.0
  0
SPLINE
  5
22f
100
AcDbEntity
  8
DecoupeLaser
 62
7
100
AcDbSpline
 70
8
 71
3
 72
8
 73
4
 74
0
 40
0
 40
0
 40
0
 40
0
 40
1
 40
1
 40
1
 40
1
 10
111.275000
 20
182.840850
 30
0.0
 10
111.818694
 20
182.840850
 30
0.0
 10
112.340121
 20
182.624869
 30
0.0
 10
112.724570
 20
182.240419
 30
0.0
  0
SPLINE
  5
230
100
AcDbEntity
  8
DecoupeLaser
 62
7
100
AcDbSpline
 70
8
 71
3
 72
8
 73
4
 74
0
 40
0
 40
0
 40
0
 40
0
 40
1
 40
1
 40
1
 40
1
 10
112.724570
 20
182.240419
 30
0.0
 10
113.109020
 20
181.855969
 30
0.0
 10
113.325001
 20
181.334544
 30
0.0
 10
113.325000
 20
180.790850
 30
0.0
  0
LINE
  5
231
100
AcDbEntity
  8
DecoupeLaser
 62
7
100
AcDbLine
 10
113.325000
 20
180.790850
 30
0.0
 11
113.325000
 21
180.790850
 31
0.0
  0
SPLINE
  5
232
100
AcDbEntity
  8
DecoupeLaser
 62
7
100
AcDbSpline
 70
8
 71
3
 72
8
 73
4
 74
0
 40
0
 40
0
 40
0
 40
0
 40
1
 40
1
 40
1
 40
1
 10
113.325000
 20
201.957522
 30
0.0
 10
113.325000
 20
201.413828
 30
0.0
 10
113.109018
 20
200.892403
 30
0.0
 10
112.724569
 20
200.507953
 30
0.0
  0
SPLINE
  5
233
100
AcDbEntity
  8
DecoupeLaser
 62
7
100
AcDbSpline
 70
8
 71
3
 72
8
 73
4
 74
0
 40
0
 40
0
 40
0
 40
0
 40
1
 40
1
 40
1
 40
1
 10
112.724569
 20
200.507953
 30
0.0
 10
112.340119
 20
200.123503
 30
0.0
 10
111.818694
 20
199.907522
 30
0.0
 10
111.275000
 20
199.907522
 30
0.0
  0
SPLINE
  5
234
100
AcDbEntity
  8
DecoupeLaser
 62
7
100
AcDbSpline
 70
8
 71
3
 72
8
 73
4
 74
0
 40
0
 40
0
 40
0
 40
0
 40
1
 40
1
 40
1
 40
1
 10
111.275000
 20
199.907522
 30
0.0
 10
110.731306
 20
199.907522
 30
0.0
 10
110.209881
 20
200.123503
 30
0.0
 10
109.825431
 20
200.507953
 30
0.0
  0
SPLINE
  5
235
100
AcDbEntity
  8
DecoupeLaser
 62
7
100
AcDbSpline
 70
8
 71
3
 72
8
 73
4
 74
0
 40
0
 40
0
 40
0
 40
0
 40
1
 40
1
 40
1
 40
1
 10
109.825431
 20
200.507953
 30
0.0
 10
109.440982
 20
200.892403
 30
0.0
 10
109.225000
 20
201.413828
 30
0.0
 10
109.225000
 20
201.957522
 30
0.0
  0
SPLINE
  5
236
100
AcDbEntity
  8
DecoupeLaser
 62
7
100
AcDbSpline
 70
8
 71
3
 72
8
 73
4
 74
0
 40
0
 40
0
 40
0
 40
0
 40
1
 40
1
 40
1
 40
1
 10
109.225000
 20
201.957522
 30
0.0
 10
109.225000
 20
202.501216
 30
0.0
 10
109.440982
 20
203.022641
 30
0.0
 10
109.825431
 20
203.407091
 30
0.0
  0
SPLINE
  5
237
100
AcDbEntity
  8
DecoupeLaser
 62
7
100
AcDbSpline
 70
8
 71
3
 72
8
 73
4
 74
0
 40
0
 40
0
 40
0
 40
0
 40
1
 40
1
 40
1
 40
1
 10
109.825431
 20
203.407091
 30
0.0
 10
110.209881
 20
203.791541
 30
0.0
 10
110.731306
 20
204.007522
 30
0.0
 10
111.275000
 20
204.007522
 30
0.0
  0
SPLINE
  5
238
100
AcDbEntity
  8
DecoupeLaser
 62
7
100
AcDbSpline
 70
8
 71
3
 72
8
 73
4
 74
0
 40
0
 40
0
 40
0
 40
0
 40
1
 40
1
 40
1
 40
1
 10
111.275000
 20
204.007522
 30
0.0
 10
111.818694
 20
204.007522
 30
0.0
 10
112.340119
 20
203.791541
 30
0.0
 10
112.724569
 20
203.407091
 30
0.0
  0
SPLINE
  5
239
100
AcDbEntity
  8
DecoupeLaser
 62
7
100
AcDbSpline
 70
8
 71
3
 72
8
 73
4
 74
0
 40
0
 40
0
 40
0
 40
0
 40
1
 40
1
 40
1
 40
1
 10
112.724569
 20
203.407091
 30
0.0
 10
113.109018
 20
203.022641
 30
0.0
 10
113.325000
 20
202.501216
 30
0.0
 10
113.325000
 20
201.957522
 30
0.0
  0
LINE
  5
23a
100
AcDbEntity
  8
DecoupeLaser
 62
7
100
AcDbLine
 10
113.325000
 20
201.957522
 30
0.0
 11
113.325000
 21
201.957522
 31
0.0
  0
SPLINE
  5
23b
100
AcDbEntity
  8
DecoupeLaser
 62
7
100
AcDbSpline
 70
8
 71
3
 72
8
 73
4
 74
0
 40
0
 40
0
 40
0
 40
0
 40
1
 40
1
 40
1
 40
1
 10
113.325000
 20
180.790850
 30
0.0
 10
113.325001
 20
180.247156
 30
0.0
 10
113.109020
 20
179.725731
 30
0.0
 10
112.724570
 20
179.341281
 30
0.0
  0
SPLINE
  5
23c
100
AcDbEntity
  8
DecoupeLaser
 62
7
100
AcDbSpline
 70
8
 71
3
 72
8
 73
4
 74
0
 40
0
 40
0
 40
0
 40
0
 40
1
 40
1
 40
1
 40
1
 10
112.724570
 20
179.341281
 30
0.0
 10
112.340121
 20
178.956832
 30
0.0
 10
111.818694
 20
178.740850
 30
0.0
 10
111.275000
 20
178.740850
 30
0.0
  0
SPLINE
  5
23d
100
AcDbEntity
  8
DecoupeLaser
 62
7
100
AcDbSpline
 70
8
 71
3
 72
8
 73
4
 74
0
 40
0
 40
0
 40
0
 40
0
 40
1
 40
1
 40
1
 40
1
 10
111.275000
 20
178.740850
 30
0.0
 10
110.731306
 20
178.740850
 30
0.0
 10
110.209879
 20
178.956832
 30
0.0
 10
109.825430
 20
179.341281
 30
0.0
  0
SPLINE
  5
23e
100
AcDbEntity
  8
DecoupeLaser
 62
7
100
AcDbSpline
 70
8
 71
3
 72
8
 73
4
 74
0
 40
0
 40
0
 40
0
 40
0
 40
1
 40
1
 40
1
 40
1
 10
109.825430
 20
179.341281
 30
0.0
 10
109.440980
 20
179.725731
 30
0.0
 10
109.224999
 20
180.247156
 30
0.0
 10
109.225000
 20
180.790850
 30
0.0
  0
SPLINE
  5
23f
100
AcDbEntity
  8
DecoupeLaser
 62
7
100
AcDbSpline
 70
8
 71
3
 72
8
 73
4
 74
0
 40
0
 40
0
 40
0
 40
0
 40
1
 40
1
 40
1
 40
1
 10
109.225000
 20
180.790850
 30
0.0
 10
109.224999
 20
181.334544
 30
0.0
 10
109.440980
 20
181.855969
 30
0.0
 10
109.825430
 20
182.240419
 30
0.0
  0
SPLINE
  5
240
100
AcDbEntity
  8
DecoupeLaser
 62
7
100
AcDbSpline
 70
8
 71
3
 72
8
 73
4
 74
0
 40
0
 40
0
 40
0
 40
0
 40
1
 40
1
 40
1
 40
1
 10
109.825430
 20
182.240419
 30
0.0
 10
110.209879
 20
182.624869
 30
0.0
 10
110.731306
 20
182.840850
 30
0.0
 10
111.275000
 20
182.840850
 30
0.0
  0
SPLINE
  5
241
100
AcDbEntity
  8
DecoupeLaser
 62
7
100
AcDbSpline
 70
8
 71
3
 72
8
 73
4
 74
0
 40
0
 40
0
 40
0
 40
0
 40
1
 40
1
 40
1
 40
1
 10
111.275000
 20
182.840850
 30
0.0
 10
111.818694
 20
182.840850
 30
0.0
 10
112.340121
 20
182.624869
 30
0.0
 10
112.724570
 20
182.240419
 30
0.0
  0
SPLINE
  5
242
100
AcDbEntity
  8
DecoupeLaser
 62
7
100
AcDbSpline
 70
8
 71
3
 72
8
 73
4
 74
0
 40
0
 40
0
 40
0
 40
0
 40
1
 40
1
 40
1
 40
1
 10
112.724570
 20
182.240419
 30
0.0
 10
113.109020
 20
181.855969
 30
0.0
 10
113.325001
 20
181.334544
 30
0.0
 10
113.325000
 20
180.790850
 30
0.0
  0
LINE
  5
243
100
AcDbEntity
  8
DecoupeLaser
 62
7
100
AcDbLine
 10
113.325000
 20
180.790850
 30
0.0
 11
113.325000
 21
180.790850
 31
0.0
  0
LINE
  5
244
100
AcDbEntity
  8
DecoupeLaser
 62
7
100
AcDbLine
 10
133.608310
 20
208.874184
 30
0.0
 11
173.608310
 21
208.874184
 31
0.0
  0
LINE
  5
245
100
AcDbEntity
  8
DecoupeLaser
 62
7
100
AcDbLine
 10
173.608310
 20
208.874184
 30
0.0
 11
173.608310
 21
173.874184
 31
0.0
  0
LINE
  5
246
100
AcDbEntity
  8
DecoupeLaser
 62
7
100
AcDbLine
 10
173.608310
 20
173.874184
 30
0.0
 11
133.608310
 21
173.874184
 31
0.0
  0
LINE
  5
247
100
AcDbEntity
  8
DecoupeLaser
 62
7
100
AcDbLine
 10
133.608310
 20
173.874184
 30
0.0
 11
133.608310
 21
208.874184
 31
0.0
  0
SPLINE
  5
248
100
AcDbEntity
  8
DecoupeLaser
 62
7
100
AcDbSpline
 70
8
 71
3
 72
8
 73
4
 74
0
 40
0
 40
0
 40
0
 40
0
 40
1
 40
1
 40
1
 40
1
 10
155.658360
 20
201.957522
 30
0.0
 10
155.658360
 20
201.413828
 30
0.0
 10
155.442378
 20
200.892403
 30
0.0
 10
155.057929
 20
200.507953
 30
0.0
  0
SPLINE
  5
249
100
AcDbEntity
  8
DecoupeLaser
 62
7
100
AcDbSpline
 70
8
 71
3
 72
8
 73
4
 74
0
 40
0
 40
0
 40
0
 40
0
 40
1
 40
1
 40
1
 40
1
 10
155.057929
 20
200.507953
 30
0.0
 10
154.673479
 20
200.123503
 30
0.0
 10
154.152054
 20
199.907522
 30
0.0
 10
153.608360
 20
199.907522
 30
0.0
  0
SPLINE
  5
24a
100
AcDbEntity
  8
DecoupeLaser
 62
7
100
AcDbSpline
 70
8
 71
3
 72
8
 73
4
 74
0
 40
0
 40
0
 40
0
 40
0
 40
1
 40
1
 40
1
 40
1
 10
153.608360
 20
199.907522
 30
0.0
 10
153.064666
 20
199.907522
 30
0.0
 10
152.543241
 20
200.123503
 30
0.0
 10
152.158791
 20
200.507953
 30
0.0
  0
SPLINE
  5
24b
100
AcDbEntity
  8
DecoupeLaser
 62
7
100
AcDbSpline
 70
8
 71
3
 72
8
 73
4
 74
0
 40
0
 40
0
 40
0
 40
0
 40
1
 40
1
 40
1
 40
1
 10
152.158791
 20
200.507953
 30
0.0
 10
151.774342
 20
200.892403
 30
0.0
 10
151.558360
 20
201.413828
 30
0.0
 10
151.558360
 20
201.957522
 30
0.0
  0
SPLINE
  5
24c
100
AcDbEntity
  8
DecoupeLaser
 62
7
100
AcDbSpline
 70
8
 71
3
 72
8
 73
4
 74
0
 40
0
 40
0
 40
0
 40
0
 40
1
 40
1
 40
1
 40
1
 10
151.558360
 20
201.957522
 30
0.0
 10
151.558360
 20
202.501216
 30
0.0
 10
151.774342
 20
203.022641
 30
0.0
 10
152.158791
 20
203.407091
 30
0.0
  0
SPLINE
  5
24d
100
AcDbEntity
  8
DecoupeLaser
 62
7
100
AcDbSpline
 70
8
 71
3
 72
8
 73
4
 74
0
 40
0
 40
0
 40
0
 40
0
 40
1
 40
1
 40
1
 40
1
 10
152.158791
 20
203.407091
 30
0.0
 10
152.543241
 20
203.791541
 30
0.0
 10
153.064666
 20
204.007522
 30
0.0
 10
153.608360
 20
204.007522
 30
0.0
  0
SPLINE
  5
24e
100
AcDbEntity
  8
DecoupeLaser
 62
7
100
AcDbSpline
 70
8
 71
3
 72
8
 73
4
 74
0
 40
0
 40
0
 40
0
 40
0
 40
1
 40
1
 40
1
 40
1
 10
153.608360
 20
204.007522
 30
0.0
 10
154.152054
 20
204.007522
 30
0.0
 10
154.673479
 20
203.791541
 30
0.0
 10
155.057929
 20
203.407091
 30
0.0
  0
SPLINE
  5
24f
100
AcDbEntity
  8
DecoupeLaser
 62
7
100
AcDbSpline
 70
8
 71
3
 72
8
 73
4
 74
0
 40
0
 40
0
 40
0
 40
0
 40
1
 40
1
 40
1
 40
1
 10
155.057929
 20
203.407091
 30
0.0
 10
155.442378
 20
203.022641
 30
0.0
 10
155.658360
 20
202.501216
 30
0.0
 10
155.658360
 20
201.957522
 30
0.0
  0
LINE
  5
250
100
AcDbEntity
  8
DecoupeLaser
 62
7
100
AcDbLine
 10
155.658360
 20
201.957522
 30
0.0
 11
155.658360
 21
201.957522
 31
0.0
  0
SPLINE
  5
251
100
AcDbEntity
  8
DecoupeLaser
 62
7
100
AcDbSpline
 70
8
 71
3
 72
8
 73
4
 74
0
 40
0
 40
0
 40
0
 40
0
 40
1
 40
1
 40
1
 40
1
 10
155.658360
 20
180.790850
 30
0.0
 10
155.658361
 20
180.247156
 30
0.0
 10
155.442380
 20
179.725731
 30
0.0
 10
155.057930
 20
179.341281
 30
0.0
  0
SPLINE
  5
252
100
AcDbEntity
  8
DecoupeLaser
 62
7
100
AcDbSpline
 70
8
 71
3
 72
8
 73
4
 74
0
 40
0
 40
0
 40
0
 40
0
 40
1
 40
1
 40
1
 40
1
 10
155.057930
 20
179.341281
 30
0.0
 10
154.673481
 20
178.956832
 30
0.0
 10
154.152054
 20
178.740850
 30
0.0
 10
153.608360
 20
178.740850
 30
0.0
  0
SPLINE
  5
253
100
AcDbEntity
  8
DecoupeLaser
 62
7
100
AcDbSpline
 70
8
 71
3
 72
8
 73
4
 74
0
 40
0
 40
0
 40
0
 40
0
 40
1
 40
1
 40
1
 40
1
 10
153.608360
 20
178.740850
 30
0.0
 10
153.064666
 20
178.740850
 30
0.0
 10
152.543239
 20
178.956832
 30
0.0
 10
152.158790
 20
179.341281
 30
0.0
  0
SPLINE
  5
254
100
AcDbEntity
  8
DecoupeLaser
 62
7
100
AcDbSpline
 70
8
 71
3
 72
8
 73
4
 74
0
 40
0
 40
0
 40
0
 40
0
 40
1
 40
1
 40
1
 40
1
 10
152.158790
 20
179.341281
 30
0.0
 10
151.774340
 20
179.725731
 30
0.0
 10
151.558359
 20
180.247156
 30
0.0
 10
151.558360
 20
180.790850
 30
0.0
  0
SPLINE
  5
255
100
AcDbEntity
  8
DecoupeLaser
 62
7
100
AcDbSpline
 70
8
 71
3
 72
8
 73
4
 74
0
 40
0
 40
0
 40
0
 40
0
 40
1
 40
1
 40
1
 40
1
 10
151.558360
 20
180.790850
 30
0.0
 10
151.558359
 20
181.334544
 30
0.0
 10
151.774340
 20
181.855969
 30
0.0
 10
152.158790
 20
182.240419
 30
0.0
  0
SPLINE
  5
256
100
AcDbEntity
  8
DecoupeLaser
 62
7
100
AcDbSpline
 70
8
 71
3
 72
8
 73
4
 74
0
 40
0
 40
0
 40
0
 40
0
 40
1
 40
1
 40
1
 40
1
 10
152.158790
 20
182.240419
 30
0.0
 10
152.543239
 20
182.624869
 30
0.0
 10
153.064666
 20
182.840850
 30
0.0
 10
153.608360
 20
182.840850
 30
0.0
  0
SPLINE
  5
257
100
AcDbEntity
  8
DecoupeLaser
 62
7
100
AcDbSpline
 70
8
 71
3
 72
8
 73
4
 74
0
 40
0
 40
0
 40
0
 40
0
 40
1
 40
1
 40
1
 40
1
 10
153.608360
 20
182.840850
 30
0.0
 10
154.152054
 20
182.840850
 30
0.0
 10
154.673481
 20
182.624869
 30
0.0
 10
155.057930
 20
182.240419
 30
0.0
  0
SPLINE
  5
258
100
AcDbEntity
  8
DecoupeLaser
 62
7
100
AcDbSpline
 70
8
 71
3
 72
8
 73
4
 74
0
 40
0
 40
0
 40
0
 40
0
 40
1
 40
1
 40
1
 40
1
 10
155.057930
 20
182.240419
 30
0.0
 10
155.442380
 20
181.855969
 30
0.0
 10
155.658361
 20
181.334544
 30
0.0
 10
155.658360
 20
180.790850
 30
0.0
  0
LINE
  5
259
100
AcDbEntity
  8
DecoupeLaser
 62
7
100
AcDbLine
 10
155.658360
 20
180.790850
 30
0.0
 11
155.658360
 21
180.790850
 31
0.0
  0
SPLINE
  5
25a
100
AcDbEntity
  8
DecoupeLaser
 62
7
100
AcDbSpline
 70
8
 71
3
 72
8
 73
4
 74
0
 40
0
 40
0
 40
0
 40
0
 40
1
 40
1
 40
1
 40
1
 10
155.658360
 20
201.957522
 30
0.0
 10
155.658360
 20
201.413828
 30
0.0
 10
155.442378
 20
200.892403
 30
0.0
 10
155.057929
 20
200.507953
 30
0.0
  0
SPLINE
  5
25b
100
AcDbEntity
  8
DecoupeLaser
 62
7
100
AcDbSpline
 70
8
 71
3
 72
8
 73
4
 74
0
 40
0
 40
0
 40
0
 40
0
 40
1
 40
1
 40
1
 40
1
 10
155.057929
 20
200.507953
 30
0.0
 10
154.673479
 20
200.123503
 30
0.0
 10
154.152054
 20
199.907522
 30
0.0
 10
153.608360
 20
199.907522
 30
0.0
  0
SPLINE
  5
25c
100
AcDbEntity
  8
DecoupeLaser
 62
7
100
AcDbSpline
 70
8
 71
3
 72
8
 73
4
 74
0
 40
0
 40
0
 40
0
 40
0
 40
1
 40
1
 40
1
 40
1
 10
153.608360
 20
199.907522
 30
0.0
 10
153.064666
 20
199.907522
 30
0.0
 10
152.543241
 20
200.123503
 30
0.0
 10
152.158791
 20
200.507953
 30
0.0
  0
SPLINE
  5
25d
100
AcDbEntity
  8
DecoupeLaser
 62
7
100
AcDbSpline
 70
8
 71
3
 72
8
 73
4
 74
0
 40
0
 40
0
 40
0
 40
0
 40
1
 40
1
 40
1
 40
1
 10
152.158791
 20
200.507953
 30
0.0
 10
151.774342
 20
200.892403
 30
0.0
 10
151.558360
 20
201.413828
 30
0.0
 10
151.558360
 20
201.957522
 30
0.0
  0
SPLINE
  5
25e
100
AcDbEntity
  8
DecoupeLaser
 62
7
100
AcDbSpline
 70
8
 71
3
 72
8
 73
4
 74
0
 40
0
 40
0
 40
0
 40
0
 40
1
 40
1
 40
1
 40
1
 10
151.558360
 20
201.957522
 30
0.0
 10
151.558360
 20
202.501216
 30
0.0
 10
151.774342
 20
203.022641
 30
0.0
 10
152.158791
 20
203.407091
 30
0.0
  0
SPLINE
  5
25f
100
AcDbEntity
  8
DecoupeLaser
 62
7
100
AcDbSpline
 70
8
 71
3
 72
8
 73
4
 74
0
 40
0
 40
0
 40
0
 40
0
 40
1
 40
1
 40
1
 40
1
 10
152.158791
 20
203.407091
 30
0.0
 10
152.543241
 20
203.791541
 30
0.0
 10
153.064666
 20
204.007522
 30
0.0
 10
153.608360
 20
204.007522
 30
0.0
  0
SPLINE
  5
260
100
AcDbEntity
  8
DecoupeLaser
 62
7
100
AcDbSpline
 70
8
 71
3
 72
8
 73
4
 74
0
 40
0
 40
0
 40
0
 40
0
 40
1
 40
1
 40
1
 40
1
 10
153.608360
 20
204.007522
 30
0.0
 10
154.152054
 20
204.007522
 30
0.0
 10
154.673479
 20
203.791541
 30
0.0
 10
155.057929
 20
203.407091
 30
0.0
  0
SPLINE
  5
261
100
AcDbEntity
  8
DecoupeLaser
 62
7
100
AcDbSpline
 70
8
 71
3
 72
8
 73
4
 74
0
 40
0
 40
0
 40
0
 40
0
 40
1
 40
1
 40
1
 40
1
 10
155.057929
 20
203.407091
 30
0.0
 10
155.442378
 20
203.022641
 30
0.0
 10
155.658360
 20
202.501216
 30
0.0
 10
155.658360
 20
201.957522
 30
0.0
  0
LINE
  5
262
100
AcDbEntity
  8
DecoupeLaser
 62
7
100
AcDbLine
 10
155.658360
 20
201.957522
 30
0.0
 11
155.658360
 21
201.957522
 31
0.0
  0
SPLINE
  5
263
100
AcDbEntity
  8
DecoupeLaser
 62
7
100
AcDbSpline
 70
8
 71
3
 72
8
 73
4
 74
0
 40
0
 40
0
 40
0
 40
0
 40
1
 40
1
 40
1
 40
1
 10
155.658360
 20
180.790850
 30
0.0
 10
155.658361
 20
180.247156
 30
0.0
 10
155.442380
 20
179.725731
 30
0.0
 10
155.057930
 20
179.341281
 30
0.0
  0
SPLINE
  5
264
100
AcDbEntity
  8
DecoupeLaser
 62
7
100
AcDbSpline
 70
8
 71
3
 72
8
 73
4
 74
0
 40
0
 40
0
 40
0
 40
0
 40
1
 40
1
 40
1
 40
1
 10
155.057930
 20
179.341281
 30
0.0
 10
154.673481
 20
178.956832
 30
0.0
 10
154.152054
 20
178.740850
 30
0.0
 10
153.608360
 20
178.740850
 30
0.0
  0
SPLINE
  5
265
100
AcDbEntity
  8
DecoupeLaser
 62
7
100
AcDbSpline
 70
8
 71
3
 72
8
 73
4
 74
0
 40
0
 40
0
 40
0
 40
0
 40
1
 40
1
 40
1
 40
1
 10
153.608360
 20
178.740850
 30
0.0
 10
153.064666
 20
178.740850
 30
0.0
 10
152.543239
 20
178.956832
 30
0.0
 10
152.158790
 20
179.341281
 30
0.0
  0
SPLINE
  5
266
100
AcDbEntity
  8
DecoupeLaser
 62
7
100
AcDbSpline
 70
8
 71
3
 72
8
 73
4
 74
0
 40
0
 40
0
 40
0
 40
0
 40
1
 40
1
 40
1
 40
1
 10
152.158790
 20
179.341281
 30
0.0
 10
151.774340
 20
179.725731
 30
0.0
 10
151.558359
 20
180.247156
 30
0.0
 10
151.558360
 20
180.790850
 30
0.0
  0
SPLINE
  5
267
100
AcDbEntity
  8
DecoupeLaser
 62
7
100
AcDbSpline
 70
8
 71
3
 72
8
 73
4
 74
0
 40
0
 40
0
 40
0
 40
0
 40
1
 40
1
 40
1
 40
1
 10
151.558360
 20
180.790850
 30
0.0
 10
151.558359
 20
181.334544
 30
0.0
 10
151.774340
 20
181.855969
 30
0.0
 10
152.158790
 20
182.240419
 30
0.0
  0
SPLINE
  5
268
100
AcDbEntity
  8
DecoupeLaser
 62
7
100
AcDbSpline
 70
8
 71
3
 72
8
 73
4
 74
0
 40
0
 40
0
 40
0
 40
0
 40
1
 40
1
 40
1
 40
1
 10
152.158790
 20
182.240419
 30
0.0
 10
152.543239
 20
182.624869
 30
0.0
 10
153.064666
 20
182.840850
 30
0.0
 10
153.608360
 20
182.840850
 30
0.0
  0
SPLINE
  5
269
100
AcDbEntity
  8
DecoupeLaser
 62
7
100
AcDbSpline
 70
8
 71
3
 72
8
 73
4
 74
0
 40
0
 40
0
 40
0
 40
0
 40
1
 40
1
 40
1
 40
1
 10
153.608360
 20
182.840850
 30
0.0
 10
154.152054
 20
182.840850
 30
0.0
 10
154.673481
 20
182.624869
 30
0.0
 10
155.057930
 20
182.240419
 30
0.0
  0
SPLINE
  5
26a
100
AcDbEntity
  8
DecoupeLaser
 62
7
100
AcDbSpline
 70
8
 71
3
 72
8
 73
4
 74
0
 40
0
 40
0
 40
0
 40
0
 40
1
 40
1
 40
1
 40
1
 10
155.057930
 20
182.240419
 30
0.0
 10
155.442380
 20
181.855969
 30
0.0
 10
155.658361
 20
181.334544
 30
0.0
 10
155.658360
 20
180.790850
 30
0.0
  0
LINE
  5
26b
100
AcDbEntity
  8
DecoupeLaser
 62
7
100
AcDbLine
 10
155.658360
 20
180.790850
 30
0.0
 11
155.658360
 21
180.790850
 31
0.0
  0
LINE
  5
26c
100
AcDbEntity
  8
DecoupeLaser
 62
7
100
AcDbLine
 10
50.000000
 20
172.361690
 30
0.0
 11
90.000000
 21
172.361690
 31
0.0
  0
LINE
  5
26d
100
AcDbEntity
  8
DecoupeLaser
 62
7
100
AcDbLine
 10
90.000000
 20
172.361690
 30
0.0
 11
90.000000
 21
137.361690
 31
0.0
  0
LINE
  5
26e
100
AcDbEntity
  8
DecoupeLaser
 62
7
100
AcDbLine
 10
90.000000
 20
137.361690
 30
0.0
 11
50.000000
 21
137.361690
 31
0.0
  0
LINE
  5
26f
100
AcDbEntity
  8
DecoupeLaser
 62
7
100
AcDbLine
 10
50.000000
 20
137.361690
 30
0.0
 11
50.000000
 21
172.361690
 31
0.0
  0
SPLINE
  5
270
100
AcDbEntity
  8
DecoupeLaser
 62
7
100
AcDbSpline
 70
8
 71
3
 72
8
 73
4
 74
0
 40
0
 40
0
 40
0
 40
0
 40
1
 40
1
 40
1
 40
1
 10
72.050000
 20
165.445010
 30
0.0
 10
72.050000
 20
164.901316
 30
0.0
 10
71.834018
 20
164.379891
 30
0.0
 10
71.449569
 20
163.995441
 30
0.0
  0
SPLINE
  5
271
100
AcDbEntity
  8
DecoupeLaser
 62
7
100
AcDbSpline
 70
8
 71
3
 72
8
 73
4
 74
0
 40
0
 40
0
 40
0
 40
0
 40
1
 40
1
 40
1
 40
1
 10
71.449569
 20
163.995441
 30
0.0
 10
71.065119
 20
163.610991
 30
0.0
 10
70.543694
 20
163.395010
 30
0.0
 10
70.000000
 20
163.395010
 30
0.0
  0
SPLINE
  5
272
100
AcDbEntity
  8
DecoupeLaser
 62
7
100
AcDbSpline
 70
8
 71
3
 72
8
 73
4
 74
0
 40
0
 40
0
 40
0
 40
0
 40
1
 40
1
 40
1
 40
1
 10
70.000000
 20
163.395010
 30
0.0
 10
69.456306
 20
163.395010
 30
0.0
 10
68.934881
 20
163.610991
 30
0.0
 10
68.550431
 20
163.995441
 30
0.0
  0
SPLINE
  5
273
100
AcDbEntity
  8
DecoupeLaser
 62
7
100
AcDbSpline
 70
8
 71
3
 72
8
 73
4
 74
0
 40
0
 40
0
 40
0
 40
0
 40
1
 40
1
 40
1
 40
1
 10
68.550431
 20
163.995441
 30
0.0
 10
68.165982
 20
164.379891
 30
0.0
 10
67.950000
 20
164.901316
 30
0.0
 10
67.950000
 20
165.445010
 30
0.0
  0
SPLINE
  5
274
100
AcDbEntity
  8
DecoupeLaser
 62
7
100
AcDbSpline
 70
8
 71
3
 72
8
 73
4
 74
0
 40
0
 40
0
 40
0
 40
0
 40
1
 40
1
 40
1
 40
1
 10
67.950000
 20
165.445010
 30
0.0
 10
67.950000
 20
165.988704
 30
0.0
 10
68.165982
 20
166.510129
 30
0.0
 10
68.550431
 20
166.894579
 30
0.0
  0
SPLINE
  5
275
100
AcDbEntity
  8
DecoupeLaser
 62
7
100
AcDbSpline
 70
8
 71
3
 72
8
 73
4
 74
0
 40
0
 40
0
 40
0
 40
0
 40
1
 40
1
 40
1
 40
1
 10
68.550431
 20
166.894579
 30
0.0
 10
68.934881
 20
167.279029
 30
0.0
 10
69.456306
 20
167.495010
 30
0.0
 10
70.000000
 20
167.495010
 30
0.0
  0
SPLINE
  5
276
100
AcDbEntity
  8
DecoupeLaser
 62
7
100
AcDbSpline
 70
8
 71
3
 72
8
 73
4
 74
0
 40
0
 40
0
 40
0
 40
0
 40
1
 40
1
 40
1
 40
1
 10
70.000000
 20
167.495010
 30
0.0
 10
70.543694
 20
167.495010
 30
0.0
 10
71.065119
 20
167.279029
 30
0.0
 10
71.449569
 20
166.894579
 30
0.0
  0
SPLINE
  5
277
100
AcDbEntity
  8
DecoupeLaser
 62
7
100
AcDbSpline
 70
8
 71
3
 72
8
 73
4
 74
0
 40
0
 40
0
 40
0
 40
0
 40
1
 40
1
 40
1
 40
1
 10
71.449569
 20
166.894579
 30
0.0
 10
71.834018
 20
166.510129
 30
0.0
 10
72.050000
 20
165.988704
 30
0.0
 10
72.050000
 20
165.445010
 30
0.0
  0
LINE
  5
278
100
AcDbEntity
  8
DecoupeLaser
 62
7
100
AcDbLine
 10
72.050000
 20
165.445010
 30
0.0
 11
72.050000
 21
165.445010
 31
0.0
  0
SPLINE
  5
279
100
AcDbEntity
  8
DecoupeLaser
 62
7
100
AcDbSpline
 70
8
 71
3
 72
8
 73
4
 74
0
 40
0
 40
0
 40
0
 40
0
 40
1
 40
1
 40
1
 40
1
 10
72.050000
 20
144.278330
 30
0.0
 10
72.050001
 20
143.734636
 30
0.0
 10
71.834020
 20
143.213211
 30
0.0
 10
71.449570
 20
142.828761
 30
0.0
  0
SPLINE
  5
27a
100
AcDbEntity
  8
DecoupeLaser
 62
7
100
AcDbSpline
 70
8
 71
3
 72
8
 73
4
 74
0
 40
0
 40
0
 40
0
 40
0
 40
1
 40
1
 40
1
 40
1
 10
71.449570
 20
142.828761
 30
0.0
 10
71.065121
 20
142.444312
 30
0.0
 10
70.543694
 20
142.228330
 30
0.0
 10
70.000000
 20
142.228330
 30
0.0
  0
SPLINE
  5
27b
100
AcDbEntity
  8
DecoupeLaser
 62
7
100
AcDbSpline
 70
8
 71
3
 72
8
 73
4
 74
0
 40
0
 40
0
 40
0
 40
0
 40
1
 40
1
 40
1
 40
1
 10
70.000000
 20
142.228330
 30
0.0
 10
69.456306
 20
142.228330
 30
0.0
 10
68.934879
 20
142.444312
 30
0.0
 10
68.550430
 20
142.828761
 30
0.0
  0
SPLINE
  5
27c
100
AcDbEntity
  8
DecoupeLaser
 62
7
100
AcDbSpline
 70
8
 71
3
 72
8
 73
4
 74
0
 40
0
 40
0
 40
0
 40
0
 40
1
 40
1
 40
1
 40
1
 10
68.550430
 20
142.828761
 30
0.0
 10
68.165980
 20
143.213211
 30
0.0
 10
67.949999
 20
143.734636
 30
0.0
 10
67.950000
 20
144.278330
 30
0.0
  0
SPLINE
  5
27d
100
AcDbEntity
  8
DecoupeLaser
 62
7
100
AcDbSpline
 70
8
 71
3
 72
8
 73
4
 74
0
 40
0
 40
0
 40
0
 40
0
 40
1
 40
1
 40
1
 40
1
 10
67.950000
 20
144.278330
 30
0.0
 10
67.949999
 20
144.822024
 30
0.0
 10
68.165980
 20
145.343449
 30
0.0
 10
68.550430
 20
145.727899
 30
0.0
  0
SPLINE
  5
27e
100
AcDbEntity
  8
DecoupeLaser
 62
7
100
AcDbSpline
 70
8
 71
3
 72
8
 73
4
 74
0
 40
0
 40
0
 40
0
 40
0
 40
1
 40
1
 40
1
 40
1
 10
68.550430
 20
145.727899
 30
0.0
 10
68.934879
 20
146.112349
 30
0.0
 10
69.456306
 20
146.328330
 30
0.0
 10
70.000000
 20
146.328330
 30
0.0
  0
SPLINE
  5
27f
100
AcDbEntity
  8
DecoupeLaser
 62
7
100
AcDbSpline
 70
8
 71
3
 72
8
 73
4
 74
0
 40
0
 40
0
 40
0
 40
0
 40
1
 40
1
 40
1
 40
1
 10
70.000000
 20
146.328330
 30
0.0
 10
70.543694
 20
146.328330
 30
0.0
 10
71.065121
 20
146.112349
 30
0.0
 10
71.449570
 20
145.727899
 30
0.0
  0
SPLINE
  5
280
100
AcDbEntity
  8
DecoupeLaser
 62
7
100
AcDbSpline
 70
8
 71
3
 72
8
 73
4
 74
0
 40
0
 40
0
 40
0
 40
0
 40
1
 40
1
 40
1
 40
1
 10
71.449570
 20
145.727899
 30
0.0
 10
71.834020
 20
145.343449
 30
0.0
 10
72.050001
 20
144.822024
 30
0.0
 10
72.050000
 20
144.278330
 30
0.0
  0
LINE
  5
281
100
AcDbEntity
  8
DecoupeLaser
 62
7
100
AcDbLine
 10
72.050000
 20
144.278330
 30
0.0
 11
72.050000
 21
144.278330
 31
0.0
  0
SPLINE
  5
282
100
AcDbEntity
  8
DecoupeLaser
 62
7
100
AcDbSpline
 70
8
 71
3
 72
8
 73
4
 74
0
 40
0
 40
0
 40
0
 40
0
 40
1
 40
1
 40
1
 40
1
 10
72.050000
 20
165.445010
 30
0.0
 10
72.050000
 20
164.901316
 30
0.0
 10
71.834018
 20
164.379891
 30
0.0
 10
71.449569
 20
163.995441
 30
0.0
  0
SPLINE
  5
283
100
AcDbEntity
  8
DecoupeLaser
 62
7
100
AcDbSpline
 70
8
 71
3
 72
8
 73
4
 74
0
 40
0
 40
0
 40
0
 40
0
 40
1
 40
1
 40
1
 40
1
 10
71.449569
 20
163.995441
 30
0.0
 10
71.065119
 20
163.610991
 30
0.0
 10
70.543694
 20
163.395010
 30
0.0
 10
70.000000
 20
163.395010
 30
0.0
  0
SPLINE
  5
284
100
AcDbEntity
  8
DecoupeLaser
 62
7
100
AcDbSpline
 70
8
 71
3
 72
8
 73
4
 74
0
 40
0
 40
0
 40
0
 40
0
 40
1
 40
1
 40
1
 40
1
 10
70.000000
 20
163.395010
 30
0.0
 10
69.456306
 20
163.395010
 30
0.0
 10
68.934881
 20
163.610991
 30
0.0
 10
68.550431
 20
163.995441
 30
0.0
  0
SPLINE
  5
285
100
AcDbEntity
  8
DecoupeLaser
 62
7
100
AcDbSpline
 70
8
 71
3
 72
8
 73
4
 74
0
 40
0
 40
0
 40
0
 40
0
 40
1
 40
1
 40
1
 40
1
 10
68.550431
 20
163.995441
 30
0.0
 10
68.165982
 20
164.379891
 30
0.0
 10
67.950000
 20
164.901316
 30
0.0
 10
67.950000
 20
165.445010
 30
0.0
  0
SPLINE
  5
286
100
AcDbEntity
  8
DecoupeLaser
 62
7
100
AcDbSpline
 70
8
 71
3
 72
8
 73
4
 74
0
 40
0
 40
0
 40
0
 40
0
 40
1
 40
1
 40
1
 40
1
 10
67.950000
 20
165.445010
 30
0.0
 10
67.950000
 20
165.988704
 30
0.0
 10
68.165982
 20
166.510129
 30
0.0
 10
68.550431
 20
166.894579
 30
0.0
  0
SPLINE
  5
287
100
AcDbEntity
  8
DecoupeLaser
 62
7
100
AcDbSpline
 70
8
 71
3
 72
8
 73
4
 74
0
 40
0
 40
0
 40
0
 40
0
 40
1
 40
1
 40
1
 40
1
 10
68.550431
 20
166.894579
 30
0.0
 10
68.934881
 20
167.279029
 30
0.0
 10
69.456306
 20
167.495010
 30
0.0
 10
70.000000
 20
167.495010
 30
0.0
  0
SPLINE
  5
288
100
AcDbEntity
  8
DecoupeLaser
 62
7
100
AcDbSpline
 70
8
 71
3
 72
8
 73
4
 74
0
 40
0
 40
0
 40
0
 40
0
 40
1
 40
1
 40
1
 40
1
 10
70.000000
 20
167.495010
 30
0.0
 10
70.543694
 20
167.495010
 30
0.0
 10
71.065119
 20
167.279029
 30
0.0
 10
71.449569
 20
166.894579
 30
0.0
  0
SPLINE
  5
289
100
AcDbEntity
  8
DecoupeLaser
 62
7
100
AcDbSpline
 70
8
 71
3
 72
8
 73
4
 74
0
 40
0
 40
0
 40
0
 40
0
 40
1
 40
1
 40
1
 40
1
 10
71.449569
 20
166.894579
 30
0.0
 10
71.834018
 20
166.510129
 30
0.0
 10
72.050000
 20
165.988704
 30
0.0
 10
72.050000
 20
165.445010
 30
0.0
  0
LINE
  5
28a
100
AcDbEntity
  8
DecoupeLaser
 62
7
100
AcDbLine
 10
72.050000
 20
165.445010
 30
0.0
 11
72.050000
 21
165.445010
 31
0.0
  0
SPLINE
  5
28b
100
AcDbEntity
  8
DecoupeLaser
 62
7
100
AcDbSpline
 70
8
 71
3
 72
8
 73
4
 74
0
 40
0
 40
0
 40
0
 40
0
 40
1
 40
1
 40
1
 40
1
 10
72.050000
 20
144.278330
 30
0.0
 10
72.050001
 20
143.734636
 30
0.0
 10
71.834020
 20
143.213211
 30
0.0
 10
71.449570
 20
142.828761
 30
0.0
  0
SPLINE
  5
28c
100
AcDbEntity
  8
DecoupeLaser
 62
7
100
AcDbSpline
 70
8
 71
3
 72
8
 73
4
 74
0
 40
0
 40
0
 40
0
 40
0
 40
1
 40
1
 40
1
 40
1
 10
71.449570
 20
142.828761
 30
0.0
 10
71.065121
 20
142.444312
 30
0.0
 10
70.543694
 20
142.228330
 30
0.0
 10
70.000000
 20
142.228330
 30
0.0
  0
SPLINE
  5
28d
100
AcDbEntity
  8
DecoupeLaser
 62
7
100
AcDbSpline
 70
8
 71
3
 72
8
 73
4
 74
0
 40
0
 40
0
 40
0
 40
0
 40
1
 40
1
 40
1
 40
1
 10
70.000000
 20
142.228330
 30
0.0
 10
69.456306
 20
142.228330
 30
0.0
 10
68.934879
 20
142.444312
 30
0.0
 10
68.550430
 20
142.828761
 30
0.0
  0
SPLINE
  5
28e
100
AcDbEntity
  8
DecoupeLaser
 62
7
100
AcDbSpline
 70
8
 71
3
 72
8
 73
4
 74
0
 40
0
 40
0
 40
0
 40
0
 40
1
 40
1
 40
1
 40
1
 10
68.550430
 20
142.828761
 30
0.0
 10
68.165980
 20
143.213211
 30
0.0
 10
67.949999
 20
143.734636
 30
0.0
 10
67.950000
 20
144.278330
 30
0.0
  0
SPLINE
  5
28f
100
AcDbEntity
  8
DecoupeLaser
 62
7
100
AcDbSpline
 70
8
 71
3
 72
8
 73
4
 74
0
 40
0
 40
0
 40
0
 40
0
 40
1
 40
1
 40
1
 40
1
 10
67.950000
 20
144.278330
 30
0.0
 10
67.949999
 20
144.822024
 30
0.0
 10
68.165980
 20
145.343449
 30
0.0
 10
68.550430
 20
145.727899
 30
0.0
  0
SPLINE
  5
290
100
AcDbEntity
  8
DecoupeLaser
 62
7
100
AcDbSpline
 70
8
 71
3
 72
8
 73
4
 74
0
 40
0
 40
0
 40
0
 40
0
 40
1
 40
1
 40
1
 40
1
 10
68.550430
 20
145.727899
 30
0.0
 10
68.934879
 20
146.112349
 30
0.0
 10
69.456306
 20
146.328330
 30
0.0
 10
70.000000
 20
146.328330
 30
0.0
  0
SPLINE
  5
291
100
AcDbEntity
  8
DecoupeLaser
 62
7
100
AcDbSpline
 70
8
 71
3
 72
8
 73
4
 74
0
 40
0
 40
0
 40
0
 40
0
 40
1
 40
1
 40
1
 40
1
 10
70.000000
 20
146.328330
 30
0.0
 10
70.543694
 20
146.328330
 30
0.0
 10
71.065121
 20
146.112349
 30
0.0
 10
71.449570
 20
145.727899
 30
0.0
  0
SPLINE
  5
292
100
AcDbEntity
  8
DecoupeLaser
 62
7
100
AcDbSpline
 70
8
 71
3
 72
8
 73
4
 74
0
 40
0
 40
0
 40
0
 40
0
 40
1
 40
1
 40
1
 40
1
 10
71.449570
 20
145.727899
 30
0.0
 10
71.834020
 20
145.343449
 30
0.0
 10
72.050001
 20
144.822024
 30
0.0
 10
72.050000
 20
144.278330
 30
0.0
  0
LINE
  5
293
100
AcDbEntity
  8
DecoupeLaser
 62
7
100
AcDbLine
 10
72.050000
 20
144.278330
 30
0.0
 11
72.050000
 21
144.278330
 31
0.0
  0
LINE
  5
294
100
AcDbEntity
  8
DecoupeLaser
 62
7
100
AcDbLine
 10
91.274986
 20
172.361690
 30
0.0
 11
131.274986
 21
172.361690
 31
0.0
  0
LINE
  5
295
100
AcDbEntity
  8
DecoupeLaser
 62
7
100
AcDbLine
 10
131.274986
 20
172.361690
 30
0.0
 11
131.274986
 21
137.361690
 31
0.0
  0
LINE
  5
296
100
AcDbEntity
  8
DecoupeLaser
 62
7
100
AcDbLine
 10
131.274986
 20
137.361690
 30
0.0
 11
91.274986
 21
137.361690
 31
0.0
  0
LINE
  5
297
100
AcDbEntity
  8
DecoupeLaser
 62
7
100
AcDbLine
 10
91.274986
 20
137.361690
 30
0.0
 11
91.274986
 21
172.361690
 31
0.0
  0
SPLINE
  5
298
100
AcDbEntity
  8
DecoupeLaser
 62
7
100
AcDbSpline
 70
8
 71
3
 72
8
 73
4
 74
0
 40
0
 40
0
 40
0
 40
0
 40
1
 40
1
 40
1
 40
1
 10
113.325000
 20
165.445010
 30
0.0
 10
113.325000
 20
164.901316
 30
0.0
 10
113.109018
 20
164.379891
 30
0.0
 10
112.724569
 20
163.995441
 30
0.0
  0
SPLINE
  5
299
100
AcDbEntity
  8
DecoupeLaser
 62
7
100
AcDbSpline
 70
8
 71
3
 72
8
 73
4
 74
0
 40
0
 40
0
 40
0
 40
0
 40
1
 40
1
 40
1
 40
1
 10
112.724569
 20
163.995441
 30
0.0
 10
112.340119
 20
163.610991
 30
0.0
 10
111.818694
 20
163.395010
 30
0.0
 10
111.275000
 20
163.395010
 30
0.0
  0
SPLINE
  5
29a
100
AcDbEntity
  8
DecoupeLaser
 62
7
100
AcDbSpline
 70
8
 71
3
 72
8
 73
4
 74
0
 40
0
 40
0
 40
0
 40
0
 40
1
 40
1
 40
1
 40
1
 10
111.275000
 20
163.395010
 30
0.0
 10
110.731306
 20
163.395010
 30
0.0
 10
110.209881
 20
163.610991
 30
0.0
 10
109.825431
 20
163.995441
 30
0.0
  0
SPLINE
  5
29b
100
AcDbEntity
  8
DecoupeLaser
 62
7
100
AcDbSpline
 70
8
 71
3
 72
8
 73
4
 74
0
 40
0
 40
0
 40
0
 40
0
 40
1
 40
1
 40
1
 40
1
 10
109.825431
 20
163.995441
 30
0.0
 10
109.440982
 20
164.379891
 30
0.0
 10
109.225000
 20
164.901316
 30
0.0
 10
109.225000
 20
165.445010
 30
0.0
  0
SPLINE
  5
29c
100
AcDbEntity
  8
DecoupeLaser
 62
7
100
AcDbSpline
 70
8
 71
3
 72
8
 73
4
 74
0
 40
0
 40
0
 40
0
 40
0
 40
1
 40
1
 40
1
 40
1
 10
109.225000
 20
165.445010
 30
0.0
 10
109.225000
 20
165.988704
 30
0.0
 10
109.440982
 20
166.510129
 30
0.0
 10
109.825431
 20
166.894579
 30
0.0
  0
SPLINE
  5
29d
100
AcDbEntity
  8
DecoupeLaser
 62
7
100
AcDbSpline
 70
8
 71
3
 72
8
 73
4
 74
0
 40
0
 40
0
 40
0
 40
0
 40
1
 40
1
 40
1
 40
1
 10
109.825431
 20
166.894579
 30
0.0
 10
110.209881
 20
167.279029
 30
0.0
 10
110.731306
 20
167.495010
 30
0.0
 10
111.275000
 20
167.495010
 30
0.0
  0
SPLINE
  5
29e
100
AcDbEntity
  8
DecoupeLaser
 62
7
100
AcDbSpline
 70
8
 71
3
 72
8
 73
4
 74
0
 40
0
 40
0
 40
0
 40
0
 40
1
 40
1
 40
1
 40
1
 10
111.275000
 20
167.495010
 30
0.0
 10
111.818694
 20
167.495010
 30
0.0
 10
112.340119
 20
167.279029
 30
0.0
 10
112.724569
 20
166.894579
 30
0.0
  0
SPLINE
  5
29f
100
AcDbEntity
  8
DecoupeLaser
 62
7
100
AcDbSpline
 70
8
 71
3
 72
8
 73
4
 74
0
 40
0
 40
0
 40
0
 40
0
 40
1
 40
1
 40
1
 40
1
 10
112.724569
 20
166.894579
 30
0.0
 10
113.109018
 20
166.510129
 30
0.0
 10
113.325000
 20
165.988704
 30
0.0
 10
113.325000
 20
165.445010
 30
0.0
  0
LINE
  5
2a0
100
AcDbEntity
  8
DecoupeLaser
 62
7
100
AcDbLine
 10
113.325000
 20
165.445010
 30
0.0
 11
113.325000
 21
165.445010
 31
0.0
  0
SPLINE
  5
2a1
100
AcDbEntity
  8
DecoupeLaser
 62
7
100
AcDbSpline
 70
8
 71
3
 72
8
 73
4
 74
0
 40
0
 40
0
 40
0
 40
0
 40
1
 40
1
 40
1
 40
1
 10
113.325000
 20
144.278330
 30
0.0
 10
113.325001
 20
143.734636
 30
0.0
 10
113.109020
 20
143.213211
 30
0.0
 10
112.724570
 20
142.828761
 30
0.0
  0
SPLINE
  5
2a2
100
AcDbEntity
  8
DecoupeLaser
 62
7
100
AcDbSpline
 70
8
 71
3
 72
8
 73
4
 74
0
 40
0
 40
0
 40
0
 40
0
 40
1
 40
1
 40
1
 40
1
 10
112.724570
 20
142.828761
 30
0.0
 10
112.340121
 20
142.444312
 30
0.0
 10
111.818694
 20
142.228330
 30
0.0
 10
111.275000
 20
142.228330
 30
0.0
  0
SPLINE
  5
2a3
100
AcDbEntity
  8
DecoupeLaser
 62
7
100
AcDbSpline
 70
8
 71
3
 72
8
 73
4
 74
0
 40
0
 40
0
 40
0
 40
0
 40
1
 40
1
 40
1
 40
1
 10
111.275000
 20
142.228330
 30
0.0
 10
110.731306
 20
142.228330
 30
0.0
 10
110.209879
 20
142.444312
 30
0.0
 10
109.825430
 20
142.828761
 30
0.0
  0
SPLINE
  5
2a4
100
AcDbEntity
  8
DecoupeLaser
 62
7
100
AcDbSpline
 70
8
 71
3
 72
8
 73
4
 74
0
 40
0
 40
0
 40
0
 40
0
 40
1
 40
1
 40
1
 40
1
 10
109.825430
 20
142.828761
 30
0.0
 10
109.440980
 20
143.213211
 30
0.0
 10
109.224999
 20
143.734636
 30
0.0
 10
109.225000
 20
144.278330
 30
0.0
  0
SPLINE
  5
2a5
100
AcDbEntity
  8
DecoupeLaser
 62
7
100
AcDbSpline
 70
8
 71
3
 72
8
 73
4
 74
0
 40
0
 40
0
 40
0
 40
0
 40
1
 40
1
 40
1
 40
1
 10
109.225000
 20
144.278330
 30
0.0
 10
109.224999
 20
144.822024
 30
0.0
 10
109.440980
 20
145.343449
 30
0.0
 10
109.825430
 20
145.727899
 30
0.0
  0
SPLINE
  5
2a6
100
AcDbEntity
  8
DecoupeLaser
 62
7
100
AcDbSpline
 70
8
 71
3
 72
8
 73
4
 74
0
 40
0
 40
0
 40
0
 40
0
 40
1
 40
1
 40
1
 40
1
 10
109.825430
 20
145.727899
 30
0.0
 10
110.209879
 20
146.112349
 30
0.0
 10
110.731306
 20
146.328330
 30
0.0
 10
111.275000
 20
146.328330
 30
0.0
  0
SPLINE
  5
2a7
100
AcDbEntity
  8
DecoupeLaser
 62
7
100
AcDbSpline
 70
8
 71
3
 72
8
 73
4
 74
0
 40
0
 40
0
 40
0
 40
0
 40
1
 40
1
 40
1
 40
1
 10
111.275000
 20
146.328330
 30
0.0
 10
111.818694
 20
146.328330
 30
0.0
 10
112.340121
 20
146.112349
 30
0.0
 10
112.724570
 20
145.727899
 30
0.0
  0
SPLINE
  5
2a8
100
AcDbEntity
  8
DecoupeLaser
 62
7
100
AcDbSpline
 70
8
 71
3
 72
8
 73
4
 74
0
 40
0
 40
0
 40
0
 40
0
 40
1
 40
1
 40
1
 40
1
 10
112.724570
 20
145.727899
 30
0.0
 10
113.109020
 20
145.343449
 30
0.0
 10
113.325001
 20
144.822024
 30
0.0
 10
113.325000
 20
144.278330
 30
0.0
  0
LINE
  5
2a9
100
AcDbEntity
  8
DecoupeLaser
 62
7
100
AcDbLine
 10
113.325000
 20
144.278330
 30
0.0
 11
113.325000
 21
144.278330
 31
0.0
  0
SPLINE
  5
2aa
100
AcDbEntity
  8
DecoupeLaser
 62
7
100
AcDbSpline
 70
8
 71
3
 72
8
 73
4
 74
0
 40
0
 40
0
 40
0
 40
0
 40
1
 40
1
 40
1
 40
1
 10
113.325000
 20
165.445010
 30
0.0
 10
113.325000
 20
164.901316
 30
0.0
 10
113.109018
 20
164.379891
 30
0.0
 10
112.724569
 20
163.995441
 30
0.0
  0
SPLINE
  5
2ab
100
AcDbEntity
  8
DecoupeLaser
 62
7
100
AcDbSpline
 70
8
 71
3
 72
8
 73
4
 74
0
 40
0
 40
0
 40
0
 40
0
 40
1
 40
1
 40
1
 40
1
 10
112.724569
 20
163.995441
 30
0.0
 10
112.340119
 20
163.610991
 30
0.0
 10
111.818694
 20
163.395010
 30
0.0
 10
111.275000
 20
163.395010
 30
0.0
  0
SPLINE
  5
2ac
100
AcDbEntity
  8
DecoupeLaser
 62
7
100
AcDbSpline
 70
8
 71
3
 72
8
 73
4
 74
0
 40
0
 40
0
 40
0
 40
0
 40
1
 40
1
 40
1
 40
1
 10
111.275000
 20
163.395010
 30
0.0
 10
110.731306
 20
163.395010
 30
0.0
 10
110.209881
 20
163.610991
 30
0.0
 10
109.825431
 20
163.995441
 30
0.0
  0
SPLINE
  5
2ad
100
AcDbEntity
  8
DecoupeLaser
 62
7
100
AcDbSpline
 70
8
 71
3
 72
8
 73
4
 74
0
 40
0
 40
0
 40
0
 40
0
 40
1
 40
1
 40
1
 40
1
 10
109.825431
 20
163.995441
 30
0.0
 10
109.440982
 20
164.379891
 30
0.0
 10
109.225000
 20
164.901316
 30
0.0
 10
109.225000
 20
165.445010
 30
0.0
  0
SPLINE
  5
2ae
100
AcDbEntity
  8
DecoupeLaser
 62
7
100
AcDbSpline
 70
8
 71
3
 72
8
 73
4
 74
0
 40
0
 40
0
 40
0
 40
0
 40
1
 40
1
 40
1
 40
1
 10
109.225000
 20
165.445010
 30
0.0
 10
109.225000
 20
165.988704
 30
0.0
 10
109.440982
 20
166.510129
 30
0.0
 10
109.825431
 20
166.894579
 30
0.0
  0
SPLINE
  5
2af
100
AcDbEntity
  8
DecoupeLaser
 62
7
100
AcDbSpline
 70
8
 71
3
 72
8
 73
4
 74
0
 40
0
 40
0
 40
0
 40
0
 40
1
 40
1
 40
1
 40
1
 10
109.825431
 20
166.894579
 30
0.0
 10
110.209881
 20
167.279029
 30
0.0
 10
110.731306
 20
167.495010
 30
0.0
 10
111.275000
 20
167.495010
 30
0.0
  0
SPLINE
  5
2b0
100
AcDbEntity
  8
DecoupeLaser
 62
7
100
AcDbSpline
 70
8
 71
3
 72
8
 73
4
 74
0
 40
0
 40
0
 40
0
 40
0
 40
1
 40
1
 40
1
 40
1
 10
111.275000
 20
167.495010
 30
0.0
 10
111.818694
 20
167.495010
 30
0.0
 10
112.340119
 20
167.279029
 30
0.0
 10
112.724569
 20
166.894579
 30
0.0
  0
SPLINE
  5
2b1
100
AcDbEntity
  8
DecoupeLaser
 62
7
100
AcDbSpline
 70
8
 71
3
 72
8
 73
4
 74
0
 40
0
 40
0
 40
0
 40
0
 40
1
 40
1
 40
1
 40
1
 10
112.724569
 20
166.894579
 30
0.0
 10
113.109018
 20
166.510129
 30
0.0
 10
113.325000
 20
165.988704
 30
0.0
 10
113.325000
 20
165.445010
 30
0.0
  0
LINE
  5
2b2
100
AcDbEntity
  8
DecoupeLaser
 62
7
100
AcDbLine
 10
113.325000
 20
165.445010
 30
0.0
 11
113.325000
 21
165.445010
 31
0.0
  0
SPLINE
  5
2b3
100
AcDbEntity
  8
DecoupeLaser
 62
7
100
AcDbSpline
 70
8
 71
3
 72
8
 73
4
 74
0
 40
0
 40
0
 40
0
 40
0
 40
1
 40
1
 40
1
 40
1
 10
113.325000
 20
144.278330
 30
0.0
 10
113.325001
 20
143.734636
 30
0.0
 10
113.109020
 20
143.213211
 30
0.0
 10
112.724570
 20
142.828761
 30
0.0
  0
SPLINE
  5
2b4
100
AcDbEntity
  8
DecoupeLaser
 62
7
100
AcDbSpline
 70
8
 71
3
 72
8
 73
4
 74
0
 40
0
 40
0
 40
0
 40
0
 40
1
 40
1
 40
1
 40
1
 10
112.724570
 20
142.828761
 30
0.0
 10
112.340121
 20
142.444312
 30
0.0
 10
111.818694
 20
142.228330
 30
0.0
 10
111.275000
 20
142.228330
 30
0.0
  0
SPLINE
  5
2b5
100
AcDbEntity
  8
DecoupeLaser
 62
7
100
AcDbSpline
 70
8
 71
3
 72
8
 73
4
 74
0
 40
0
 40
0
 40
0
 40
0
 40
1
 40
1
 40
1
 40
1
 10
111.275000
 20
142.228330
 30
0.0
 10
110.731306
 20
142.228330
 30
0.0
 10
110.209879
 20
142.444312
 30
0.0
 10
109.825430
 20
142.828761
 30
0.0
  0
SPLINE
  5
2b6
100
AcDbEntity
  8
DecoupeLaser
 62
7
100
AcDbSpline
 70
8
 71
3
 72
8
 73
4
 74
0
 40
0
 40
0
 40
0
 40
0
 40
1
 40
1
 40
1
 40
1
 10
109.825430
 20
142.828761
 30
0.0
 10
109.440980
 20
143.213211
 30
0.0
 10
109.224999
 20
143.734636
 30
0.0
 10
109.225000
 20
144.278330
 30
0.0
  0
SPLINE
  5
2b7
100
AcDbEntity
  8
DecoupeLaser
 62
7
100
AcDbSpline
 70
8
 71
3
 72
8
 73
4
 74
0
 40
0
 40
0
 40
0
 40
0
 40
1
 40
1
 40
1
 40
1
 10
109.225000
 20
144.278330
 30
0.0
 10
109.224999
 20
144.822024
 30
0.0
 10
109.440980
 20
145.343449
 30
0.0
 10
109.825430
 20
145.727899
 30
0.0
  0
SPLINE
  5
2b8
100
AcDbEntity
  8
DecoupeLaser
 62
7
100
AcDbSpline
 70
8
 71
3
 72
8
 73
4
 74
0
 40
0
 40
0
 40
0
 40
0
 40
1
 40
1
 40
1
 40
1
 10
109.825430
 20
145.727899
 30
0.0
 10
110.209879
 20
146.112349
 30
0.0
 10
110.731306
 20
146.328330
 30
0.0
 10
111.275000
 20
146.328330
 30
0.0
  0
SPLINE
  5
2b9
100
AcDbEntity
  8
DecoupeLaser
 62
7
100
AcDbSpline
 70
8
 71
3
 72
8
 73
4
 74
0
 40
0
 40
0
 40
0
 40
0
 40
1
 40
1
 40
1
 40
1
 10
111.275000
 20
146.328330
 30
0.0
 10
111.818694
 20
146.328330
 30
0.0
 10
112.340121
 20
146.112349
 30
0.0
 10
112.724570
 20
145.727899
 30
0.0
  0
SPLINE
  5
2ba
100
AcDbEntity
  8
DecoupeLaser
 62
7
100
AcDbSpline
 70
8
 71
3
 72
8
 73
4
 74
0
 40
0
 40
0
 40
0
 40
0
 40
1
 40
1
 40
1
 40
1
 10
112.724570
 20
145.727899
 30
0.0
 10
113.109020
 20
145.343449
 30
0.0
 10
113.325001
 20
144.822024
 30
0.0
 10
113.325000
 20
144.278330
 30
0.0
  0
LINE
  5
2bb
100
AcDbEntity
  8
DecoupeLaser
 62
7
100
AcDbLine
 10
113.325000
 20
144.278330
 30
0.0
 11
113.325000
 21
144.278330
 31
0.0
  0
LINE
  5
2bc
100
AcDbEntity
  8
DecoupeLaser
 62
7
100
AcDbLine
 10
133.608310
 20
172.361690
 30
0.0
 11
173.608310
 21
172.361690
 31
0.0
  0
LINE
  5
2bd
100
AcDbEntity
  8
DecoupeLaser
 62
7
100
AcDbLine
 10
173.608310
 20
172.361690
 30
0.0
 11
173.608310
 21
137.361690
 31
0.0
  0
LINE
  5
2be
100
AcDbEntity
  8
DecoupeLaser
 62
7
100
AcDbLine
 10
173.608310
 20
137.361690
 30
0.0
 11
133.608310
 21
137.361690
 31
0.0
  0
LINE
  5
2bf
100
AcDbEntity
  8
DecoupeLaser
 62
7
100
AcDbLine
 10
133.608310
 20
137.361690
 30
0.0
 11
133.608310
 21
172.361690
 31
0.0
  0
SPLINE
  5
2c0
100
AcDbEntity
  8
DecoupeLaser
 62
7
100
AcDbSpline
 70
8
 71
3
 72
8
 73
4
 74
0
 40
0
 40
0
 40
0
 40
0
 40
1
 40
1
 40
1
 40
1
 10
155.658360
 20
165.445010
 30
0.0
 10
155.658360
 20
164.901316
 30
0.0
 10
155.442378
 20
164.379891
 30
0.0
 10
155.057929
 20
163.995441
 30
0.0
  0
SPLINE
  5
2c1
100
AcDbEntity
  8
DecoupeLaser
 62
7
100
AcDbSpline
 70
8
 71
3
 72
8
 73
4
 74
0
 40
0
 40
0
 40
0
 40
0
 40
1
 40
1
 40
1
 40
1
 10
155.057929
 20
163.995441
 30
0.0
 10
154.673479
 20
163.610991
 30
0.0
 10
154.152054
 20
163.395010
 30
0.0
 10
153.608360
 20
163.395010
 30
0.0
  0
SPLINE
  5
2c2
100
AcDbEntity
  8
DecoupeLaser
 62
7
100
AcDbSpline
 70
8
 71
3
 72
8
 73
4
 74
0
 40
0
 40
0
 40
0
 40
0
 40
1
 40
1
 40
1
 40
1
 10
153.608360
 20
163.395010
 30
0.0
 10
153.064666
 20
163.395010
 30
0.0
 10
152.543241
 20
163.610991
 30
0.0
 10
152.158791
 20
163.995441
 30
0.0
  0
SPLINE
  5
2c3
100
AcDbEntity
  8
DecoupeLaser
 62
7
100
AcDbSpline
 70
8
 71
3
 72
8
 73
4
 74
0
 40
0
 40
0
 40
0
 40
0
 40
1
 40
1
 40
1
 40
1
 10
152.158791
 20
163.995441
 30
0.0
 10
151.774342
 20
164.379891
 30
0.0
 10
151.558360
 20
164.901316
 30
0.0
 10
151.558360
 20
165.445010
 30
0.0
  0
SPLINE
  5
2c4
100
AcDbEntity
  8
DecoupeLaser
 62
7
100
AcDbSpline
 70
8
 71
3
 72
8
 73
4
 74
0
 40
0
 40
0
 40
0
 40
0
 40
1
 40
1
 40
1
 40
1
 10
151.558360
 20
165.445010
 30
0.0
 10
151.558360
 20
165.988704
 30
0.0
 10
151.774342
 20
166.510129
 30
0.0
 10
152.158791
 20
166.894579
 30
0.0
  0
SPLINE
  5
2c5
100
AcDbEntity
  8
DecoupeLaser
 62
7
100
AcDbSpline
 70
8
 71
3
 72
8
 73
4
 74
0
 40
0
 40
0
 40
0
 40
0
 40
1
 40
1
 40
1
 40
1
 10
152.158791
 20
166.894579
 30
0.0
 10
152.543241
 20
167.279029
 30
0.0
 10
153.064666
 20
167.495010
 30
0.0
 10
153.608360
 20
167.495010
 30
0.0
  0
SPLINE
  5
2c6
100
AcDbEntity
  8
DecoupeLaser
 62
7
100
AcDbSpline
 70
8
 71
3
 72
8
 73
4
 74
0
 40
0
 40
0
 40
0
 40
0
 40
1
 40
1
 40
1
 40
1
 10
153.608360
 20
167.495010
 30
0.0
 10
154.152054
 20
167.495010
 30
0.0
 10
154.673479
 20
167.279029
 30
0.0
 10
155.057929
 20
166.894579
 30
0.0
  0
SPLINE
  5
2c7
100
AcDbEntity
  8
DecoupeLaser
 62
7
100
AcDbSpline
 70
8
 71
3
 72
8
 73
4
 74
0
 40
0
 40
0
 40
0
 40
0
 40
1
 40
1
 40
1
 40
1
 10
155.057929
 20
166.894579
 30
0.0
 10
155.442378
 20
166.510129
 30
0.0
 10
155.658360
 20
165.988704
 30
0.0
 10
155.658360
 20
165.445010
 30
0.0
  0
LINE
  5
2c8
100
AcDbEntity
  8
DecoupeLaser
 62
7
100
AcDbLine
 10
155.658360
 20
165.445010
 30
0.0
 11
155.658360
 21
165.445010
 31
0.0
  0
SPLINE
  5
2c9
100
AcDbEntity
  8
DecoupeLaser
 62
7
100
AcDbSpline
 70
8
 71
3
 72
8
 73
4
 74
0
 40
0
 40
0
 40
0
 40
0
 40
1
 40
1
 40
1
 40
1
 10
155.658360
 20
144.278330
 30
0.0
 10
155.658361
 20
143.734636
 30
0.0
 10
155.442380
 20
143.213211
 30
0.0
 10
155.057930
 20
142.828761
 30
0.0
  0
SPLINE
  5
2ca
100
AcDbEntity
  8
DecoupeLaser
 62
7
100
AcDbSpline
 70
8
 71
3
 72
8
 73
4
 74
0
 40
0
 40
0
 40
0
 40
0
 40
1
 40
1
 40
1
 40
1
 10
155.057930
 20
142.828761
 30
0.0
 10
154.673481
 20
142.444312
 30
0.0
 10
154.152054
 20
142.228330
 30
0.0
 10
153.608360
 20
142.228330
 30
0.0
  0
SPLINE
  5
2cb
100
AcDbEntity
  8
DecoupeLaser
 62
7
100
AcDbSpline
 70
8
 71
3
 72
8
 73
4
 74
0
 40
0
 40
0
 40
0
 40
0
 40
1
 40
1
 40
1
 40
1
 10
153.608360
 20
142.228330
 30
0.0
 10
153.064666
 20
142.228330
 30
0.0
 10
152.543239
 20
142.444312
 30
0.0
 10
152.158790
 20
142.828761
 30
0.0
  0
SPLINE
  5
2cc
100
AcDbEntity
  8
DecoupeLaser
 62
7
100
AcDbSpline
 70
8
 71
3
 72
8
 73
4
 74
0
 40
0
 40
0
 40
0
 40
0
 40
1
 40
1
 40
1
 40
1
 10
152.158790
 20
142.828761
 30
0.0
 10
151.774340
 20
143.213211
 30
0.0
 10
151.558359
 20
143.734636
 30
0.0
 10
151.558360
 20
144.278330
 30
0.0
  0
SPLINE
  5
2cd
100
AcDbEntity
  8
DecoupeLaser
 62
7
100
AcDbSpline
 70
8
 71
3
 72
8
 73
4
 74
0
 40
0
 40
0
 40
0
 40
0
 40
1
 40
1
 40
1
 40
1
 10
151.558360
 20
144.278330
 30
0.0
 10
151.558359
 20
144.822024
 30
0.0
 10
151.774340
 20
145.343449
 30
0.0
 10
152.158790
 20
145.727899
 30
0.0
  0
SPLINE
  5
2ce
100
AcDbEntity
  8
DecoupeLaser
 62
7
100
AcDbSpline
 70
8
 71
3
 72
8
 73
4
 74
0
 40
0
 40
0
 40
0
 40
0
 40
1
 40
1
 40
1
 40
1
 10
152.158790
 20
145.727899
 30
0.0
 10
152.543239
 20
146.112349
 30
0.0
 10
153.064666
 20
146.328330
 30
0.0
 10
153.608360
 20
146.328330
 30
0.0
  0
SPLINE
  5
2cf
100
AcDbEntity
  8
DecoupeLaser
 62
7
100
AcDbSpline
 70
8
 71
3
 72
8
 73
4
 74
0
 40
0
 40
0
 40
0
 40
0
 40
1
 40
1
 40
1
 40
1
 10
153.608360
 20
146.328330
 30
0.0
 10
154.152054
 20
146.328330
 30
0.0
 10
154.673481
 20
146.112349
 30
0.0
 10
155.057930
 20
145.727899
 30
0.0
  0
SPLINE
  5
2d0
100
AcDbEntity
  8
DecoupeLaser
 62
7
100
AcDbSpline
 70
8
 71
3
 72
8
 73
4
 74
0
 40
0
 40
0
 40
0
 40
0
 40
1
 40
1
 40
1
 40
1
 10
155.057930
 20
145.727899
 30
0.0
 10
155.442380
 20
145.343449
 30
0.0
 10
155.658361
 20
144.822024
 30
0.0
 10
155.658360
 20
144.278330
 30
0.0
  0
LINE
  5
2d1
100
AcDbEntity
  8
DecoupeLaser
 62
7
100
AcDbLine
 10
155.658360
 20
144.278330
 30
0.0
 11
155.658360
 21
144.278330
 31
0.0
  0
SPLINE
  5
2d2
100
AcDbEntity
  8
DecoupeLaser
 62
7
100
AcDbSpline
 70
8
 71
3
 72
8
 73
4
 74
0
 40
0
 40
0
 40
0
 40
0
 40
1
 40
1
 40
1
 40
1
 10
155.658360
 20
165.445010
 30
0.0
 10
155.658360
 20
164.901316
 30
0.0
 10
155.442378
 20
164.379891
 30
0.0
 10
155.057929
 20
163.995441
 30
0.0
  0
SPLINE
  5
2d3
100
AcDbEntity
  8
DecoupeLaser
 62
7
100
AcDbSpline
 70
8
 71
3
 72
8
 73
4
 74
0
 40
0
 40
0
 40
0
 40
0
 40
1
 40
1
 40
1
 40
1
 10
155.057929
 20
163.995441
 30
0.0
 10
154.673479
 20
163.610991
 30
0.0
 10
154.152054
 20
163.395010
 30
0.0
 10
153.608360
 20
163.395010
 30
0.0
  0
SPLINE
  5
2d4
100
AcDbEntity
  8
DecoupeLaser
 62
7
100
AcDbSpline
 70
8
 71
3
 72
8
 73
4
 74
0
 40
0
 40
0
 40
0
 40
0
 40
1
 40
1
 40
1
 40
1
 10
153.608360
 20
163.395010
 30
0.0
 10
153.064666
 20
163.395010
 30
0.0
 10
152.543241
 20
163.610991
 30
0.0
 10
152.158791
 20
163.995441
 30
0.0
  0
SPLINE
  5
2d5
100
AcDbEntity
  8
DecoupeLaser
 62
7
100
AcDbSpline
 70
8
 71
3
 72
8
 73
4
 74
0
 40
0
 40
0
 40
0
 40
0
 40
1
 40
1
 40
1
 40
1
 10
152.158791
 20
163.995441
 30
0.0
 10
151.774342
 20
164.379891
 30
0.0
 10
151.558360
 20
164.901316
 30
0.0
 10
151.558360
 20
165.445010
 30
0.0
  0
SPLINE
  5
2d6
100
AcDbEntity
  8
DecoupeLaser
 62
7
100
AcDbSpline
 70
8
 71
3
 72
8
 73
4
 74
0
 40
0
 40
0
 40
0
 40
0
 40
1
 40
1
 40
1
 40
1
 10
151.558360
 20
165.445010
 30
0.0
 10
151.558360
 20
165.988704
 30
0.0
 10
151.774342
 20
166.510129
 30
0.0
 10
152.158791
 20
166.894579
 30
0.0
  0
SPLINE
  5
2d7
100
AcDbEntity
  8
DecoupeLaser
 62
7
100
AcDbSpline
 70
8
 71
3
 72
8
 73
4
 74
0
 40
0
 40
0
 40
0
 40
0
 40
1
 40
1
 40
1
 40
1
 10
152.158791
 20
166.894579
 30
0.0
 10
152.543241
 20
167.279029
 30
0.0
 10
153.064666
 20
167.495010
 30
0.0
 10
153.608360
 20
167.495010
 30
0.0
  0
SPLINE
  5
2d8
100
AcDbEntity
  8
DecoupeLaser
 62
7
100
AcDbSpline
 70
8
 71
3
 72
8
 73
4
 74
0
 40
0
 40
0
 40
0
 40
0
 40
1
 40
1
 40
1
 40
1
 10
153.608360
 20
167.495010
 30
0.0
 10
154.152054
 20
167.495010
 30
0.0
 10
154.673479
 20
167.279029
 30
0.0
 10
155.057929
 20
166.894579
 30
0.0
  0
SPLINE
  5
2d9
100
AcDbEntity
  8
DecoupeLaser
 62
7
100
AcDbSpline
 70
8
 71
3
 72
8
 73
4
 74
0
 40
0
 40
0
 40
0
 40
0
 40
1
 40
1
 40
1
 40
1
 10
155.057929
 20
166.894579
 30
0.0
 10
155.442378
 20
166.510129
 30
0.0
 10
155.658360
 20
165.988704
 30
0.0
 10
155.658360
 20
165.445010
 30
0.0
  0
LINE
  5
2da
100
AcDbEntity
  8
DecoupeLaser
 62
7
100
AcDbLine
 10
155.658360
 20
165.445010
 30
0.0
 11
155.658360
 21
165.445010
 31
0.0
  0
SPLINE
  5
2db
100
AcDbEntity
  8
DecoupeLaser
 62
7
100
AcDbSpline
 70
8
 71
3
 72
8
 73
4
 74
0
 40
0
 40
0
 40
0
 40
0
 40
1
 40
1
 40
1
 40
1
 10
155.658360
 20
144.278330
 30
0.0
 10
155.658361
 20
143.734636
 30
0.0
 10
155.442380
 20
143.213211
 30
0.0
 10
155.057930
 20
142.828761
 30
0.0
  0
SPLINE
  5
2dc
100
AcDbEntity
  8
DecoupeLaser
 62
7
100
AcDbSpline
 70
8
 71
3
 72
8
 73
4
 74
0
 40
0
 40
0
 40
0
 40
0
 40
1
 40
1
 40
1
 40
1
 10
155.057930
 20
142.828761
 30
0.0
 10
154.673481
 20
142.444312
 30
0.0
 10
154.152054
 20
142.228330
 30
0.0
 10
153.608360
 20
142.228330
 30
0.0
  0
SPLINE
  5
2dd
100
AcDbEntity
  8
DecoupeLaser
 62
7
100
AcDbSpline
 70
8
 71
3
 72
8
 73
4
 74
0
 40
0
 40
0
 40
0
 40
0
 40
1
 40
1
 40
1
 40
1
 10
153.608360
 20
142.228330
 30
0.0
 10
153.064666
 20
142.228330
 30
0.0
 10
152.543239
 20
142.444312
 30
0.0
 10
152.158790
 20
142.828761
 30
0.0
  0
SPLINE
  5
2de
100
AcDbEntity
  8
DecoupeLaser
 62
7
100
AcDbSpline
 70
8
 71
3
 72
8
 73
4
 74
0
 40
0
 40
0
 40
0
 40
0
 40
1
 40
1
 40
1
 40
1
 10
152.158790
 20
142.828761
 30
0.0
 10
151.774340
 20
143.213211
 30
0.0
 10
151.558359
 20
143.734636
 30
0.0
 10
151.558360
 20
144.278330
 30
0.0
  0
SPLINE
  5
2df
100
AcDbEntity
  8
DecoupeLaser
 62
7
100
AcDbSpline
 70
8
 71
3
 72
8
 73
4
 74
0
 40
0
 40
0
 40
0
 40
0
 40
1
 40
1
 40
1
 40
1
 10
151.558360
 20
144.278330
 30
0.0
 10
151.558359
 20
144.822024
 30
0.0
 10
151.774340
 20
145.343449
 30
0.0
 10
152.158790
 20
145.727899
 30
0.0
  0
SPLINE
  5
2e0
100
AcDbEntity
  8
DecoupeLaser
 62
7
100
AcDbSpline
 70
8
 71
3
 72
8
 73
4
 74
0
 40
0
 40
0
 40
0
 40
0
 40
1
 40
1
 40
1
 40
1
 10
152.158790
 20
145.727899
 30
0.0
 10
152.543239
 20
146.112349
 30
0.0
 10
153.064666
 20
146.328330
 30
0.0
 10
153.608360
 20
146.328330
 30
0.0
  0
SPLINE
  5
2e1
100
AcDbEntity
  8
DecoupeLaser
 62
7
100
AcDbSpline
 70
8
 71
3
 72
8
 73
4
 74
0
 40
0
 40
0
 40
0
 40
0
 40
1
 40
1
 40
1
 40
1
 10
153.608360
 20
146.328330
 30
0.0
 10
154.152054
 20
146.328330
 30
0.0
 10
154.673481
 20
146.112349
 30
0.0
 10
155.057930
 20
145.727899
 30
0.0
  0
SPLINE
  5
2e2
100
AcDbEntity
  8
DecoupeLaser
 62
7
100
AcDbSpline
 70
8
 71
3
 72
8
 73
4
 74
0
 40
0
 40
0
 40
0
 40
0
 40
1
 40
1
 40
1
 40
1
 10
155.057930
 20
145.727899
 30
0.0
 10
155.442380
 20
145.343449
 30
0.0
 10
155.658361
 20
144.822024
 30
0.0
 10
155.658360
 20
144.278330
 30
0.0
  0
LINE
  5
2e3
100
AcDbEntity
  8
DecoupeLaser
 62
7
100
AcDbLine
 10
155.658360
 20
144.278330
 30
0.0
 11
155.658360
 21
144.278330
 31
0.0
  0
ENDSEC
  0
SECTION
  2
OBJECTS
  0
DICTIONARY
  5
C
330
0
100
AcDbDictionary
  3
ACAD_GROUP
350
D
  3
ACAD_MLINESTYLE
350
17
  0
DICTIONARY
  5
D
330
C
100
AcDbDictionary
  0
DICTIONARY
  5
1A
330
C
100
AcDbDictionary
  0
DICTIONARY
  5
17
330
C
100
AcDbDictionary
  3
STANDARD
350
18
  0
DICTIONARY
  5
19
330
C
100
AcDbDictionary
  0
ENDSEC
  0
EOF
