  0
SECTION
  2
HEADER
  9
$ACADVER
  1
AC1014
  9
$HANDSEED
  5
FFFF
  9
$MEASUREMENT
 70
     1
  0
ENDSEC
  0
SECTION
  2
TABLES
  0
TABLE
  2
VPORT
  5
8
330
0
100
AcDbSymbolTable
 70
     4
  0
VPORT
  5
2E
330
8
100
AcDbSymbolTableRecord
100
AcDbViewportTableRecord
  2
*ACTIVE
 70
     0
 10
0.0
 20
0.0
 11
1.0
 21
1.0
 12
210.0
 22
148.5
 13
0.0
 23
0.0
 14
10.0
 24
10.0
 15
10.0
 25
10.0
 16
0.0
 26
0.0
 36
1.0
 17
0.0
 27
0.0
 37
0.0
 40
341.0
 41
1.24
 42
50.0
 43
0.0
 44
0.0
 50
0.0
 51
0.0
 71
     0
 72
   100
 73
     1
 74
     3
 75
     0
 76
     0
 77
     0
 78
     0
  0
ENDTAB
  0
TABLE
  2
LTYPE
  5
5
330
0
100
AcDbSymbolTable
 70
     1
  0
LTYPE
  5
14
330
5
100
AcDbSymbolTableRecord
100
AcDbLinetypeTableRecord
  2
BYBLOCK
 70
     0
  3

 72
    65
 73
     0
 40
0.0
  0
LTYPE
  5
15
330
5
100
AcDbSymbolTableRecord
100
AcDbLinetypeTableRecord
  2
BYLAYER
 70
     0
  3

 72
    65
 73
     0
 40
0.0
  0
LTYPE
  5
16
330
5
100
AcDbSymbolTableRecord
100
AcDbLinetypeTableRecord
  2
CONTINUOUS
 70
     0
  3
Solid line
 72
    65
 73
     0
 40
0.0
  0
ENDTAB
  0
TABLE
  2
LAYER
  5
2
100
AcDbSymbolTable
 70
2
  0
LAYER
  5
50
100
AcDbSymbolTableRecord
100
AcDbLayerTableRecord
  2
0
 70
0
  6
CONTINUOUS
  0
LAYER
  5
51
100
AcDbSymbolTableRecord
100
AcDbLayerTableRecord
  2
Calque_1
 70
0
  6
CONTINUOUS
  0
ENDTAB
  0
TABLE
  2
STYLE
  5
3
330
0
100
AcDbSymbolTable
 70
     1
  0
STYLE
  5
11
330
3
100
AcDbSymbolTableRecord
100
AcDbTextStyleTableRecord
  2
STANDARD
 70
     0
 40
0.0
 41
1.0
 50
0.0
 71
     0
 42
2.5
  3
txt
  4

  0
ENDTAB
  0
TABLE
  2
VIEW
  5
6
330
0
100
AcDbSymbolTable
 70
     0
  0
ENDTAB
  0
TABLE
  2
UCS
  5
7
330
0
100
AcDbSymbolTable
 70
     0
  0
ENDTAB
  0
TABLE
  2
APPID
  5
9
330
0
100
AcDbSymbolTable
 70
     2
  0
APPID
  5
12
330
9
100
AcDbSymbolTableRecord
100
AcDbRegAppTableRecord
  2
ACAD
 70
     0
  0
ENDTAB
  0
TABLE
  2
DIMSTYLE
  5
A
330
0
100
AcDbSymbolTable
 70
     1
  0
DIMSTYLE
105
27
330
A
100
AcDbSymbolTableRecord
100
AcDbDimStyleTableRecord
  2
ISO-25
 70
     0
  3

  4

  5

  6

  7

 40
1.0
 41
2.5
 42
0.625
 43
3.75
 44
1.25
 45
0.0
 46
0.0
 47
0.0
 48
0.0
140
2.5
141
2.5
142
0.0
143
0.03937007874016
144
1.0
145
0.0
146
1.0
147
0.625
 71
     0
 72
     0
 73
     0
 74
     0
 75
     0
 76
     0
 77
     1
 78
     8
170
     0
171
     3
172
     1
173
     0
174
     0
175
     0
176
     0
177
     0
178
     0
270
     2
271
     2
272
     2
273
     2
274
     3
340
11
275
     0
280
     0
281
     0
282
     0
283
     0
284
     8
285
     0
286
     0
287
     3
288
     0
  0
ENDTAB
  0
TABLE
  2
BLOCK_RECORD
  5
1
330
0
100
AcDbSymbolTable
 70
     1
  0
BLOCK_RECORD
  5
1F
330
1
100
AcDbSymbolTableRecord
100
AcDbBlockTableRecord
  2
*MODEL_SPACE
  0
BLOCK_RECORD
  5
1B
330
1
100
AcDbSymbolTableRecord
100
AcDbBlockTableRecord
  2
*PAPER_SPACE
  0
ENDTAB
  0
ENDSEC
  0
SECTION
  2
BLOCKS
  0
BLOCK
  5
20
330
1F
100
AcDbEntity
  8
0
100
AcDbBlockBegin
  2
*MODEL_SPACE
 70
     0
 10
0.0
 20
0.0
 30
0.0
  3
*MODEL_SPACE
  1

  0
ENDBLK
  5
21
330
1F
100
AcDbEntity
  8
0
100
AcDbBlockEnd
  0
BLOCK
  5
1C
330
1B
100
AcDbEntity
 67
     1
  8
0
100
AcDbBlockBegin
  2
*PAPER_SPACE
  1

  0
ENDBLK
  5
1D
330
1B
100
AcDbEntity
 67
     1
  8
0
100
AcDbBlockEnd
  0
ENDSEC
  0
SECTION
  2
ENTITIES
  0
LINE
  5
100
100
AcDbEntity
  8
Calque_1
 62
1
100
AcDbLine
 10
0.222725
 20
53.328570
 30
0.0
 11
0.222725
 21
-24.671310
 31
0.0
  0
LINE
  5
101
100
AcDbEntity
  8
Calque_1
 62
1
100
AcDbLine
 10
0.222725
 20
-24.671310
 30
0.0
 11
95.222609
 21
-24.671310
 31
0.0
  0
LINE
  5
102
100
AcDbEntity
  8
Calque_1
 62
1
100
AcDbLine
 10
95.222609
 20
-24.671310
 30
0.0
 11
95.222609
 21
53.328570
 31
0.0
  0
LINE
  5
103
100
AcDbEntity
  8
Calque_1
 62
1
100
AcDbLine
 10
95.222609
 20
53.328570
 30
0.0
 11
0.222725
 21
53.328570
 31
0.0
  0
SPLINE
  5
104
100
AcDbEntity
  8
Calque_1
 62
1
100
AcDbSpline
 70
8
 71
3
 72
8
 73
4
 74
0
 40
0
 40
0
 40
0
 40
0
 40
1
 40
1
 40
1
 40
1
 10
47.722668
 20
43.828890
 30
0.0
 10
48.120549
 20
43.828934
 30
0.0
 10
48.502147
 20
43.670896
 30
0.0
 10
48.783492
 20
43.389552
 30
0.0
  0
SPLINE
  5
105
100
AcDbEntity
  8
Calque_1
 62
1
100
AcDbSpline
 70
8
 71
3
 72
8
 73
4
 74
0
 40
0
 40
0
 40
0
 40
0
 40
1
 40
1
 40
1
 40
1
 10
48.783492
 20
43.389552
 30
0.0
 10
49.064837
 20
43.108208
 30
0.0
 10
49.222876
 20
42.726611
 30
0.0
 10
49.222834
 20
42.328730
 30
0.0
  0
SPLINE
  5
106
100
AcDbEntity
  8
Calque_1
 62
1
100
AcDbSpline
 70
8
 71
3
 72
8
 73
4
 74
0
 40
0
 40
0
 40
0
 40
0
 40
1
 40
1
 40
1
 40
1
 10
49.222834
 20
42.328730
 30
0.0
 10
49.222879
 20
41.930847
 30
0.0
 10
49.064841
 20
41.549247
 30
0.0
 10
48.783496
 20
41.267901
 30
0.0
  0
SPLINE
  5
107
100
AcDbEntity
  8
Calque_1
 62
1
100
AcDbSpline
 70
8
 71
3
 72
8
 73
4
 74
0
 40
0
 40
0
 40
0
 40
0
 40
1
 40
1
 40
1
 40
1
 10
48.783496
 20
41.267901
 30
0.0
 10
48.502150
 20
40.986555
 30
0.0
 10
48.120551
 20
40.828516
 30
0.0
 10
47.722668
 20
40.828560
 30
0.0
  0
SPLINE
  5
108
100
AcDbEntity
  8
Calque_1
 62
1
100
AcDbSpline
 70
8
 71
3
 72
8
 73
4
 74
0
 40
0
 40
0
 40
0
 40
0
 40
1
 40
1
 40
1
 40
1
 10
47.722668
 20
40.828560
 30
0.0
 10
46.894311
 20
40.828753
 30
0.0
 10
46.222923
 20
41.500373
 30
0.0
 10
46.223017
 20
42.328730
 30
0.0
  0
SPLINE
  5
109
100
AcDbEntity
  8
Calque_1
 62
1
100
AcDbSpline
 70
8
 71
3
 72
8
 73
4
 74
0
 40
0
 40
0
 40
0
 40
0
 40
1
 40
1
 40
1
 40
1
 10
46.223017
 20
42.328730
 30
0.0
 10
46.222929
 20
43.157083
 30
0.0
 10
46.894315
 20
43.828697
 30
0.0
 10
47.722668
 20
43.828890
 30
0.0
  0
LINE
  5
10a
100
AcDbEntity
  8
Calque_1
 62
1
100
AcDbLine
 10
47.722668
 20
43.828890
 30
0.0
 11
47.722668
 21
43.828890
 31
0.0
  0
LINE
  5
10b
100
AcDbEntity
  8
Calque_1
 62
1
100
AcDbLine
 10
29.915487
 20
39.328910
 30
0.0
 11
36.958468
 21
39.328910
 31
0.0
  0
LINE
  5
10c
100
AcDbEntity
  8
Calque_1
 62
1
100
AcDbLine
 10
36.958468
 20
39.328910
 30
0.0
 11
36.958468
 21
36.329090
 31
0.0
  0
LINE
  5
10d
100
AcDbEntity
  8
Calque_1
 62
1
100
AcDbLine
 10
36.958468
 20
36.329090
 30
0.0
 11
29.915487
 21
36.329090
 31
0.0
  0
LINE
  5
10e
100
AcDbEntity
  8
Calque_1
 62
1
100
AcDbLine
 10
29.915487
 20
36.329090
 30
0.0
 11
29.915487
 21
39.328910
 31
0.0
  0
LINE
  5
10f
100
AcDbEntity
  8
Calque_1
 62
1
100
AcDbLine
 10
44.201437
 20
39.328910
 30
0.0
 11
51.243899
 21
39.328910
 31
0.0
  0
LINE
  5
110
100
AcDbEntity
  8
Calque_1
 62
1
100
AcDbLine
 10
51.243899
 20
39.328910
 30
0.0
 11
51.243899
 21
36.329090
 31
0.0
  0
LINE
  5
111
100
AcDbEntity
  8
Calque_1
 62
1
100
AcDbLine
 10
51.243899
 20
36.329090
 30
0.0
 11
44.201437
 21
36.329090
 31
0.0
  0
LINE
  5
112
100
AcDbEntity
  8
Calque_1
 62
1
100
AcDbLine
 10
44.201437
 20
36.329090
 30
0.0
 11
44.201437
 21
39.328910
 31
0.0
  0
LINE
  5
113
100
AcDbEntity
  8
Calque_1
 62
1
100
AcDbLine
 10
58.486867
 20
39.328910
 30
0.0
 11
65.529851
 21
39.328910
 31
0.0
  0
LINE
  5
114
100
AcDbEntity
  8
Calque_1
 62
1
100
AcDbLine
 10
65.529851
 20
39.328910
 30
0.0
 11
65.529851
 21
36.329090
 31
0.0
  0
LINE
  5
115
100
AcDbEntity
  8
Calque_1
 62
1
100
AcDbLine
 10
65.529851
 20
36.329090
 30
0.0
 11
58.486867
 21
36.329090
 31
0.0
  0
LINE
  5
116
100
AcDbEntity
  8
Calque_1
 62
1
100
AcDbLine
 10
58.486867
 20
36.329090
 30
0.0
 11
58.486867
 21
39.328910
 31
0.0
  0
LINE
  5
117
100
AcDbEntity
  8
Calque_1
 62
1
100
AcDbLine
 10
28.024129
 20
34.702830
 30
0.0
 11
66.845015
 21
34.702830
 31
0.0
  0
LINE
  5
118
100
AcDbEntity
  8
Calque_1
 62
1
100
AcDbLine
 10
66.845015
 20
34.702830
 30
0.0
 11
66.845015
 21
-5.296800
 31
0.0
  0
LINE
  5
119
100
AcDbEntity
  8
Calque_1
 62
1
100
AcDbLine
 10
66.845015
 20
-5.296800
 30
0.0
 11
28.024129
 21
-5.296800
 31
0.0
  0
LINE
  5
11a
100
AcDbEntity
  8
Calque_1
 62
1
100
AcDbLine
 10
28.024129
 20
-5.296800
 30
0.0
 11
28.024129
 21
34.702830
 31
0.0
  0
LINE
  5
11b
100
AcDbEntity
  8
Calque_1
 62
1
100
AcDbLine
 10
22.722644
 20
32.136070
 30
0.0
 11
25.722461
 21
32.136070
 31
0.0
  0
LINE
  5
11c
100
AcDbEntity
  8
Calque_1
 62
1
100
AcDbLine
 10
25.722461
 20
32.136070
 30
0.0
 11
25.722461
 21
25.093080
 31
0.0
  0
LINE
  5
11d
100
AcDbEntity
  8
Calque_1
 62
1
100
AcDbLine
 10
25.722461
 20
25.093080
 30
0.0
 11
22.722644
 21
25.093080
 31
0.0
  0
LINE
  5
11e
100
AcDbEntity
  8
Calque_1
 62
1
100
AcDbLine
 10
22.722644
 20
25.093080
 30
0.0
 11
22.722644
 21
32.136070
 31
0.0
  0
LINE
  5
11f
100
AcDbEntity
  8
Calque_1
 62
1
100
AcDbLine
 10
69.722875
 20
32.136070
 30
0.0
 11
72.722691
 21
32.136070
 31
0.0
  0
LINE
  5
120
100
AcDbEntity
  8
Calque_1
 62
1
100
AcDbLine
 10
72.722691
 20
32.136070
 30
0.0
 11
72.722691
 21
25.093080
 31
0.0
  0
LINE
  5
121
100
AcDbEntity
  8
Calque_1
 62
1
100
AcDbLine
 10
72.722691
 20
25.093080
 30
0.0
 11
69.722875
 21
25.093080
 31
0.0
  0
LINE
  5
122
100
AcDbEntity
  8
Calque_1
 62
1
100
AcDbLine
 10
69.722875
 20
25.093080
 30
0.0
 11
69.722875
 21
32.136070
 31
0.0
  0
LINE
  5
123
100
AcDbEntity
  8
Calque_1
 62
1
100
AcDbLine
 10
22.722644
 20
17.850110
 30
0.0
 11
25.722461
 21
17.850110
 31
0.0
  0
LINE
  5
124
100
AcDbEntity
  8
Calque_1
 62
1
100
AcDbLine
 10
25.722461
 20
17.850110
 30
0.0
 11
25.722461
 21
10.807650
 31
0.0
  0
LINE
  5
125
100
AcDbEntity
  8
Calque_1
 62
1
100
AcDbLine
 10
25.722461
 20
10.807650
 30
0.0
 11
22.722644
 21
10.807650
 31
0.0
  0
LINE
  5
126
100
AcDbEntity
  8
Calque_1
 62
1
100
AcDbLine
 10
22.722644
 20
10.807650
 30
0.0
 11
22.722644
 21
17.850110
 31
0.0
  0
LINE
  5
127
100
AcDbEntity
  8
Calque_1
 62
1
100
AcDbLine
 10
69.722875
 20
17.850110
 30
0.0
 11
72.722691
 21
17.850110
 31
0.0
  0
LINE
  5
128
100
AcDbEntity
  8
Calque_1
 62
1
100
AcDbLine
 10
72.722691
 20
17.850110
 30
0.0
 11
72.722691
 21
10.807650
 31
0.0
  0
LINE
  5
129
100
AcDbEntity
  8
Calque_1
 62
1
100
AcDbLine
 10
72.722691
 20
10.807650
 30
0.0
 11
69.722875
 21
10.807650
 31
0.0
  0
LINE
  5
12a
100
AcDbEntity
  8
Calque_1
 62
1
100
AcDbLine
 10
69.722875
 20
10.807650
 30
0.0
 11
69.722875
 21
17.850110
 31
0.0
  0
SPLINE
  5
12b
100
AcDbEntity
  8
Calque_1
 62
1
100
AcDbSpline
 70
8
 71
3
 72
8
 73
4
 74
0
 40
0
 40
0
 40
0
 40
0
 40
1
 40
1
 40
1
 40
1
 10
19.722827
 20
15.828540
 30
0.0
 10
20.551187
 20
15.828632
 30
0.0
 10
21.222806
 20
15.157240
 30
0.0
 10
21.222994
 20
14.328880
 30
0.0
  0
SPLINE
  5
12c
100
AcDbEntity
  8
Calque_1
 62
1
100
AcDbSpline
 70
8
 71
3
 72
8
 73
4
 74
0
 40
0
 40
0
 40
0
 40
0
 40
1
 40
1
 40
1
 40
1
 10
21.222994
 20
14.328880
 30
0.0
 10
21.223036
 20
13.930999
 30
0.0
 10
21.064997
 20
13.549401
 30
0.0
 10
20.783652
 20
13.268057
 30
0.0
  0
SPLINE
  5
12d
100
AcDbEntity
  8
Calque_1
 62
1
100
AcDbSpline
 70
8
 71
3
 72
8
 73
4
 74
0
 40
0
 40
0
 40
0
 40
0
 40
1
 40
1
 40
1
 40
1
 10
20.783652
 20
13.268057
 30
0.0
 10
20.502306
 20
12.986713
 30
0.0
 10
20.120708
 20
12.828676
 30
0.0
 10
19.722827
 20
12.828720
 30
0.0
  0
SPLINE
  5
12e
100
AcDbEntity
  8
Calque_1
 62
1
100
AcDbSpline
 70
8
 71
3
 72
8
 73
4
 74
0
 40
0
 40
0
 40
0
 40
0
 40
1
 40
1
 40
1
 40
1
 10
19.722827
 20
12.828720
 30
0.0
 10
19.324946
 20
12.828676
 30
0.0
 10
18.943348
 20
12.986713
 30
0.0
 10
18.662002
 20
13.268057
 30
0.0
  0
SPLINE
  5
12f
100
AcDbEntity
  8
Calque_1
 62
1
100
AcDbSpline
 70
8
 71
3
 72
8
 73
4
 74
0
 40
0
 40
0
 40
0
 40
0
 40
1
 40
1
 40
1
 40
1
 10
18.662002
 20
13.268057
 30
0.0
 10
18.380657
 20
13.549401
 30
0.0
 10
18.222618
 20
13.930999
 30
0.0
 10
18.222660
 20
14.328880
 30
0.0
  0
SPLINE
  5
130
100
AcDbEntity
  8
Calque_1
 62
1
100
AcDbSpline
 70
8
 71
3
 72
8
 73
4
 74
0
 40
0
 40
0
 40
0
 40
0
 40
1
 40
1
 40
1
 40
1
 10
18.222660
 20
14.328880
 30
0.0
 10
18.222848
 20
15.157240
 30
0.0
 10
18.894467
 20
15.828632
 30
0.0
 10
19.722827
 20
15.828540
 30
0.0
  0
LINE
  5
131
100
AcDbEntity
  8
Calque_1
 62
1
100
AcDbLine
 10
19.722827
 20
15.828540
 30
0.0
 11
19.722827
 21
15.828540
 31
0.0
  0
SPLINE
  5
132
100
AcDbEntity
  8
Calque_1
 62
1
100
AcDbSpline
 70
8
 71
3
 72
8
 73
4
 74
0
 40
0
 40
0
 40
0
 40
0
 40
1
 40
1
 40
1
 40
1
 10
75.722508
 20
15.828540
 30
0.0
 10
76.550867
 20
15.828632
 30
0.0
 10
77.222486
 20
15.157239
 30
0.0
 10
77.222674
 20
14.328880
 30
0.0
  0
SPLINE
  5
133
100
AcDbEntity
  8
Calque_1
 62
1
100
AcDbSpline
 70
8
 71
3
 72
8
 73
4
 74
0
 40
0
 40
0
 40
0
 40
0
 40
1
 40
1
 40
1
 40
1
 10
77.222674
 20
14.328880
 30
0.0
 10
77.222716
 20
13.930999
 30
0.0
 10
77.064677
 20
13.549402
 30
0.0
 10
76.783332
 20
13.268058
 30
0.0
  0
SPLINE
  5
134
100
AcDbEntity
  8
Calque_1
 62
1
100
AcDbSpline
 70
8
 71
3
 72
8
 73
4
 74
0
 40
0
 40
0
 40
0
 40
0
 40
1
 40
1
 40
1
 40
1
 10
76.783332
 20
13.268058
 30
0.0
 10
76.501987
 20
12.986714
 30
0.0
 10
76.120389
 20
12.828676
 30
0.0
 10
75.722508
 20
12.828720
 30
0.0
  0
SPLINE
  5
135
100
AcDbEntity
  8
Calque_1
 62
1
100
AcDbSpline
 70
8
 71
3
 72
8
 73
4
 74
0
 40
0
 40
0
 40
0
 40
0
 40
1
 40
1
 40
1
 40
1
 10
75.722508
 20
12.828720
 30
0.0
 10
74.894155
 20
12.828913
 30
0.0
 10
74.222770
 20
13.500527
 30
0.0
 10
74.222858
 20
14.328880
 30
0.0
  0
SPLINE
  5
136
100
AcDbEntity
  8
Calque_1
 62
1
100
AcDbSpline
 70
8
 71
3
 72
8
 73
4
 74
0
 40
0
 40
0
 40
0
 40
0
 40
1
 40
1
 40
1
 40
1
 10
74.222858
 20
14.328880
 30
0.0
 10
74.223046
 20
15.157038
 30
0.0
 10
74.894350
 20
15.828347
 30
0.0
 10
75.722508
 20
15.828540
 30
0.0
  0
LINE
  5
137
100
AcDbEntity
  8
Calque_1
 62
1
100
AcDbLine
 10
75.722508
 20
15.828540
 30
0.0
 11
75.722508
 21
15.828540
 31
0.0
  0
LINE
  5
138
100
AcDbEntity
  8
Calque_1
 62
1
100
AcDbLine
 10
22.722644
 20
3.564680
 30
0.0
 11
25.722461
 21
3.564680
 31
0.0
  0
LINE
  5
139
100
AcDbEntity
  8
Calque_1
 62
1
100
AcDbLine
 10
25.722461
 20
3.564680
 30
0.0
 11
25.722461
 21
-3.478290
 31
0.0
  0
LINE
  5
13a
100
AcDbEntity
  8
Calque_1
 62
1
100
AcDbLine
 10
25.722461
 20
-3.478290
 30
0.0
 11
22.722644
 21
-3.478290
 31
0.0
  0
LINE
  5
13b
100
AcDbEntity
  8
Calque_1
 62
1
100
AcDbLine
 10
22.722644
 20
-3.478290
 30
0.0
 11
22.722644
 21
3.564680
 31
0.0
  0
LINE
  5
13c
100
AcDbEntity
  8
Calque_1
 62
1
100
AcDbLine
 10
69.722875
 20
3.564680
 30
0.0
 11
72.722691
 21
3.564680
 31
0.0
  0
LINE
  5
13d
100
AcDbEntity
  8
Calque_1
 62
1
100
AcDbLine
 10
72.722691
 20
3.564680
 30
0.0
 11
72.722691
 21
-3.478290
 31
0.0
  0
LINE
  5
13e
100
AcDbEntity
  8
Calque_1
 62
1
100
AcDbLine
 10
72.722691
 20
-3.478290
 30
0.0
 11
69.722875
 21
-3.478290
 31
0.0
  0
LINE
  5
13f
100
AcDbEntity
  8
Calque_1
 62
1
100
AcDbLine
 10
69.722875
 20
-3.478290
 30
0.0
 11
69.722875
 21
3.564680
 31
0.0
  0
LINE
  5
140
100
AcDbEntity
  8
Calque_1
 62
1
100
AcDbLine
 10
29.915487
 20
-7.671330
 30
0.0
 11
36.958468
 21
-7.671330
 31
0.0
  0
LINE
  5
141
100
AcDbEntity
  8
Calque_1
 62
1
100
AcDbLine
 10
36.958468
 20
-7.671330
 30
0.0
 11
36.958468
 21
-10.671150
 31
0.0
  0
LINE
  5
142
100
AcDbEntity
  8
Calque_1
 62
1
100
AcDbLine
 10
36.958468
 20
-10.671150
 30
0.0
 11
29.915487
 21
-10.671150
 31
0.0
  0
LINE
  5
143
100
AcDbEntity
  8
Calque_1
 62
1
100
AcDbLine
 10
29.915487
 20
-10.671150
 30
0.0
 11
29.915487
 21
-7.671330
 31
0.0
  0
LINE
  5
144
100
AcDbEntity
  8
Calque_1
 62
1
100
AcDbLine
 10
44.201437
 20
-7.671330
 30
0.0
 11
51.243899
 21
-7.671330
 31
0.0
  0
LINE
  5
145
100
AcDbEntity
  8
Calque_1
 62
1
100
AcDbLine
 10
51.243899
 20
-7.671330
 30
0.0
 11
51.243899
 21
-10.671150
 31
0.0
  0
LINE
  5
146
100
AcDbEntity
  8
Calque_1
 62
1
100
AcDbLine
 10
51.243899
 20
-10.671150
 30
0.0
 11
44.201437
 21
-10.671150
 31
0.0
  0
LINE
  5
147
100
AcDbEntity
  8
Calque_1
 62
1
100
AcDbLine
 10
44.201437
 20
-10.671150
 30
0.0
 11
44.201437
 21
-7.671330
 31
0.0
  0
LINE
  5
148
100
AcDbEntity
  8
Calque_1
 62
1
100
AcDbLine
 10
58.486867
 20
-7.671330
 30
0.0
 11
65.529851
 21
-7.671330
 31
0.0
  0
LINE
  5
149
100
AcDbEntity
  8
Calque_1
 62
1
100
AcDbLine
 10
65.529851
 20
-7.671330
 30
0.0
 11
65.529851
 21
-10.671150
 31
0.0
  0
LINE
  5
14a
100
AcDbEntity
  8
Calque_1
 62
1
100
AcDbLine
 10
65.529851
 20
-10.671150
 30
0.0
 11
58.486867
 21
-10.671150
 31
0.0
  0
LINE
  5
14b
100
AcDbEntity
  8
Calque_1
 62
1
100
AcDbLine
 10
58.486867
 20
-10.671150
 30
0.0
 11
58.486867
 21
-7.671330
 31
0.0
  0
SPLINE
  5
14c
100
AcDbEntity
  8
Calque_1
 62
1
100
AcDbSpline
 70
8
 71
3
 72
8
 73
4
 74
0
 40
0
 40
0
 40
0
 40
0
 40
1
 40
1
 40
1
 40
1
 10
47.722668
 20
-12.171310
 30
0.0
 10
48.120549
 20
-12.171266
 30
0.0
 10
48.502147
 20
-12.329304
 30
0.0
 10
48.783492
 20
-12.610648
 30
0.0
  0
SPLINE
  5
14d
100
AcDbEntity
  8
Calque_1
 62
1
100
AcDbSpline
 70
8
 71
3
 72
8
 73
4
 74
0
 40
0
 40
0
 40
0
 40
0
 40
1
 40
1
 40
1
 40
1
 10
48.783492
 20
-12.610648
 30
0.0
 10
49.064837
 20
-12.891992
 30
0.0
 10
49.222876
 20
-13.273589
 30
0.0
 10
49.222834
 20
-13.671470
 30
0.0
  0
SPLINE
  5
14e
100
AcDbEntity
  8
Calque_1
 62
1
100
AcDbSpline
 70
8
 71
3
 72
8
 73
4
 74
0
 40
0
 40
0
 40
0
 40
0
 40
1
 40
1
 40
1
 40
1
 10
49.222834
 20
-13.671470
 30
0.0
 10
49.222646
 20
-14.499829
 30
0.0
 10
48.551027
 20
-15.171222
 30
0.0
 10
47.722668
 20
-15.171130
 30
0.0
  0
SPLINE
  5
14f
100
AcDbEntity
  8
Calque_1
 62
1
100
AcDbSpline
 70
8
 71
3
 72
8
 73
4
 74
0
 40
0
 40
0
 40
0
 40
0
 40
1
 40
1
 40
1
 40
1
 10
47.722668
 20
-15.171130
 30
0.0
 10
46.894510
 20
-15.170937
 30
0.0
 10
46.223205
 20
-14.499628
 30
0.0
 10
46.223017
 20
-13.671470
 30
0.0
  0
SPLINE
  5
150
100
AcDbEntity
  8
Calque_1
 62
1
100
AcDbSpline
 70
8
 71
3
 72
8
 73
4
 74
0
 40
0
 40
0
 40
0
 40
0
 40
1
 40
1
 40
1
 40
1
 10
46.223017
 20
-13.671470
 30
0.0
 10
46.222929
 20
-12.843117
 30
0.0
 10
46.894315
 20
-12.171503
 30
0.0
 10
47.722668
 20
-12.171310
 30
0.0
  0
LINE
  5
151
100
AcDbEntity
  8
Calque_1
 62
1
100
AcDbLine
 10
47.722668
 20
-12.171310
 30
0.0
 11
47.722668
 21
-12.171310
 31
0.0
  0
LINE
  5
152
100
AcDbEntity
  8
Calque_1
 62
1
100
AcDbLine
 10
44.634215
 20
125.431220
 30
0.0
 11
51.727036
 21
125.431220
 31
0.0
  0
LINE
  5
153
100
AcDbEntity
  8
Calque_1
 62
1
100
AcDbLine
 10
51.727036
 20
125.431220
 30
0.0
 11
51.727036
 21
128.431220
 31
0.0
  0
LINE
  5
154
100
AcDbEntity
  8
Calque_1
 62
1
100
AcDbLine
 10
51.727036
 20
128.431220
 30
0.0
 11
58.969854
 21
128.431220
 31
0.0
  0
LINE
  5
155
100
AcDbEntity
  8
Calque_1
 62
1
100
AcDbLine
 10
58.969854
 20
128.431220
 30
0.0
 11
58.969854
 21
125.431220
 31
0.0
  0
LINE
  5
156
100
AcDbEntity
  8
Calque_1
 62
1
100
AcDbLine
 10
58.969854
 20
125.431220
 30
0.0
 11
66.012665
 21
125.431220
 31
0.0
  0
LINE
  5
157
100
AcDbEntity
  8
Calque_1
 62
1
100
AcDbLine
 10
66.012665
 20
125.431220
 30
0.0
 11
66.012665
 21
128.431220
 31
0.0
  0
LINE
  5
158
100
AcDbEntity
  8
Calque_1
 62
1
100
AcDbLine
 10
66.012665
 20
128.431220
 30
0.0
 11
73.255483
 21
128.431220
 31
0.0
  0
LINE
  5
159
100
AcDbEntity
  8
Calque_1
 62
1
100
AcDbLine
 10
73.255483
 20
128.431220
 30
0.0
 11
73.255483
 21
125.431220
 31
0.0
  0
LINE
  5
15a
100
AcDbEntity
  8
Calque_1
 62
1
100
AcDbLine
 10
73.255483
 20
125.431220
 30
0.0
 11
80.298304
 21
125.431220
 31
0.0
  0
LINE
  5
15b
100
AcDbEntity
  8
Calque_1
 62
1
100
AcDbLine
 10
80.298304
 20
125.431220
 30
0.0
 11
80.298304
 21
128.431220
 31
0.0
  0
LINE
  5
15c
100
AcDbEntity
  8
Calque_1
 62
1
100
AcDbLine
 10
80.298304
 20
128.431220
 30
0.0
 11
87.541122
 21
128.431220
 31
0.0
  0
LINE
  5
15d
100
AcDbEntity
  8
Calque_1
 62
1
100
AcDbLine
 10
87.541122
 20
128.431220
 30
0.0
 11
87.541122
 21
125.431220
 31
0.0
  0
LINE
  5
15e
100
AcDbEntity
  8
Calque_1
 62
1
100
AcDbLine
 10
87.541122
 20
125.431220
 30
0.0
 11
94.633933
 21
125.431220
 31
0.0
  0
LINE
  5
15f
100
AcDbEntity
  8
Calque_1
 62
1
100
AcDbLine
 10
94.633933
 20
125.431220
 30
0.0
 11
94.633933
 21
115.714550
 31
0.0
  0
LINE
  5
160
100
AcDbEntity
  8
Calque_1
 62
1
100
AcDbLine
 10
94.633933
 20
115.714550
 30
0.0
 11
91.633948
 21
115.714550
 31
0.0
  0
LINE
  5
161
100
AcDbEntity
  8
Calque_1
 62
1
100
AcDbLine
 10
91.633948
 20
115.714550
 30
0.0
 11
91.633948
 21
106.147890
 31
0.0
  0
LINE
  5
162
100
AcDbEntity
  8
Calque_1
 62
1
100
AcDbLine
 10
91.633948
 20
106.147890
 30
0.0
 11
94.633933
 21
106.147890
 31
0.0
  0
LINE
  5
163
100
AcDbEntity
  8
Calque_1
 62
1
100
AcDbLine
 10
94.633933
 20
106.147890
 30
0.0
 11
94.633933
 21
96.431220
 31
0.0
  0
LINE
  5
164
100
AcDbEntity
  8
Calque_1
 62
1
100
AcDbLine
 10
94.633933
 20
96.431220
 30
0.0
 11
87.541122
 21
96.431220
 31
0.0
  0
LINE
  5
165
100
AcDbEntity
  8
Calque_1
 62
1
100
AcDbLine
 10
87.541122
 20
96.431220
 30
0.0
 11
87.541122
 21
93.431220
 31
0.0
  0
LINE
  5
166
100
AcDbEntity
  8
Calque_1
 62
1
100
AcDbLine
 10
87.541122
 20
93.431220
 30
0.0
 11
80.298304
 21
93.431220
 31
0.0
  0
LINE
  5
167
100
AcDbEntity
  8
Calque_1
 62
1
100
AcDbLine
 10
80.298304
 20
93.431220
 30
0.0
 11
80.298304
 21
96.431220
 31
0.0
  0
LINE
  5
168
100
AcDbEntity
  8
Calque_1
 62
1
100
AcDbLine
 10
80.298304
 20
96.431220
 30
0.0
 11
73.255483
 21
96.431220
 31
0.0
  0
LINE
  5
169
100
AcDbEntity
  8
Calque_1
 62
1
100
AcDbLine
 10
73.255483
 20
96.431220
 30
0.0
 11
73.255483
 21
93.431220
 31
0.0
  0
LINE
  5
16a
100
AcDbEntity
  8
Calque_1
 62
1
100
AcDbLine
 10
73.255483
 20
93.431220
 30
0.0
 11
66.012665
 21
93.431220
 31
0.0
  0
LINE
  5
16b
100
AcDbEntity
  8
Calque_1
 62
1
100
AcDbLine
 10
66.012665
 20
93.431220
 30
0.0
 11
66.012665
 21
96.431220
 31
0.0
  0
LINE
  5
16c
100
AcDbEntity
  8
Calque_1
 62
1
100
AcDbLine
 10
66.012665
 20
96.431220
 30
0.0
 11
58.969854
 21
96.431220
 31
0.0
  0
LINE
  5
16d
100
AcDbEntity
  8
Calque_1
 62
1
100
AcDbLine
 10
58.969854
 20
96.431220
 30
0.0
 11
58.969854
 21
93.431220
 31
0.0
  0
LINE
  5
16e
100
AcDbEntity
  8
Calque_1
 62
1
100
AcDbLine
 10
58.969854
 20
93.431220
 30
0.0
 11
51.727036
 21
93.431220
 31
0.0
  0
LINE
  5
16f
100
AcDbEntity
  8
Calque_1
 62
1
100
AcDbLine
 10
51.727036
 20
93.431220
 30
0.0
 11
51.727036
 21
96.431220
 31
0.0
  0
LINE
  5
170
100
AcDbEntity
  8
Calque_1
 62
1
100
AcDbLine
 10
51.727036
 20
96.431220
 30
0.0
 11
44.634215
 21
96.431220
 31
0.0
  0
LINE
  5
171
100
AcDbEntity
  8
Calque_1
 62
1
100
AcDbLine
 10
44.634215
 20
96.431220
 30
0.0
 11
44.634215
 21
106.147890
 31
0.0
  0
LINE
  5
172
100
AcDbEntity
  8
Calque_1
 62
1
100
AcDbLine
 10
44.634215
 20
106.147890
 30
0.0
 11
47.634197
 21
106.147890
 31
0.0
  0
LINE
  5
173
100
AcDbEntity
  8
Calque_1
 62
1
100
AcDbLine
 10
47.634197
 20
106.147890
 30
0.0
 11
47.634197
 21
115.714550
 31
0.0
  0
LINE
  5
174
100
AcDbEntity
  8
Calque_1
 62
1
100
AcDbLine
 10
47.634197
 20
115.714550
 30
0.0
 11
44.634215
 21
115.714550
 31
0.0
  0
LINE
  5
175
100
AcDbEntity
  8
Calque_1
 62
1
100
AcDbLine
 10
44.634215
 20
115.714550
 30
0.0
 11
44.634215
 21
125.431220
 31
0.0
  0
LINE
  5
176
100
AcDbEntity
  8
Calque_1
 62
1
100
AcDbLine
 10
-8.365716
 20
125.431220
 30
0.0
 11
-1.272863
 21
125.431220
 31
0.0
  0
LINE
  5
177
100
AcDbEntity
  8
Calque_1
 62
1
100
AcDbLine
 10
-1.272863
 20
125.431220
 30
0.0
 11
-1.272863
 21
128.431220
 31
0.0
  0
LINE
  5
178
100
AcDbEntity
  8
Calque_1
 62
1
100
AcDbLine
 10
-1.272863
 20
128.431220
 30
0.0
 11
5.969989
 21
128.431220
 31
0.0
  0
LINE
  5
179
100
AcDbEntity
  8
Calque_1
 62
1
100
AcDbLine
 10
5.969989
 20
128.431220
 30
0.0
 11
5.969989
 21
125.431220
 31
0.0
  0
LINE
  5
17a
100
AcDbEntity
  8
Calque_1
 62
1
100
AcDbLine
 10
5.969989
 20
125.431220
 30
0.0
 11
13.012844
 21
125.431220
 31
0.0
  0
LINE
  5
17b
100
AcDbEntity
  8
Calque_1
 62
1
100
AcDbLine
 10
13.012844
 20
125.431220
 30
0.0
 11
13.012844
 21
128.431220
 31
0.0
  0
LINE
  5
17c
100
AcDbEntity
  8
Calque_1
 62
1
100
AcDbLine
 10
13.012844
 20
128.431220
 30
0.0
 11
20.255702
 21
128.431220
 31
0.0
  0
LINE
  5
17d
100
AcDbEntity
  8
Calque_1
 62
1
100
AcDbLine
 10
20.255702
 20
128.431220
 30
0.0
 11
20.255702
 21
125.431220
 31
0.0
  0
LINE
  5
17e
100
AcDbEntity
  8
Calque_1
 62
1
100
AcDbLine
 10
20.255702
 20
125.431220
 30
0.0
 11
27.298559
 21
125.431220
 31
0.0
  0
LINE
  5
17f
100
AcDbEntity
  8
Calque_1
 62
1
100
AcDbLine
 10
27.298559
 20
125.431220
 30
0.0
 11
27.298559
 21
128.431220
 31
0.0
  0
LINE
  5
180
100
AcDbEntity
  8
Calque_1
 62
1
100
AcDbLine
 10
27.298559
 20
128.431220
 30
0.0
 11
34.541412
 21
128.431220
 31
0.0
  0
LINE
  5
181
100
AcDbEntity
  8
Calque_1
 62
1
100
AcDbLine
 10
34.541412
 20
128.431220
 30
0.0
 11
34.541412
 21
125.431220
 31
0.0
  0
LINE
  5
182
100
AcDbEntity
  8
Calque_1
 62
1
100
AcDbLine
 10
34.541412
 20
125.431220
 30
0.0
 11
41.634233
 21
125.431220
 31
0.0
  0
LINE
  5
183
100
AcDbEntity
  8
Calque_1
 62
1
100
AcDbLine
 10
41.634233
 20
125.431220
 30
0.0
 11
41.634233
 21
115.714550
 31
0.0
  0
LINE
  5
184
100
AcDbEntity
  8
Calque_1
 62
1
100
AcDbLine
 10
41.634233
 20
115.714550
 30
0.0
 11
38.634248
 21
115.714550
 31
0.0
  0
LINE
  5
185
100
AcDbEntity
  8
Calque_1
 62
1
100
AcDbLine
 10
38.634248
 20
115.714550
 30
0.0
 11
38.634248
 21
106.147890
 31
0.0
  0
LINE
  5
186
100
AcDbEntity
  8
Calque_1
 62
1
100
AcDbLine
 10
38.634248
 20
106.147890
 30
0.0
 11
41.634233
 21
106.147890
 31
0.0
  0
LINE
  5
187
100
AcDbEntity
  8
Calque_1
 62
1
100
AcDbLine
 10
41.634233
 20
106.147890
 30
0.0
 11
41.634233
 21
96.431220
 31
0.0
  0
LINE
  5
188
100
AcDbEntity
  8
Calque_1
 62
1
100
AcDbLine
 10
41.634233
 20
96.431220
 30
0.0
 11
34.541412
 21
96.431220
 31
0.0
  0
LINE
  5
189
100
AcDbEntity
  8
Calque_1
 62
1
100
AcDbLine
 10
34.541412
 20
96.431220
 30
0.0
 11
34.541412
 21
93.431220
 31
0.0
  0
LINE
  5
18a
100
AcDbEntity
  8
Calque_1
 62
1
100
AcDbLine
 10
34.541412
 20
93.431220
 30
0.0
 11
27.298559
 21
93.431220
 31
0.0
  0
LINE
  5
18b
100
AcDbEntity
  8
Calque_1
 62
1
100
AcDbLine
 10
27.298559
 20
93.431220
 30
0.0
 11
27.298559
 21
96.431220
 31
0.0
  0
LINE
  5
18c
100
AcDbEntity
  8
Calque_1
 62
1
100
AcDbLine
 10
27.298559
 20
96.431220
 30
0.0
 11
20.255702
 21
96.431220
 31
0.0
  0
LINE
  5
18d
100
AcDbEntity
  8
Calque_1
 62
1
100
AcDbLine
 10
20.255702
 20
96.431220
 30
0.0
 11
20.255702
 21
93.431220
 31
0.0
  0
LINE
  5
18e
100
AcDbEntity
  8
Calque_1
 62
1
100
AcDbLine
 10
20.255702
 20
93.431220
 30
0.0
 11
13.012844
 21
93.431220
 31
0.0
  0
LINE
  5
18f
100
AcDbEntity
  8
Calque_1
 62
1
100
AcDbLine
 10
13.012844
 20
93.431220
 30
0.0
 11
13.012844
 21
96.431220
 31
0.0
  0
LINE
  5
190
100
AcDbEntity
  8
Calque_1
 62
1
100
AcDbLine
 10
13.012844
 20
96.431220
 30
0.0
 11
5.969989
 21
96.431220
 31
0.0
  0
LINE
  5
191
100
AcDbEntity
  8
Calque_1
 62
1
100
AcDbLine
 10
5.969989
 20
96.431220
 30
0.0
 11
5.969989
 21
93.431220
 31
0.0
  0
LINE
  5
192
100
AcDbEntity
  8
Calque_1
 62
1
100
AcDbLine
 10
5.969989
 20
93.431220
 30
0.0
 11
-1.272863
 21
93.431220
 31
0.0
  0
LINE
  5
193
100
AcDbEntity
  8
Calque_1
 62
1
100
AcDbLine
 10
-1.272863
 20
93.431220
 30
0.0
 11
-1.272863
 21
96.431220
 31
0.0
  0
LINE
  5
194
100
AcDbEntity
  8
Calque_1
 62
1
100
AcDbLine
 10
-1.272863
 20
96.431220
 30
0.0
 11
-8.365716
 21
96.431220
 31
0.0
  0
LINE
  5
195
100
AcDbEntity
  8
Calque_1
 62
1
100
AcDbLine
 10
-8.365716
 20
96.431220
 30
0.0
 11
-8.365716
 21
106.147890
 31
0.0
  0
LINE
  5
196
100
AcDbEntity
  8
Calque_1
 62
1
100
AcDbLine
 10
-8.365716
 20
106.147890
 30
0.0
 11
-5.365718
 21
106.147890
 31
0.0
  0
LINE
  5
197
100
AcDbEntity
  8
Calque_1
 62
1
100
AcDbLine
 10
-5.365718
 20
106.147890
 30
0.0
 11
-5.365718
 21
115.714550
 31
0.0
  0
LINE
  5
198
100
AcDbEntity
  8
Calque_1
 62
1
100
AcDbLine
 10
-5.365718
 20
115.714550
 30
0.0
 11
-8.365716
 21
115.714550
 31
0.0
  0
LINE
  5
199
100
AcDbEntity
  8
Calque_1
 62
1
100
AcDbLine
 10
-8.365716
 20
115.714550
 30
0.0
 11
-8.365716
 21
125.431220
 31
0.0
  0
LINE
  5
19a
100
AcDbEntity
  8
Calque_1
 62
1
100
AcDbLine
 10
47.634197
 20
87.431220
 30
0.0
 11
51.727036
 21
87.431220
 31
0.0
  0
LINE
  5
19b
100
AcDbEntity
  8
Calque_1
 62
1
100
AcDbLine
 10
51.727036
 20
87.431220
 30
0.0
 11
51.727036
 21
90.431220
 31
0.0
  0
LINE
  5
19c
100
AcDbEntity
  8
Calque_1
 62
1
100
AcDbLine
 10
51.727036
 20
90.431220
 30
0.0
 11
58.969854
 21
90.431220
 31
0.0
  0
LINE
  5
19d
100
AcDbEntity
  8
Calque_1
 62
1
100
AcDbLine
 10
58.969854
 20
90.431220
 30
0.0
 11
58.969854
 21
87.431220
 31
0.0
  0
LINE
  5
19e
100
AcDbEntity
  8
Calque_1
 62
1
100
AcDbLine
 10
58.969854
 20
87.431220
 30
0.0
 11
66.012665
 21
87.431220
 31
0.0
  0
LINE
  5
19f
100
AcDbEntity
  8
Calque_1
 62
1
100
AcDbLine
 10
66.012665
 20
87.431220
 30
0.0
 11
66.012665
 21
90.431220
 31
0.0
  0
LINE
  5
1a0
100
AcDbEntity
  8
Calque_1
 62
1
100
AcDbLine
 10
66.012665
 20
90.431220
 30
0.0
 11
73.255483
 21
90.431220
 31
0.0
  0
LINE
  5
1a1
100
AcDbEntity
  8
Calque_1
 62
1
100
AcDbLine
 10
73.255483
 20
90.431220
 30
0.0
 11
73.255483
 21
87.431220
 31
0.0
  0
LINE
  5
1a2
100
AcDbEntity
  8
Calque_1
 62
1
100
AcDbLine
 10
73.255483
 20
87.431220
 30
0.0
 11
80.298304
 21
87.431220
 31
0.0
  0
LINE
  5
1a3
100
AcDbEntity
  8
Calque_1
 62
1
100
AcDbLine
 10
80.298304
 20
87.431220
 30
0.0
 11
80.298304
 21
90.431220
 31
0.0
  0
LINE
  5
1a4
100
AcDbEntity
  8
Calque_1
 62
1
100
AcDbLine
 10
80.298304
 20
90.431220
 30
0.0
 11
87.541122
 21
90.431220
 31
0.0
  0
LINE
  5
1a5
100
AcDbEntity
  8
Calque_1
 62
1
100
AcDbLine
 10
87.541122
 20
90.431220
 30
0.0
 11
87.541122
 21
87.431220
 31
0.0
  0
LINE
  5
1a6
100
AcDbEntity
  8
Calque_1
 62
1
100
AcDbLine
 10
87.541122
 20
87.431220
 30
0.0
 11
91.633948
 21
87.431220
 31
0.0
  0
LINE
  5
1a7
100
AcDbEntity
  8
Calque_1
 62
1
100
AcDbLine
 10
91.633948
 20
87.431220
 30
0.0
 11
91.633948
 21
77.814550
 31
0.0
  0
LINE
  5
1a8
100
AcDbEntity
  8
Calque_1
 62
1
100
AcDbLine
 10
91.633948
 20
77.814550
 30
0.0
 11
94.633933
 21
77.814550
 31
0.0
  0
LINE
  5
1a9
100
AcDbEntity
  8
Calque_1
 62
1
100
AcDbLine
 10
94.633933
 20
77.814550
 30
0.0
 11
94.633933
 21
68.047890
 31
0.0
  0
LINE
  5
1aa
100
AcDbEntity
  8
Calque_1
 62
1
100
AcDbLine
 10
94.633933
 20
68.047890
 30
0.0
 11
91.633948
 21
68.047890
 31
0.0
  0
LINE
  5
1ab
100
AcDbEntity
  8
Calque_1
 62
1
100
AcDbLine
 10
91.633948
 20
68.047890
 30
0.0
 11
91.633948
 21
58.431220
 31
0.0
  0
LINE
  5
1ac
100
AcDbEntity
  8
Calque_1
 62
1
100
AcDbLine
 10
91.633948
 20
58.431220
 30
0.0
 11
87.541122
 21
58.431220
 31
0.0
  0
LINE
  5
1ad
100
AcDbEntity
  8
Calque_1
 62
1
100
AcDbLine
 10
87.541122
 20
58.431220
 30
0.0
 11
87.541122
 21
55.431220
 31
0.0
  0
LINE
  5
1ae
100
AcDbEntity
  8
Calque_1
 62
1
100
AcDbLine
 10
87.541122
 20
55.431220
 30
0.0
 11
80.298304
 21
55.431220
 31
0.0
  0
LINE
  5
1af
100
AcDbEntity
  8
Calque_1
 62
1
100
AcDbLine
 10
80.298304
 20
55.431220
 30
0.0
 11
80.298304
 21
58.431220
 31
0.0
  0
LINE
  5
1b0
100
AcDbEntity
  8
Calque_1
 62
1
100
AcDbLine
 10
80.298304
 20
58.431220
 30
0.0
 11
73.255483
 21
58.431220
 31
0.0
  0
LINE
  5
1b1
100
AcDbEntity
  8
Calque_1
 62
1
100
AcDbLine
 10
73.255483
 20
58.431220
 30
0.0
 11
73.255483
 21
55.431220
 31
0.0
  0
LINE
  5
1b2
100
AcDbEntity
  8
Calque_1
 62
1
100
AcDbLine
 10
73.255483
 20
55.431220
 30
0.0
 11
66.012665
 21
55.431220
 31
0.0
  0
LINE
  5
1b3
100
AcDbEntity
  8
Calque_1
 62
1
100
AcDbLine
 10
66.012665
 20
55.431220
 30
0.0
 11
66.012665
 21
58.431220
 31
0.0
  0
LINE
  5
1b4
100
AcDbEntity
  8
Calque_1
 62
1
100
AcDbLine
 10
66.012665
 20
58.431220
 30
0.0
 11
58.969854
 21
58.431220
 31
0.0
  0
LINE
  5
1b5
100
AcDbEntity
  8
Calque_1
 62
1
100
AcDbLine
 10
58.969854
 20
58.431220
 30
0.0
 11
58.969854
 21
55.431220
 31
0.0
  0
LINE
  5
1b6
100
AcDbEntity
  8
Calque_1
 62
1
100
AcDbLine
 10
58.969854
 20
55.431220
 30
0.0
 11
51.727036
 21
55.431220
 31
0.0
  0
LINE
  5
1b7
100
AcDbEntity
  8
Calque_1
 62
1
100
AcDbLine
 10
51.727036
 20
55.431220
 30
0.0
 11
51.727036
 21
58.431220
 31
0.0
  0
LINE
  5
1b8
100
AcDbEntity
  8
Calque_1
 62
1
100
AcDbLine
 10
51.727036
 20
58.431220
 30
0.0
 11
47.634197
 21
58.431220
 31
0.0
  0
LINE
  5
1b9
100
AcDbEntity
  8
Calque_1
 62
1
100
AcDbLine
 10
47.634197
 20
58.431220
 30
0.0
 11
47.634197
 21
68.047890
 31
0.0
  0
LINE
  5
1ba
100
AcDbEntity
  8
Calque_1
 62
1
100
AcDbLine
 10
47.634197
 20
68.047890
 30
0.0
 11
44.634215
 21
68.047890
 31
0.0
  0
LINE
  5
1bb
100
AcDbEntity
  8
Calque_1
 62
1
100
AcDbLine
 10
44.634215
 20
68.047890
 30
0.0
 11
44.634215
 21
77.814550
 31
0.0
  0
LINE
  5
1bc
100
AcDbEntity
  8
Calque_1
 62
1
100
AcDbLine
 10
44.634215
 20
77.814550
 30
0.0
 11
47.634197
 21
77.814550
 31
0.0
  0
LINE
  5
1bd
100
AcDbEntity
  8
Calque_1
 62
1
100
AcDbLine
 10
47.634197
 20
77.814550
 30
0.0
 11
47.634197
 21
87.431220
 31
0.0
  0
LINE
  5
1be
100
AcDbEntity
  8
Calque_1
 62
1
100
AcDbLine
 10
-5.365718
 20
87.431220
 30
0.0
 11
-1.272863
 21
87.431220
 31
0.0
  0
LINE
  5
1bf
100
AcDbEntity
  8
Calque_1
 62
1
100
AcDbLine
 10
-1.272863
 20
87.431220
 30
0.0
 11
-1.272863
 21
90.431220
 31
0.0
  0
LINE
  5
1c0
100
AcDbEntity
  8
Calque_1
 62
1
100
AcDbLine
 10
-1.272863
 20
90.431220
 30
0.0
 11
5.969989
 21
90.431220
 31
0.0
  0
LINE
  5
1c1
100
AcDbEntity
  8
Calque_1
 62
1
100
AcDbLine
 10
5.969989
 20
90.431220
 30
0.0
 11
5.969989
 21
87.431220
 31
0.0
  0
LINE
  5
1c2
100
AcDbEntity
  8
Calque_1
 62
1
100
AcDbLine
 10
5.969989
 20
87.431220
 30
0.0
 11
13.012844
 21
87.431220
 31
0.0
  0
LINE
  5
1c3
100
AcDbEntity
  8
Calque_1
 62
1
100
AcDbLine
 10
13.012844
 20
87.431220
 30
0.0
 11
13.012844
 21
90.431220
 31
0.0
  0
LINE
  5
1c4
100
AcDbEntity
  8
Calque_1
 62
1
100
AcDbLine
 10
13.012844
 20
90.431220
 30
0.0
 11
20.255702
 21
90.431220
 31
0.0
  0
LINE
  5
1c5
100
AcDbEntity
  8
Calque_1
 62
1
100
AcDbLine
 10
20.255702
 20
90.431220
 30
0.0
 11
20.255702
 21
87.431220
 31
0.0
  0
LINE
  5
1c6
100
AcDbEntity
  8
Calque_1
 62
1
100
AcDbLine
 10
20.255702
 20
87.431220
 30
0.0
 11
27.298559
 21
87.431220
 31
0.0
  0
LINE
  5
1c7
100
AcDbEntity
  8
Calque_1
 62
1
100
AcDbLine
 10
27.298559
 20
87.431220
 30
0.0
 11
27.298559
 21
90.431220
 31
0.0
  0
LINE
  5
1c8
100
AcDbEntity
  8
Calque_1
 62
1
100
AcDbLine
 10
27.298559
 20
90.431220
 30
0.0
 11
34.541412
 21
90.431220
 31
0.0
  0
LINE
  5
1c9
100
AcDbEntity
  8
Calque_1
 62
1
100
AcDbLine
 10
34.541412
 20
90.431220
 30
0.0
 11
34.541412
 21
87.431220
 31
0.0
  0
LINE
  5
1ca
100
AcDbEntity
  8
Calque_1
 62
1
100
AcDbLine
 10
34.541412
 20
87.431220
 30
0.0
 11
38.634248
 21
87.431220
 31
0.0
  0
LINE
  5
1cb
100
AcDbEntity
  8
Calque_1
 62
1
100
AcDbLine
 10
38.634248
 20
87.431220
 30
0.0
 11
38.634248
 21
77.814550
 31
0.0
  0
LINE
  5
1cc
100
AcDbEntity
  8
Calque_1
 62
1
100
AcDbLine
 10
38.634248
 20
77.814550
 30
0.0
 11
41.634233
 21
77.814550
 31
0.0
  0
LINE
  5
1cd
100
AcDbEntity
  8
Calque_1
 62
1
100
AcDbLine
 10
41.634233
 20
77.814550
 30
0.0
 11
41.634233
 21
68.047890
 31
0.0
  0
LINE
  5
1ce
100
AcDbEntity
  8
Calque_1
 62
1
100
AcDbLine
 10
41.634233
 20
68.047890
 30
0.0
 11
38.634248
 21
68.047890
 31
0.0
  0
LINE
  5
1cf
100
AcDbEntity
  8
Calque_1
 62
1
100
AcDbLine
 10
38.634248
 20
68.047890
 30
0.0
 11
38.634248
 21
58.431220
 31
0.0
  0
LINE
  5
1d0
100
AcDbEntity
  8
Calque_1
 62
1
100
AcDbLine
 10
38.634248
 20
58.431220
 30
0.0
 11
34.541412
 21
58.431220
 31
0.0
  0
LINE
  5
1d1
100
AcDbEntity
  8
Calque_1
 62
1
100
AcDbLine
 10
34.541412
 20
58.431220
 30
0.0
 11
34.541412
 21
55.431220
 31
0.0
  0
LINE
  5
1d2
100
AcDbEntity
  8
Calque_1
 62
1
100
AcDbLine
 10
34.541412
 20
55.431220
 30
0.0
 11
27.298559
 21
55.431220
 31
0.0
  0
LINE
  5
1d3
100
AcDbEntity
  8
Calque_1
 62
1
100
AcDbLine
 10
27.298559
 20
55.431220
 30
0.0
 11
27.298559
 21
58.431220
 31
0.0
  0
LINE
  5
1d4
100
AcDbEntity
  8
Calque_1
 62
1
100
AcDbLine
 10
27.298559
 20
58.431220
 30
0.0
 11
20.255702
 21
58.431220
 31
0.0
  0
LINE
  5
1d5
100
AcDbEntity
  8
Calque_1
 62
1
100
AcDbLine
 10
20.255702
 20
58.431220
 30
0.0
 11
20.255702
 21
55.431220
 31
0.0
  0
LINE
  5
1d6
100
AcDbEntity
  8
Calque_1
 62
1
100
AcDbLine
 10
20.255702
 20
55.431220
 30
0.0
 11
13.012844
 21
55.431220
 31
0.0
  0
LINE
  5
1d7
100
AcDbEntity
  8
Calque_1
 62
1
100
AcDbLine
 10
13.012844
 20
55.431220
 30
0.0
 11
13.012844
 21
58.431220
 31
0.0
  0
LINE
  5
1d8
100
AcDbEntity
  8
Calque_1
 62
1
100
AcDbLine
 10
13.012844
 20
58.431220
 30
0.0
 11
5.969989
 21
58.431220
 31
0.0
  0
LINE
  5
1d9
100
AcDbEntity
  8
Calque_1
 62
1
100
AcDbLine
 10
5.969989
 20
58.431220
 30
0.0
 11
5.969989
 21
55.431220
 31
0.0
  0
LINE
  5
1da
100
AcDbEntity
  8
Calque_1
 62
1
100
AcDbLine
 10
5.969989
 20
55.431220
 30
0.0
 11
-1.272863
 21
55.431220
 31
0.0
  0
LINE
  5
1db
100
AcDbEntity
  8
Calque_1
 62
1
100
AcDbLine
 10
-1.272863
 20
55.431220
 30
0.0
 11
-1.272863
 21
58.431220
 31
0.0
  0
LINE
  5
1dc
100
AcDbEntity
  8
Calque_1
 62
1
100
AcDbLine
 10
-1.272863
 20
58.431220
 30
0.0
 11
-5.365718
 21
58.431220
 31
0.0
  0
LINE
  5
1dd
100
AcDbEntity
  8
Calque_1
 62
1
100
AcDbLine
 10
-5.365718
 20
58.431220
 30
0.0
 11
-5.365718
 21
68.047890
 31
0.0
  0
LINE
  5
1de
100
AcDbEntity
  8
Calque_1
 62
1
100
AcDbLine
 10
-5.365718
 20
68.047890
 30
0.0
 11
-8.365716
 21
68.047890
 31
0.0
  0
LINE
  5
1df
100
AcDbEntity
  8
Calque_1
 62
1
100
AcDbLine
 10
-8.365716
 20
68.047890
 30
0.0
 11
-8.365716
 21
77.814550
 31
0.0
  0
LINE
  5
1e0
100
AcDbEntity
  8
Calque_1
 62
1
100
AcDbLine
 10
-8.365716
 20
77.814550
 30
0.0
 11
-5.365718
 21
77.814550
 31
0.0
  0
LINE
  5
1e1
100
AcDbEntity
  8
Calque_1
 62
1
100
AcDbLine
 10
-5.365718
 20
77.814550
 30
0.0
 11
-5.365718
 21
87.431220
 31
0.0
  0
LINE
  5
1e2
100
AcDbEntity
  8
Calque_1
 62
5
100
AcDbLine
 10
64.256025
 20
386.860148
 30
0.0
 11
64.256025
 21
156.860235
 31
0.0
  0
LINE
  5
1e3
100
AcDbEntity
  8
Calque_1
 62
5
100
AcDbLine
 10
64.256025
 20
156.860235
 30
0.0
 11
294.255927
 21
156.860235
 31
0.0
  0
LINE
  5
1e4
100
AcDbEntity
  8
Calque_1
 62
5
100
AcDbLine
 10
294.255927
 20
156.860235
 30
0.0
 11
294.255927
 21
386.860148
 31
0.0
  0
LINE
  5
1e5
100
AcDbEntity
  8
Calque_1
 62
5
100
AcDbLine
 10
294.255927
 20
386.860148
 30
0.0
 11
64.256025
 21
386.860148
 31
0.0
  0
LINE
  5
1e6
100
AcDbEntity
  8
Calque_1
 62
5
100
AcDbLine
 10
161.449058
 20
296.859957
 30
0.0
 11
168.491522
 21
296.859957
 31
0.0
  0
LINE
  5
1e7
100
AcDbEntity
  8
Calque_1
 62
5
100
AcDbLine
 10
168.491522
 20
296.859957
 30
0.0
 11
168.491522
 21
293.860140
 31
0.0
  0
LINE
  5
1e8
100
AcDbEntity
  8
Calque_1
 62
5
100
AcDbLine
 10
168.491522
 20
293.860140
 30
0.0
 11
161.449058
 21
293.860140
 31
0.0
  0
LINE
  5
1e9
100
AcDbEntity
  8
Calque_1
 62
5
100
AcDbLine
 10
161.449058
 20
293.860140
 30
0.0
 11
161.449058
 21
296.859957
 31
0.0
  0
LINE
  5
1ea
100
AcDbEntity
  8
Calque_1
 62
5
100
AcDbLine
 10
175.734491
 20
296.859957
 30
0.0
 11
182.777472
 21
296.859957
 31
0.0
  0
LINE
  5
1eb
100
AcDbEntity
  8
Calque_1
 62
5
100
AcDbLine
 10
182.777472
 20
296.859957
 30
0.0
 11
182.777472
 21
293.860140
 31
0.0
  0
LINE
  5
1ec
100
AcDbEntity
  8
Calque_1
 62
5
100
AcDbLine
 10
182.777472
 20
293.860140
 30
0.0
 11
175.734491
 21
293.860140
 31
0.0
  0
LINE
  5
1ed
100
AcDbEntity
  8
Calque_1
 62
5
100
AcDbLine
 10
175.734491
 20
293.860140
 30
0.0
 11
175.734491
 21
296.859957
 31
0.0
  0
LINE
  5
1ee
100
AcDbEntity
  8
Calque_1
 62
5
100
AcDbLine
 10
190.020440
 20
296.859957
 30
0.0
 11
197.062905
 21
296.859957
 31
0.0
  0
LINE
  5
1ef
100
AcDbEntity
  8
Calque_1
 62
5
100
AcDbLine
 10
197.062905
 20
296.859957
 30
0.0
 11
197.062905
 21
293.860140
 31
0.0
  0
LINE
  5
1f0
100
AcDbEntity
  8
Calque_1
 62
5
100
AcDbLine
 10
197.062905
 20
293.860140
 30
0.0
 11
190.020440
 21
293.860140
 31
0.0
  0
LINE
  5
1f1
100
AcDbEntity
  8
Calque_1
 62
5
100
AcDbLine
 10
190.020440
 20
293.860140
 30
0.0
 11
190.020440
 21
296.859957
 31
0.0
  0
LINE
  5
1f2
100
AcDbEntity
  8
Calque_1
 62
5
100
AcDbLine
 10
154.256214
 20
289.667114
 30
0.0
 11
157.256034
 21
289.667114
 31
0.0
  0
LINE
  5
1f3
100
AcDbEntity
  8
Calque_1
 62
5
100
AcDbLine
 10
157.256034
 20
289.667114
 30
0.0
 11
157.256034
 21
282.624650
 31
0.0
  0
LINE
  5
1f4
100
AcDbEntity
  8
Calque_1
 62
5
100
AcDbLine
 10
157.256034
 20
282.624650
 30
0.0
 11
154.256214
 21
282.624650
 31
0.0
  0
LINE
  5
1f5
100
AcDbEntity
  8
Calque_1
 62
5
100
AcDbLine
 10
154.256214
 20
282.624650
 30
0.0
 11
154.256214
 21
289.667114
 31
0.0
  0
LINE
  5
1f6
100
AcDbEntity
  8
Calque_1
 62
5
100
AcDbLine
 10
201.255929
 20
289.667114
 30
0.0
 11
204.255746
 21
289.667114
 31
0.0
  0
LINE
  5
1f7
100
AcDbEntity
  8
Calque_1
 62
5
100
AcDbLine
 10
204.255746
 20
289.667114
 30
0.0
 11
204.255746
 21
282.624650
 31
0.0
  0
LINE
  5
1f8
100
AcDbEntity
  8
Calque_1
 62
5
100
AcDbLine
 10
204.255746
 20
282.624650
 30
0.0
 11
201.255929
 21
282.624650
 31
0.0
  0
LINE
  5
1f9
100
AcDbEntity
  8
Calque_1
 62
5
100
AcDbLine
 10
201.255929
 20
282.624650
 30
0.0
 11
201.255929
 21
289.667114
 31
0.0
  0
LINE
  5
1fa
100
AcDbEntity
  8
Calque_1
 62
5
100
AcDbLine
 10
164.624057
 20
287.797978
 30
0.0
 11
194.623778
 21
287.797978
 31
0.0
  0
LINE
  5
1fb
100
AcDbEntity
  8
Calque_1
 62
5
100
AcDbLine
 10
194.623778
 20
287.797978
 30
0.0
 11
194.623778
 21
257.797741
 31
0.0
  0
LINE
  5
1fc
100
AcDbEntity
  8
Calque_1
 62
5
100
AcDbLine
 10
194.623778
 20
257.797741
 30
0.0
 11
164.624057
 21
257.797741
 31
0.0
  0
LINE
  5
1fd
100
AcDbEntity
  8
Calque_1
 62
5
100
AcDbLine
 10
164.624057
 20
257.797741
 30
0.0
 11
164.624057
 21
287.797978
 31
0.0
  0
LINE
  5
1fe
100
AcDbEntity
  8
Calque_1
 62
5
100
AcDbLine
 10
154.256214
 20
275.381682
 30
0.0
 11
157.256034
 21
275.381682
 31
0.0
  0
LINE
  5
1ff
100
AcDbEntity
  8
Calque_1
 62
5
100
AcDbLine
 10
157.256034
 20
275.381682
 30
0.0
 11
157.256034
 21
268.338701
 31
0.0
  0
LINE
  5
200
100
AcDbEntity
  8
Calque_1
 62
5
100
AcDbLine
 10
157.256034
 20
268.338701
 30
0.0
 11
154.256214
 21
268.338701
 31
0.0
  0
LINE
  5
201
100
AcDbEntity
  8
Calque_1
 62
5
100
AcDbLine
 10
154.256214
 20
268.338701
 30
0.0
 11
154.256214
 21
275.381682
 31
0.0
  0
LINE
  5
202
100
AcDbEntity
  8
Calque_1
 62
5
100
AcDbLine
 10
201.255929
 20
275.381682
 30
0.0
 11
204.255746
 21
275.381682
 31
0.0
  0
LINE
  5
203
100
AcDbEntity
  8
Calque_1
 62
5
100
AcDbLine
 10
204.255746
 20
275.381682
 30
0.0
 11
204.255746
 21
268.338701
 31
0.0
  0
LINE
  5
204
100
AcDbEntity
  8
Calque_1
 62
5
100
AcDbLine
 10
204.255746
 20
268.338701
 30
0.0
 11
201.255929
 21
268.338701
 31
0.0
  0
LINE
  5
205
100
AcDbEntity
  8
Calque_1
 62
5
100
AcDbLine
 10
201.255929
 20
268.338701
 30
0.0
 11
201.255929
 21
275.381682
 31
0.0
  0
LINE
  5
206
100
AcDbEntity
  8
Calque_1
 62
5
100
AcDbLine
 10
154.256214
 20
261.095733
 30
0.0
 11
157.256034
 21
261.095733
 31
0.0
  0
LINE
  5
207
100
AcDbEntity
  8
Calque_1
 62
5
100
AcDbLine
 10
157.256034
 20
261.095733
 30
0.0
 11
157.256034
 21
254.053268
 31
0.0
  0
LINE
  5
208
100
AcDbEntity
  8
Calque_1
 62
5
100
AcDbLine
 10
157.256034
 20
254.053268
 30
0.0
 11
154.256214
 21
254.053268
 31
0.0
  0
LINE
  5
209
100
AcDbEntity
  8
Calque_1
 62
5
100
AcDbLine
 10
154.256214
 20
254.053268
 30
0.0
 11
154.256214
 21
261.095733
 31
0.0
  0
LINE
  5
20a
100
AcDbEntity
  8
Calque_1
 62
5
100
AcDbLine
 10
201.255929
 20
261.095733
 30
0.0
 11
204.255746
 21
261.095733
 31
0.0
  0
LINE
  5
20b
100
AcDbEntity
  8
Calque_1
 62
5
100
AcDbLine
 10
204.255746
 20
261.095733
 30
0.0
 11
204.255746
 21
254.053268
 31
0.0
  0
LINE
  5
20c
100
AcDbEntity
  8
Calque_1
 62
5
100
AcDbLine
 10
204.255746
 20
254.053268
 30
0.0
 11
201.255929
 21
254.053268
 31
0.0
  0
LINE
  5
20d
100
AcDbEntity
  8
Calque_1
 62
5
100
AcDbLine
 10
201.255929
 20
254.053268
 30
0.0
 11
201.255929
 21
261.095733
 31
0.0
  0
LINE
  5
20e
100
AcDbEntity
  8
Calque_1
 62
5
100
AcDbLine
 10
161.449058
 20
249.860241
 30
0.0
 11
168.491522
 21
249.860241
 31
0.0
  0
LINE
  5
20f
100
AcDbEntity
  8
Calque_1
 62
5
100
AcDbLine
 10
168.491522
 20
249.860241
 30
0.0
 11
168.491522
 21
246.860424
 31
0.0
  0
LINE
  5
210
100
AcDbEntity
  8
Calque_1
 62
5
100
AcDbLine
 10
168.491522
 20
246.860424
 30
0.0
 11
161.449058
 21
246.860424
 31
0.0
  0
LINE
  5
211
100
AcDbEntity
  8
Calque_1
 62
5
100
AcDbLine
 10
161.449058
 20
246.860424
 30
0.0
 11
161.449058
 21
249.860241
 31
0.0
  0
LINE
  5
212
100
AcDbEntity
  8
Calque_1
 62
5
100
AcDbLine
 10
175.734491
 20
249.860241
 30
0.0
 11
182.777472
 21
249.860241
 31
0.0
  0
LINE
  5
213
100
AcDbEntity
  8
Calque_1
 62
5
100
AcDbLine
 10
182.777472
 20
249.860241
 30
0.0
 11
182.777472
 21
246.860424
 31
0.0
  0
LINE
  5
214
100
AcDbEntity
  8
Calque_1
 62
5
100
AcDbLine
 10
182.777472
 20
246.860424
 30
0.0
 11
175.734491
 21
246.860424
 31
0.0
  0
LINE
  5
215
100
AcDbEntity
  8
Calque_1
 62
5
100
AcDbLine
 10
175.734491
 20
246.860424
 30
0.0
 11
175.734491
 21
249.860241
 31
0.0
  0
LINE
  5
216
100
AcDbEntity
  8
Calque_1
 62
5
100
AcDbLine
 10
190.020440
 20
249.860241
 30
0.0
 11
197.062905
 21
249.860241
 31
0.0
  0
LINE
  5
217
100
AcDbEntity
  8
Calque_1
 62
5
100
AcDbLine
 10
197.062905
 20
249.860241
 30
0.0
 11
197.062905
 21
246.860424
 31
0.0
  0
LINE
  5
218
100
AcDbEntity
  8
Calque_1
 62
5
100
AcDbLine
 10
197.062905
 20
246.860424
 30
0.0
 11
190.020440
 21
246.860424
 31
0.0
  0
LINE
  5
219
100
AcDbEntity
  8
Calque_1
 62
5
100
AcDbLine
 10
190.020440
 20
246.860424
 30
0.0
 11
190.020440
 21
249.860241
 31
0.0
  0
ENDSEC
  0
SECTION
  2
OBJECTS
  0
DICTIONARY
  5
C
330
0
100
AcDbDictionary
  3
ACAD_GROUP
350
D
  3
ACAD_MLINESTYLE
350
17
  0
DICTIONARY
  5
D
330
C
100
AcDbDictionary
  0
DICTIONARY
  5
1A
330
C
100
AcDbDictionary
  0
DICTIONARY
  5
17
330
C
100
AcDbDictionary
  3
STANDARD
350
18
  0
DICTIONARY
  5
19
330
C
100
AcDbDictionary
  0
ENDSEC
  0
EOF
